<?xml version="1.0" encoding="utf-8"?>
<!-- Generator: Adobe Illustrator 16.0.0, SVG Export Plug-In . SVG Version: 6.00 Build 0)  -->
<!DOCTYPE svg PUBLIC "-//W3C//DTD SVG 1.1//EN" "http://www.w3.org/Graphics/SVG/1.1/DTD/svg11.dtd">
<svg version="1.1" id="Layer_1" xmlns="http://www.w3.org/2000/svg" xmlns:xlink="http://www.w3.org/1999/xlink" x="0px" y="0px"
	 width="205px" height="160px" viewBox="0 0 205 160" enable-background="new 0 0 205 160" xml:space="preserve">
<g>
	<path fill-rule="evenodd" clip-rule="evenodd" d="M5.17,6.65C5.53,6.44,5.91,6.39,6.3,6.5c1.24,0.35,2.49,0.44,3.75,0.27h-0.1
		c0.61-0.12,1.23-0.29,1.88-0.5c0.08-0.02,0.15-0.04,0.22-0.05c0.24-0.04,0.48-0.07,0.73-0.08C19.7,5.58,23.94,8.1,25.5,13.73
		l-0.02-0.02c1.93,5.98,6.36,8.98,13.3,9c0.03,0,0.06,0,0.1,0c36.96,2.81,65.31,7.64,85.03,14.47
		c24.22,8.38,35.77,19.77,34.65,34.18c-0.36,5.63-0.13,10.74,0.67,15.32c1.79,9.89,6.37,17.28,13.75,22.17
		c11.41,7.53,19.99,14.64,25.73,21.33c1.74,2.04,2.52,3.84,2.33,5.42c-0.04,1.75-1.15,3.2-3.3,4.35c-3.29,1.81-9.69,2.78-19.2,2.9
		c-9.57,0.1-18.6,0.17-27.1,0.2h-0.02c-7.7,0.07-14.96,0.1-21.78,0.1c-2.24,0.13-4.23,0.33-5.97,0.63h-0.03
		c-5.08,0.81-7.79,2.01-8.13,3.6v0.03c-0.05,0.45-0.14,0.87-0.28,1.27l-0.02,0.03c-0.53,1.69-1.95,2.81-4.25,3.35
		c-1.76,0.45-4.15,0.5-7.18,0.15c-4.24-0.48-8.2-0.1-11.9,1.13h-0.02c-1.65,0.54-3.25,1.26-4.77,2.17l0.05-0.05
		c-1.27,0.88-2.85,1.19-4.73,0.92c-0.41-0.06-0.75-0.25-1-0.58c-0.25-0.33-0.34-0.69-0.27-1.1c0.05-0.41,0.25-0.75,0.58-1
		c0.33-0.25,0.69-0.34,1.1-0.28c1.06,0.14,1.95-0.02,2.68-0.47c0.02-0.02,0.03-0.03,0.05-0.05c1.74-1.02,3.55-1.83,5.43-2.43h-0.03
		c4.1-1.37,8.5-1.8,13.2-1.27c2.58,0.31,4.62,0.3,6.13-0.05c1.1-0.26,1.82-0.74,2.15-1.45l-0.03,0.02c0.06-0.2,0.1-0.41,0.13-0.63
		c0.06-3.06,3.62-5.15,10.67-6.27c1.85-0.31,3.95-0.54,6.3-0.67c0.03,0,0.05,0,0.08,0c6.83,0,14.1-0.03,21.83-0.1h0.03
		c8.49-0.03,17.52-0.1,27.07-0.2c8.82-0.11,14.76-0.96,17.83-2.55c1.02-0.54,1.6-1.19,1.73-1.92c-0.01-0.92-0.55-2-1.63-3.25
		c-5.6-6.51-13.96-13.44-25.08-20.78c-8.09-5.31-13.1-13.35-15.05-24.12V87.2c-0.86-4.8-1.1-10.15-0.73-16.05
		c0.69-12.99-10.2-23.37-32.65-31.13c-19.55-6.76-47.64-11.54-84.28-14.32c-8.34-0.14-13.67-3.84-16-11.1l-0.02-0.02
		c-1.24-4.04-4.43-5.85-9.58-5.43c-0.04,0-0.08,0-0.13,0c-0.08,0-0.15,0-0.23,0c-0.73,0.24-1.44,0.44-2.13,0.58
		c-0.03,0-0.07,0-0.1,0C8.78,9.96,7.13,9.85,5.5,9.4C5.1,9.28,4.8,9.04,4.6,8.67C4.39,8.32,4.34,7.94,4.45,7.55
		C4.57,7.15,4.81,6.85,5.17,6.65z"/>
</g>
</svg>
