<?xml version="1.0" encoding="utf-8"?>
<!-- Generator: Adobe Illustrator 16.0.0, SVG Export Plug-In . SVG Version: 6.00 Build 0)  -->
<!DOCTYPE svg PUBLIC "-//W3C//DTD SVG 1.1//EN" "http://www.w3.org/Graphics/SVG/1.1/DTD/svg11.dtd">
<svg version="1.1" id="Layer_4" xmlns="http://www.w3.org/2000/svg" xmlns:xlink="http://www.w3.org/1999/xlink" x="0px" y="0px"
	 width="599.33px" height="253.33px" viewBox="0 0 599.33 253.33" enable-background="new 0 0 599.33 253.33" xml:space="preserve">
<g id="Layer_1_2_">
	<g>
		<g>
			
				<path fill="none" stroke="#FFFFFF" stroke-width="2.5" stroke-linecap="round" stroke-linejoin="round" stroke-miterlimit="3" d="
				M115.5,88.35H126v-67.5h121.5v-13 M551.45,88.35h31.5v138h-21v-9H26v9H5.5v-138h31 M253.5,16.1v4.75h208.65v67.5h10.8 M126,88.35
				h10.5v-31.5h15.55l3.55-3.55l9.1,7.1l8.25-6.9l7.95,6.8l9-7.05l8.85,7.05l3.4-3.45H216v31.5h156.95v-31.5h13.8l3.55-3.55l9.1,7.1
				l8.25-6.9l7.95,6.8l9-7.05l8.85,7.05l3.4-3.45h14.6v31.5h10.7v11.5 M451.45,99.85v-11.5h-8.95v19H485v-19h-12.05v11.5 M292,97.85
				v9.5h91.95v-19h-11V99.6 M292.25,178.6c-0.13,0-0.25,0-0.35,0c-6.8,0-12.6-2.42-17.4-7.25c-4.83-4.8-7.25-10.6-7.25-17.4
				c0-6.83,2.42-12.65,7.25-17.45c4.8-4.8,10.6-7.2,17.4-7.2c0.03,0,0.07,0,0.1,0 M247.5,20.85V34.5 M253.5,20.85v4.5 M216,88.35
				v9.2 M292,107.35h-87v-19h11 M126,88.35V98.6 M115.5,95.85v-7.5H106v19h42.5v-19h-12V96 M47.5,88.35v19H26v110 M15,217.35h11
				 M550.45,98.35v-10h-10v19h21.5v110H572 M292,107.35v21.95c6.8,0.03,12.58,2.43,17.35,7.2c4.8,4.8,7.2,10.62,7.2,17.45
				c0,6.8-2.4,12.6-7.2,17.4c-4.73,4.77-10.43,7.18-17.1,7.25c-2.03,12.07-8.57,18.43-19.6,19.1c-9.13,0.87-17.15,4.3-16.15,12.15
				 M35.95,88.35v-31.5h13.8l3.55-3.55l9.1,7.1l8.25-6.9l7.95,6.8l9-7.05l8.85,7.05l3.4-3.45h15.6v31.5 M46.95,88.35h-11V99.6"/>
		</g>
		<g>
			<path fill="#FFFFFF" d="M117.8,100.5c-0.71,0.71-1.57,1.07-2.58,1.07c-1.01,0-1.87-0.36-2.58-1.07s-1.07-1.57-1.07-2.58
				c0-1.01,0.36-1.87,1.07-2.58s1.57-1.07,2.58-1.07c1.01,0,1.87,0.36,2.58,1.07s1.07,1.57,1.07,2.58
				C118.86,98.92,118.51,99.79,117.8,100.5z"/>
			<path fill="#FFFFFF" d="M126.16,94.26c1.01,0,1.87,0.36,2.58,1.07c0.71,0.71,1.07,1.57,1.07,2.58c0,1.01-0.36,1.87-1.07,2.58
				c-0.71,0.71-1.57,1.07-2.58,1.07c-1.01,0-1.87-0.36-2.58-1.07s-1.07-1.57-1.07-2.58c0-1.01,0.36-1.87,1.07-2.58
				S125.16,94.26,126.16,94.26z"/>
			<path fill="#FFFFFF" d="M136.51,94.26c1.01,0,1.87,0.36,2.58,1.07s1.07,1.57,1.07,2.58c0,1.01-0.36,1.87-1.07,2.58
				s-1.57,1.07-2.58,1.07c-1.01,0-1.87-0.36-2.58-1.07s-1.07-1.57-1.07-2.58c0-1.01,0.36-1.87,1.07-2.58S135.5,94.26,136.51,94.26z"
				/>
			<path fill="#FFFFFF" d="M453.85,100.5c-0.71,0.71-1.57,1.07-2.58,1.07c-1.01,0-1.87-0.36-2.58-1.07
				c-0.71-0.71-1.07-1.57-1.07-2.58c0-1.01,0.36-1.87,1.07-2.58c0.71-0.71,1.57-1.07,2.58-1.07c1.01,0,1.87,0.36,2.58,1.07
				s1.07,1.57,1.07,2.58C454.92,98.92,454.56,99.79,453.85,100.5z"/>
			<path fill="#FFFFFF" d="M462.66,94.26c1.01,0,1.87,0.36,2.58,1.07s1.07,1.57,1.07,2.58c0,1.01-0.36,1.87-1.07,2.58
				s-1.57,1.07-2.58,1.07s-1.87-0.36-2.58-1.07s-1.07-1.57-1.07-2.58c0-1.01,0.36-1.87,1.07-2.58S461.66,94.26,462.66,94.26z"/>
			<path fill="#FFFFFF" d="M470.35,95.55c0.7-0.73,1.55-1.1,2.55-1.1s1.87,0.37,2.6,1.1c0.7,0.7,1.05,1.55,1.05,2.55
				c0,1.03-0.35,1.9-1.05,2.6c-0.73,0.7-1.6,1.05-2.6,1.05s-1.85-0.35-2.55-1.05c-0.73-0.7-1.1-1.57-1.1-2.6
				C469.25,97.1,469.62,96.25,470.35,95.55z"/>
			<path fill="#FFFFFF" d="M550.41,94.26c1.01,0,1.87,0.36,2.58,1.07s1.07,1.57,1.07,2.58c0,1.01-0.36,1.87-1.07,2.58
				s-1.57,1.07-2.58,1.07s-1.87-0.36-2.58-1.07s-1.07-1.57-1.07-2.58c0-1.01,0.36-1.87,1.07-2.58S549.41,94.26,550.41,94.26z"/>
			<path fill="#FFFFFF" d="M372.51,94.26c1.01,0,1.87,0.36,2.58,1.07s1.07,1.57,1.07,2.58c0,1.01-0.36,1.87-1.07,2.58
				s-1.57,1.07-2.58,1.07s-1.87-0.36-2.58-1.07s-1.07-1.57-1.07-2.58c0-1.01,0.36-1.87,1.07-2.58S371.5,94.26,372.51,94.26z"/>
			<path fill="#FFFFFF" d="M292.21,94.26c1.01,0,1.87,0.36,2.58,1.07s1.07,1.57,1.07,2.58c0,1.01-0.36,1.87-1.07,2.58
				s-1.57,1.07-2.58,1.07s-1.87-0.36-2.58-1.07s-1.07-1.57-1.07-2.58c0-1.01,0.36-1.87,1.07-2.58S291.21,94.26,292.21,94.26z"/>
			<path fill="#FFFFFF" d="M215.71,94.26c1.01,0,1.87,0.36,2.58,1.07s1.07,1.57,1.07,2.58c0,1.01-0.36,1.87-1.07,2.58
				s-1.57,1.07-2.58,1.07c-1.01,0-1.87-0.36-2.58-1.07s-1.07-1.57-1.07-2.58c0-1.01,0.36-1.87,1.07-2.58S214.71,94.26,215.71,94.26z
				"/>
			<path fill="#FFFFFF" d="M38.9,100.5c-0.71,0.71-1.57,1.07-2.58,1.07c-1.01,0-1.87-0.36-2.58-1.07c-0.71-0.71-1.07-1.57-1.07-2.58
				c0-1.01,0.36-1.87,1.07-2.58c0.71-0.71,1.57-1.07,2.58-1.07c1.01,0,1.87,0.36,2.58,1.07s1.07,1.57,1.07,2.58
				C39.96,98.92,39.61,99.79,38.9,100.5z"/>
			<path fill="#FFFFFF" d="M18.2,219.85c-0.71,0.71-1.57,1.07-2.58,1.07c-1.01,0-1.87-0.36-2.58-1.07
				c-0.71-0.71-1.07-1.57-1.07-2.58s0.36-1.87,1.07-2.58c0.71-0.71,1.57-1.07,2.58-1.07c1.01,0,1.87,0.36,2.58,1.07
				c0.71,0.71,1.07,1.57,1.07,2.58C19.26,218.27,18.91,219.13,18.2,219.85z"/>
			<path fill="#FFFFFF" d="M574.75,219.85c-0.71,0.71-1.57,1.07-2.58,1.07s-1.87-0.36-2.58-1.07c-0.71-0.71-1.07-1.57-1.07-2.58
				s0.36-1.87,1.07-2.58c0.71-0.71,1.57-1.07,2.58-1.07s1.87,0.36,2.58,1.07c0.71,0.71,1.07,1.57,1.07,2.58
				C575.82,218.27,575.46,219.13,574.75,219.85z"/>
			<g>
				<path fill="#FFFFFF" d="M177.8,45.46V35.08h3.36c1.27,0,2.1,0.05,2.49,0.16c0.59,0.16,1.09,0.49,1.49,1.02
					c0.4,0.52,0.6,1.2,0.6,2.02c0,0.64-0.12,1.17-0.35,1.61c-0.23,0.43-0.53,0.78-0.88,1.02c-0.36,0.25-0.72,0.41-1.09,0.49
					c-0.5,0.1-1.22,0.15-2.17,0.15h-1.37v3.92h-2.08V45.46L177.8,45.46z M179.9,36.83v2.95h1.15c0.83,0,1.38-0.05,1.66-0.16
					c0.28-0.11,0.5-0.28,0.66-0.51c0.16-0.23,0.24-0.5,0.24-0.81c0-0.38-0.11-0.69-0.33-0.93c-0.22-0.25-0.5-0.4-0.84-0.46
					c-0.25-0.05-0.75-0.07-1.51-0.07L179.9,36.83L179.9,36.83z"/>
			</g>
			<g>
				<path fill="#FFFFFF" d="M289.22,73.13h4.15c0.82,0,1.43,0.03,1.84,0.1c0.4,0.07,0.76,0.21,1.08,0.43
					c0.32,0.22,0.58,0.51,0.8,0.87c0.21,0.36,0.32,0.77,0.32,1.21c0,0.49-0.13,0.93-0.39,1.34c-0.26,0.41-0.62,0.71-1.07,0.91
					c0.63,0.18,1.12,0.5,1.46,0.94c0.34,0.44,0.51,0.97,0.51,1.56c0,0.47-0.11,0.93-0.33,1.38c-0.22,0.45-0.52,0.8-0.9,1.07
					s-0.85,0.43-1.41,0.49c-0.35,0.04-1.19,0.06-2.53,0.07h-3.53L289.22,73.13L289.22,73.13z M291.32,74.85v2.4h1.37
					c0.82,0,1.32-0.01,1.52-0.04c0.36-0.04,0.64-0.17,0.85-0.37c0.21-0.21,0.31-0.48,0.31-0.81c0-0.32-0.09-0.58-0.27-0.78
					c-0.18-0.2-0.44-0.32-0.79-0.36c-0.21-0.02-0.8-0.04-1.79-0.04H291.32z M291.32,78.98v2.78h1.94c0.75,0,1.23-0.02,1.44-0.06
					c0.31-0.06,0.57-0.19,0.76-0.41c0.2-0.22,0.29-0.51,0.29-0.88c0-0.31-0.08-0.58-0.23-0.79c-0.15-0.22-0.37-0.38-0.66-0.47
					c-0.29-0.1-0.9-0.15-1.86-0.15h-1.68V78.98L291.32,78.98z"/>
			</g>
			<g>
				<path fill="#FFFFFF" d="M289.93,150.74v-1.75h4.52v4.13c-0.44,0.42-1.08,0.8-1.91,1.12c-0.83,0.32-1.68,0.48-2.53,0.48
					c-1.09,0-2.03-0.23-2.84-0.68c-0.81-0.46-1.41-1.11-1.82-1.95c-0.41-0.84-0.61-1.77-0.61-2.76c0-1.08,0.23-2.04,0.68-2.88
					c0.45-0.84,1.12-1.48,1.99-1.93c0.67-0.34,1.49-0.52,2.49-0.52c1.29,0,2.29,0.27,3.02,0.81c0.73,0.54,1.19,1.29,1.4,2.24
					l-2.08,0.39c-0.15-0.51-0.42-0.91-0.83-1.21c-0.4-0.29-0.91-0.44-1.51-0.44c-0.92,0-1.64,0.29-2.18,0.87
					c-0.54,0.58-0.81,1.44-0.81,2.58c0,1.23,0.27,2.16,0.82,2.77c0.55,0.62,1.26,0.92,2.15,0.92c0.44,0,0.88-0.09,1.32-0.26
					c0.44-0.17,0.82-0.38,1.14-0.63v-1.32h-2.41V150.74z"/>
			</g>
			<g>
				<path fill="#FFFFFF" d="M416.86,45.64c0.51,0.37,1.07,0.66,1.68,0.88L417.77,48c-0.32-0.09-0.63-0.22-0.93-0.39
					c-0.07-0.03-0.53-0.34-1.39-0.92c-0.68,0.3-1.43,0.45-2.26,0.45c-1.6,0-2.85-0.47-3.75-1.41c-0.9-0.94-1.36-2.26-1.36-3.96
					c0-1.69,0.45-3.01,1.36-3.95c0.91-0.94,2.14-1.41,3.69-1.41c1.54,0,2.76,0.47,3.66,1.41s1.35,2.26,1.35,3.95
					c0,0.9-0.13,1.69-0.38,2.37C417.58,44.65,417.28,45.15,416.86,45.64z M415.17,44.46c0.27-0.32,0.47-0.7,0.61-1.15
					c0.13-0.45,0.2-0.96,0.2-1.54c0-1.2-0.26-2.09-0.79-2.69c-0.53-0.59-1.22-0.89-2.07-0.89c-0.85,0-1.55,0.3-2.08,0.89
					s-0.8,1.49-0.8,2.68c0,1.21,0.26,2.12,0.8,2.72c0.53,0.6,1.2,0.9,2.01,0.9c0.3,0,0.59-0.05,0.86-0.15
					c-0.42-0.28-0.86-0.5-1.3-0.65l0.59-1.2C413.89,43.63,414.55,43.99,415.17,44.46z"/>
			</g>
			<g>
				<path fill="#FFFFFF" d="M462.9,118.94l2.03,0.64c-0.31,1.13-0.83,1.97-1.55,2.52c-0.72,0.55-1.64,0.82-2.76,0.82
					c-1.38,0-2.51-0.47-3.4-1.41c-0.89-0.94-1.33-2.23-1.33-3.86c0-1.73,0.45-3.07,1.34-4.02c0.89-0.96,2.07-1.43,3.52-1.43
					c1.27,0,2.3,0.38,3.09,1.13c0.47,0.44,0.83,1.08,1.06,1.91l-2.08,0.5c-0.12-0.54-0.38-0.96-0.77-1.27
					c-0.39-0.31-0.86-0.47-1.42-0.47c-0.77,0-1.39,0.28-1.87,0.83c-0.48,0.55-0.72,1.45-0.72,2.68c0,1.31,0.24,2.25,0.71,2.8
					c0.47,0.56,1.09,0.84,1.84,0.84c0.56,0,1.04-0.18,1.44-0.53C462.43,120.26,462.72,119.7,462.9,118.94z"/>
			</g>
			<g>
				<path fill="#FFFFFF" d="M566.02,242.99v-10.38h7.12v1.76h-5.02v2.46h4.33v1.76h-4.33V243L566.02,242.99L566.02,242.99z"/>
			</g>
			<g>
				<path fill="#FFFFFF" d="M249.5,222.43h3.83c0.86,0,1.52,0.07,1.98,0.2c0.61,0.18,1.13,0.5,1.56,0.96
					c0.43,0.46,0.76,1.02,0.99,1.68s0.34,1.48,0.34,2.45c0,0.85-0.11,1.59-0.32,2.21c-0.26,0.76-0.63,1.37-1.11,1.83
					c-0.36,0.35-0.85,0.63-1.47,0.83c-0.46,0.15-1.08,0.22-1.86,0.22h-3.94V222.43z M251.59,224.18v6.87h1.56
					c0.59,0,1.01-0.03,1.27-0.1c0.34-0.08,0.62-0.23,0.85-0.43c0.22-0.2,0.41-0.54,0.55-1c0.14-0.46,0.21-1.1,0.21-1.9
					c0-0.8-0.07-1.42-0.21-1.85c-0.14-0.43-0.34-0.76-0.59-1.01c-0.25-0.24-0.58-0.4-0.97-0.49c-0.29-0.07-0.87-0.1-1.72-0.1
					L251.59,224.18L251.59,224.18z"/>
			</g>
			<g>
				<path fill="#FFFFFF" d="M10.16,241.56v-10.38h7.7v1.76h-5.6v2.3h5.21v1.75h-5.21v2.83h5.8v1.75L10.16,241.56L10.16,241.56z"/>
			</g>
			<g>
				<path fill="#FFFFFF" d="M129.46,122.81h-2.28l-0.91-2.36h-4.15l-0.86,2.36h-2.22l4.04-10.38h2.22L129.46,122.81z M125.61,118.7
					l-1.43-3.85l-1.4,3.85H125.61z"/>
			</g>
		</g>
		<g>
			<polygon fill="#FFFFFF" points="256.18,214.6 249.5,206.58 262.92,206.58 			"/>
			<g>
				
					<path fill="none" stroke="#FFFFFF" stroke-width="2.5" stroke-linecap="round" stroke-linejoin="round" stroke-miterlimit="3" d="
					M239.15,14.65v-3.7h-3.7 M242.85,10.95h-3.7 M239.15,7.25v3.7"/>
			</g>
			<g>
				
					<line fill="none" stroke="#FFFFFF" stroke-width="2.5" stroke-linecap="round" stroke-linejoin="round" stroke-miterlimit="3" x1="261.9" y1="10.95" x2="256.45" y2="10.95"/>
			</g>
		</g>
	</g>
	
		<polyline fill="none" stroke="#FFFFFF" stroke-width="2.5" stroke-linecap="round" stroke-linejoin="round" stroke-miterlimit="3" points="
		472.95,88.35 472.95,56.85 486.75,56.85 490.3,53.3 499.4,60.4 507.65,53.5 515.6,60.3 524.6,53.25 533.45,60.3 536.85,56.85 
		550.45,56.85 550.45,88.35 	"/>
	
		<polyline fill="none" stroke="#FFFFFF" stroke-width="2.5" stroke-linecap="round" stroke-linejoin="round" stroke-miterlimit="3" points="
		483.95,107.35 483.95,88.35 472.95,88.35 472.95,99.6 	"/>
</g>
<g>
	<path fill="#FFFFFF" d="M71.75,46.43V34.97h4.87c1.22,0,2.11,0.1,2.67,0.31c0.55,0.21,1,0.57,1.33,1.1c0.33,0.53,0.5,1.13,0.5,1.8
		c0,0.86-0.25,1.57-0.76,2.13c-0.5,0.56-1.26,0.91-2.27,1.06c0.5,0.29,0.91,0.61,1.24,0.96s0.76,0.97,1.32,1.86l1.4,2.23h-2.77
		l-1.67-2.49c-0.59-0.89-1-1.45-1.22-1.68c-0.22-0.23-0.45-0.39-0.7-0.48s-0.63-0.13-1.16-0.13h-0.47v4.78L71.75,46.43L71.75,46.43z
		 M74.06,39.82h1.71c1.11,0,1.8-0.05,2.08-0.14c0.28-0.09,0.49-0.25,0.65-0.48c0.16-0.23,0.23-0.52,0.23-0.86
		c0-0.39-0.1-0.7-0.31-0.93c-0.21-0.24-0.5-0.39-0.87-0.45c-0.19-0.03-0.75-0.04-1.69-0.04h-1.8V39.82z"/>
</g>
<g>
	<path fill="#FFFFFF" d="M509.5,45.5l3.91-5.98l-3.55-5.48h2.7l2.3,3.68l2.25-3.68h2.68l-3.56,5.56l3.91,5.89h-2.79l-2.54-3.96
		l-2.55,3.96L509.5,45.5L509.5,45.5L509.5,45.5z"/>
</g>
</svg>
