<?xml version="1.0" encoding="utf-8"?>
<!-- Generator: Adobe Illustrator 16.0.0, SVG Export Plug-In . SVG Version: 6.00 Build 0)  -->
<!DOCTYPE svg PUBLIC "-//W3C//DTD SVG 1.1//EN" "http://www.w3.org/Graphics/SVG/1.1/DTD/svg11.dtd">
<svg version="1.1" id="Layer_1" xmlns="http://www.w3.org/2000/svg" xmlns:xlink="http://www.w3.org/1999/xlink" x="0px" y="0px"
	 width="81.5px" height="36px" viewBox="0 0 81.5 36" enable-background="new 0 0 81.5 36" xml:space="preserve">
<g>
	<path fill="#BF0404" d="M14.27,3.6c0.2-0.14,0.42-0.22,0.65-0.25c5.86-0.65,10.41,0.48,13.65,3.4c3.27,2.8,5.22,7.35,5.88,13.65
		c0.51,5.03,2.04,8.03,4.57,9c2.81,0.79,6.79-0.52,11.95-3.95h-0.02c6.38-4.29,11.97-7.19,16.75-8.68h-0.03
		c1.8-0.59,3.49-0.99,5.08-1.2c0.29-0.04,0.55-0.01,0.8,0.1c0.31,0.06,0.58,0.21,0.8,0.45c0.35,0.24,0.85,0.23,1.5-0.05
		c0.38-0.17,0.77-0.18,1.15-0.03c0.38,0.16,0.66,0.44,0.83,0.83c0.17,0.37,0.18,0.75,0.02,1.13c-0.15,0.38-0.42,0.66-0.8,0.83
		c-1.9,0.82-3.39,0.75-4.47-0.2c-1.25,0.2-2.56,0.53-3.95,1H68.6c-4.55,1.44-9.87,4.22-15.95,8.33h-0.03
		c-6.21,4.14-11.05,5.58-14.52,4.33c-3.75-1.08-5.96-4.93-6.65-11.58C30.9,15.33,29.28,11.43,26.6,9
		c-2.65-2.27-6.32-3.16-11.02-2.67c-2.32,1.4-4.8,1.7-7.45,0.9c-0.4-0.12-0.7-0.36-0.9-0.73C7.03,6.14,7,5.77,7.13,5.38
		c0.12-0.4,0.36-0.7,0.73-0.9c0.36-0.19,0.73-0.22,1.13-0.1C10.86,4.94,12.63,4.68,14.27,3.6z"/>
</g>
</svg>
