<?xml version="1.0" encoding="utf-8"?>
<!-- Generator: Adobe Illustrator 16.0.0, SVG Export Plug-In . SVG Version: 6.00 Build 0)  -->
<!DOCTYPE svg PUBLIC "-//W3C//DTD SVG 1.1//EN" "http://www.w3.org/Graphics/SVG/1.1/DTD/svg11.dtd">
<svg version="1.1" id="Layer_1" xmlns="http://www.w3.org/2000/svg" xmlns:xlink="http://www.w3.org/1999/xlink" x="0px" y="0px"
	 width="113.33px" height="68.67px" viewBox="0 0 113.33 68.67" enable-background="new 0 0 113.33 68.67" xml:space="preserve">
<g>
	<g>
		<polygon fill-opacity="0.2471" points="83.33,45.93 109.45,65.33 21,65.33 3.95,45.93 		"/>
	</g>
	<g>
		<g>
			<g>
				<polygon fill="#0D0E12" points="99.75,22.58 43.5,22.58 18.35,22.58 5.15,9.73 76.15,9.73 				"/>
				<g>
					<g>
						
							<radialGradient id="SVGID_1_" cx="-29.0498" cy="56.5859" r="0.6125" gradientTransform="matrix(1 0 0 -1 94 73.6699)" gradientUnits="userSpaceOnUse">
							<stop  offset="0" style="stop-color:#9B9A95"/>
							<stop  offset="1" style="stop-color:#7C7950"/>
						</radialGradient>
						<path fill="url(#SVGID_1_)" d="M65.5,17.08c0,0.1-0.09,0.2-0.25,0.3c-0.17,0.03-0.37,0.05-0.6,0.05
							c-0.23,0-0.45-0.01-0.65-0.05c-0.16-0.07-0.25-0.15-0.25-0.25v-0.15c0.07-0.07,0.15-0.12,0.25-0.15
							c0.2-0.17,0.42-0.25,0.65-0.25c0.23,0,0.43,0.08,0.6,0.25C65.42,16.87,65.5,16.95,65.5,17.08z M64.25,16.98
							c0.1-0.1,0.17-0.2,0.2-0.3c-0.1,0-0.2,0.07-0.3,0.2c-0.17,0.13-0.25,0.22-0.25,0.25L64.25,16.98z"/>
						<path fill="#FFFFFF" d="M64.25,16.98l-0.35,0.15c0-0.03,0.08-0.12,0.25-0.25c0.1-0.13,0.2-0.2,0.3-0.2
							C64.42,16.78,64.35,16.88,64.25,16.98z"/>
						
							<linearGradient id="SVGID_2_" gradientUnits="userSpaceOnUse" x1="-30.2373" y1="55.54" x2="-28.4623" y2="55.54" gradientTransform="matrix(1 0 0 -1 94 73.6699)">
							<stop  offset="0" style="stop-color:#908E77"/>
							<stop  offset="0.1608" style="stop-color:#F1EFD6"/>
							<stop  offset="0.3843" style="stop-color:#7F7A67"/>
							<stop  offset="0.651" style="stop-color:#423D15"/>
							<stop  offset="1" style="stop-color:#6B6E59"/>
						</linearGradient>
						<path fill="url(#SVGID_2_)" d="M63.75,17.13c0,0.1,0.09,0.18,0.25,0.25c0.2,0.03,0.42,0.05,0.65,0.05
							c0.23,0,0.43-0.02,0.6-0.05c0.16-0.1,0.25-0.2,0.25-0.3v1.7c0,0.1-0.08,0.22-0.25,0.35c-0.17,0.03-0.37,0.05-0.6,0.05
							c-0.23,0-0.45-0.01-0.65-0.05c-0.17-0.13-0.25-0.22-0.25-0.25V17.13z"/>
					</g>
				</g>
				
					<linearGradient id="SVGID_3_" gradientUnits="userSpaceOnUse" x1="-1.2095" y1="69.5801" x2="-94.5284" y2="69.1211" gradientTransform="matrix(1 0 0 1 99.8101 -33.3711)">
					<stop  offset="0" style="stop-color:#DCBB9A"/>
					<stop  offset="0.0609" style="stop-color:#D3A965"/>
					<stop  offset="0.8243" style="stop-color:#D2B47D"/>
					<stop  offset="0.8636" style="stop-color:#5C482C"/>
					<stop  offset="1" style="stop-color:#785B32"/>
				</linearGradient>
				<polyline fill="url(#SVGID_3_)" points="18.83,61.67 5.17,46.17 5.27,9.9 20.77,24.35 97.12,24.35 98.57,24.35 98.92,24.35 
					98.83,61.5 19,61.5 				"/>
			</g>
		</g>
		<g>
			<g>
				
					<linearGradient id="SVGID_4_" gradientUnits="userSpaceOnUse" x1="444.9785" y1="390.2217" x2="468.3845" y2="390.2217" gradientTransform="matrix(0.863 0.5052 1.9793 -5.708211e-005 -1128.0034 -220.9597)">
					<stop  offset="0" style="stop-color:#646218"/>
					<stop  offset="0.9804" style="stop-color:#A9A88A"/>
				</linearGradient>
				<polygon fill="url(#SVGID_4_)" points="87.6,19.58 43.5,19.58 23,19.58 20.7,18.08 43.5,18.08 75.3,18.08 75.75,18.08 
					78.25,18.08 73.7,15.63 69.5,13.53 64.85,11.13 43.5,11.13 11.85,11.08 10.6,10.18 43.5,10.18 64.45,10.18 68.1,10.18 
					70.85,11.53 74,13.18 78.65,15.33 78.85,15.33 				"/>
				<path fill="#272818" d="M75.3,18.08l-8.15-4.55l-2.3-1.35H43.5H11.85l-1.25-1.05v-0.95l1.25,0.9l31.65,0.05h21.35l4.65,2.4
					l4.2,2.1l4.55,2.45h-2.5H75.3z M23,19.58v1.65h-0.1l-2.2-1.5v-1.65L23,19.58z"/>
				<polygon fill="#80732F" points="23,21.23 23,19.58 43.5,19.58 87.6,19.58 87.6,21.23 81.35,21.23 43.5,21.23 				"/>
			</g>
		</g>
		<g>
			<g>
				
					<radialGradient id="SVGID_5_" cx="-21.5503" cy="61.6357" r="0.5499" gradientTransform="matrix(1 0 0 -1 94 73.6699)" gradientUnits="userSpaceOnUse">
					<stop  offset="0" style="stop-color:#9B9A95"/>
					<stop  offset="1" style="stop-color:#7C7950"/>
				</radialGradient>
				<path fill="url(#SVGID_5_)" d="M73,12.03c0,0.1-0.09,0.17-0.25,0.2c-0.17,0.07-0.35,0.1-0.55,0.1c-0.17,0-0.32-0.03-0.45-0.1
					c-0.23-0.03-0.35-0.08-0.35-0.15v-0.15c0.07-0.07,0.18-0.12,0.35-0.15c0.13-0.07,0.28-0.1,0.45-0.1c0.2,0,0.38,0.03,0.55,0.1
					C72.92,11.88,73,11.97,73,12.03z M71.9,11.93c0.1-0.07,0.15-0.12,0.15-0.15c-0.07,0-0.15,0.02-0.25,0.05
					c-0.17,0.13-0.25,0.22-0.25,0.25L71.9,11.93z"/>
				
					<linearGradient id="SVGID_6_" gradientUnits="userSpaceOnUse" x1="-22.5503" y1="60.7148" x2="-21.0498" y2="60.7148" gradientTransform="matrix(1 0 0 -1 94 73.6699)">
					<stop  offset="0" style="stop-color:#908E77"/>
					<stop  offset="0.1608" style="stop-color:#F1EFD6"/>
					<stop  offset="0.3843" style="stop-color:#7F7A67"/>
					<stop  offset="0.651" style="stop-color:#423D15"/>
					<stop  offset="1" style="stop-color:#6B6E59"/>
				</linearGradient>
				<path fill="url(#SVGID_6_)" d="M71.4,12.08c0,0.07,0.12,0.12,0.35,0.15c0.13,0.07,0.28,0.1,0.45,0.1c0.2,0,0.38-0.03,0.55-0.1
					c0.16-0.03,0.25-0.1,0.25-0.2v1.55c0,0.07-0.08,0.15-0.25,0.25c-0.17,0.03-0.35,0.05-0.55,0.05c-0.17,0-0.32-0.02-0.45-0.05
					c-0.23-0.07-0.35-0.15-0.35-0.25V12.08z"/>
				<path fill="#FFFFFF" d="M71.9,11.93l-0.35,0.15c0-0.03,0.08-0.12,0.25-0.25c0.1-0.03,0.18-0.05,0.25-0.05
					C72.05,11.82,72,11.87,71.9,11.93z"/>
			</g>
		</g>
		<g>
			<g>
				<g>
					<path fill="#0F1219" d="M66.85,13.03c0,0.17-0.12,0.34-0.35,0.5l-1.95,1.65c-0.37,0.2-0.73,0.27-1.1,0.2l-1.25-0.3
						c-0.27-0.1-0.4-0.23-0.4-0.4c-0.07-0.1-0.05-0.2,0.05-0.3L64,12.63c0.67-0.53,1.27-0.68,1.8-0.45l0.7,0.45
						C66.73,12.73,66.85,12.87,66.85,13.03z"/>
					
						<linearGradient id="SVGID_7_" gradientUnits="userSpaceOnUse" x1="-31.3379" y1="58.0264" x2="-29.1627" y2="58.0264" gradientTransform="matrix(1 0 0 -1 94 73.6699)">
						<stop  offset="0" style="stop-color:#1B1E23"/>
						<stop  offset="0.5176" style="stop-color:#242628"/>
						<stop  offset="1" style="stop-color:#07080C"/>
					</linearGradient>
					<path fill="url(#SVGID_7_)" d="M61.8,14.68c0,0.17,0.13,0.3,0.4,0.4l1.25,0.3c0.37,0.07,0.73,0,1.1-0.2l1.95-1.65
						c0.23-0.16,0.35-0.33,0.35-0.5v3l-1.9,1.8c-0.63,0.47-1.3,0.55-2,0.25l-1.25-0.55L61.8,14.68z"/>
				</g>
			</g>
			<g>
				
					<radialGradient id="SVGID_8_" cx="-29.8496" cy="59.0371" r="2.625" gradientTransform="matrix(1 0 0 -1 94 73.6699)" gradientUnits="userSpaceOnUse">
					<stop  offset="0" style="stop-color:#FFFFFF;stop-opacity:0.3725"/>
					<stop  offset="1" style="stop-color:#FEFEFE;stop-opacity:0"/>
				</radialGradient>
				<path fill="url(#SVGID_8_)" d="M66.83,12.91c0.03-0.02,0.06-0.03,0.1-0.03c0.04,0.01,0.08,0.04,0.1,0.08
					c0.02,0.03,0.03,0.06,0.02,0.1c-0.04,0.2-0.2,0.4-0.47,0.6h0.02l-1.95,1.55c-0.41,0.3-0.8,0.4-1.18,0.33l-1.25-0.3
					c-0.04-0.01-0.08-0.04-0.1-0.07c-0.02-0.03-0.03-0.06-0.03-0.1c0.01-0.04,0.04-0.08,0.08-0.1c0.03-0.02,0.06-0.03,0.1-0.02
					l1.25,0.3c0.29,0.05,0.6-0.04,0.92-0.27l1.95-1.55h0.02c0.19-0.14,0.3-0.27,0.33-0.4C66.76,12.97,66.79,12.93,66.83,12.91z"/>
			</g>
		</g>
		<g>
			<g>
				
					<radialGradient id="SVGID_9_" cx="-43.5" cy="56.5859" r="0.6125" gradientTransform="matrix(1 0 0 -1 94 73.6699)" gradientUnits="userSpaceOnUse">
					<stop  offset="0" style="stop-color:#9B9A95"/>
					<stop  offset="1" style="stop-color:#7C7950"/>
				</radialGradient>
				<path fill="url(#SVGID_9_)" d="M49.8,16.98c0.1-0.1,0.18-0.2,0.25-0.3c-0.1,0-0.22,0.07-0.35,0.2c-0.13,0.13-0.2,0.22-0.2,0.25
					L49.8,16.98z M49.35,17.13v-0.15c0.03-0.07,0.1-0.12,0.2-0.15c0.23-0.17,0.45-0.25,0.65-0.25c0.27,0,0.47,0.08,0.6,0.25
					c0.23,0.03,0.35,0.12,0.35,0.25c0,0.1-0.12,0.2-0.35,0.3c-0.13,0.03-0.33,0.05-0.6,0.05c-0.2,0-0.42-0.02-0.65-0.05
					C49.42,17.32,49.35,17.23,49.35,17.13z"/>
				<path fill="#FFFFFF" d="M49.8,16.98l-0.3,0.15c0-0.03,0.07-0.12,0.2-0.25c0.13-0.13,0.25-0.2,0.35-0.2
					C49.98,16.78,49.9,16.88,49.8,16.98z"/>
				
					<linearGradient id="SVGID_10_" gradientUnits="userSpaceOnUse" x1="-44.6875" y1="55.54" x2="-42.9125" y2="55.54" gradientTransform="matrix(1 0 0 -1 94 73.6699)">
					<stop  offset="0" style="stop-color:#908E77"/>
					<stop  offset="0.1608" style="stop-color:#F1EFD6"/>
					<stop  offset="0.3843" style="stop-color:#7F7A67"/>
					<stop  offset="0.651" style="stop-color:#423D15"/>
					<stop  offset="1" style="stop-color:#6B6E59"/>
				</linearGradient>
				<path fill="url(#SVGID_10_)" d="M51.15,17.08v1.7c0,0.1-0.12,0.22-0.35,0.35c-0.13,0.03-0.33,0.05-0.6,0.05
					c-0.2,0-0.42-0.02-0.65-0.05c-0.13-0.13-0.2-0.22-0.2-0.25v-1.75c0,0.1,0.07,0.18,0.2,0.25c0.23,0.03,0.45,0.05,0.65,0.05
					c0.27,0,0.47-0.02,0.6-0.05C51.03,17.28,51.15,17.18,51.15,17.08z"/>
			</g>
		</g>
		<g>
			<g>
				<g>
					
						<linearGradient id="SVGID_11_" gradientUnits="userSpaceOnUse" x1="-45.8374" y1="57.7109" x2="-43.6624" y2="57.7109" gradientTransform="matrix(1 0 0 -1 94 73.6699)">
						<stop  offset="0" style="stop-color:#1B1E23"/>
						<stop  offset="0.5176" style="stop-color:#242628"/>
						<stop  offset="1" style="stop-color:#07080C"/>
					</linearGradient>
					<path fill="url(#SVGID_11_)" d="M47.35,15.03c0,0.1,0.17,0.22,0.5,0.35L49,15.73c0.33,0.03,0.68-0.08,1.05-0.35l2.05-1.55
						c0.2-0.17,0.33-0.33,0.4-0.5v3l-2.05,1.85c-0.63,0.47-1.27,0.53-1.9,0.2l-1.2-0.55V15.03z"/>
					<path fill="#0F1219" d="M52.5,13.33c-0.07,0.17-0.2,0.33-0.4,0.5l-2.05,1.55c-0.37,0.27-0.72,0.38-1.05,0.35l-1.15-0.35
						c-0.33-0.13-0.5-0.25-0.5-0.35c-0.07-0.13-0.03-0.25,0.1-0.35l2.05-1.75c0.67-0.5,1.3-0.65,1.9-0.45l0.7,0.45
						C52.37,13.07,52.5,13.2,52.5,13.33z"/>
				</g>
			</g>
			<g>
				
					<radialGradient id="SVGID_12_" cx="-44.3501" cy="58.7363" r="2.625" gradientTransform="matrix(1 0 0 -1 94 73.6699)" gradientUnits="userSpaceOnUse">
					<stop  offset="0" style="stop-color:#FFFFFF;stop-opacity:0.3725"/>
					<stop  offset="1" style="stop-color:#FEFEFE;stop-opacity:0"/>
				</radialGradient>
				<path fill="url(#SVGID_12_)" d="M52,13.71c0.17-0.14,0.29-0.28,0.35-0.42c0.02-0.04,0.06-0.08,0.1-0.1
					c0.03-0.02,0.07-0.02,0.1,0c0.04,0.02,0.08,0.06,0.1,0.1c0.02,0.03,0.02,0.07,0,0.1c-0.07,0.19-0.22,0.38-0.45,0.58l-2.05,1.55
					c-0.41,0.29-0.8,0.42-1.17,0.38h-0.02l-1.15-0.35c-0.03-0.01-0.06-0.04-0.07-0.08c-0.02-0.04-0.03-0.08-0.02-0.13
					c0.01-0.03,0.04-0.06,0.07-0.08c0.04-0.02,0.08-0.03,0.13-0.02l1.15,0.35c0.29,0.02,0.59-0.09,0.9-0.33L52,13.71z"/>
			</g>
		</g>
		<g>
			
				<linearGradient id="SVGID_13_" gradientUnits="userSpaceOnUse" x1="-1464.8765" y1="-291.4482" x2="-1450.6018" y2="-291.4482" gradientTransform="matrix(0.2221 0 0 0.2282 337.0826 75.705)">
				<stop  offset="0" style="stop-color:#626B80"/>
				<stop  offset="0.1412" style="stop-color:#72787E"/>
				<stop  offset="0.3569" style="stop-color:#83867C"/>
				<stop  offset="0.7686" style="stop-color:#323A4B"/>
				<stop  offset="1" style="stop-color:#151618"/>
			</linearGradient>
			<path fill="url(#SVGID_13_)" d="M11.77,10.09V7.61h3.17v2.75c-0.01,0.01-0.01,0.01-0.01,0.02c-0.06,0.12-0.21,0.2-0.45,0.26
				c-0.31,0.09-0.68,0.13-1.12,0.11c-0.44-0.02-0.81-0.1-1.12-0.22c-0.29-0.12-0.44-0.24-0.46-0.38c0-0.01,0-0.04,0-0.04
				C11.77,10.11,11.77,10.09,11.77,10.09z"/>
			<path fill="#2B303C" d="M11.05,8.29c-0.58-0.24-0.88-0.5-0.91-0.77V6.39l6.41,0v1.57C16.54,7.97,16.54,7.99,16.53,8
				c-0.12,0.21-0.4,0.39-0.89,0.54c-0.63,0.18-1.4,0.25-2.3,0.2C12.46,8.7,11.7,8.55,11.05,8.29z"/>
			
				<linearGradient id="SVGID_14_" gradientUnits="userSpaceOnUse" x1="-1472.2598" y1="-295.5029" x2="-1443.2314" y2="-295.5029" gradientTransform="matrix(0.2221 0 0 0.2282 337.0826 74.7231)">
				<stop  offset="0" style="stop-color:#5765A2"/>
				<stop  offset="0.1333" style="stop-color:#9AA3C7"/>
				<stop  offset="0.2471" style="stop-color:#ECEFF5"/>
				<stop  offset="0.3176" style="stop-color:#949EAF"/>
				<stop  offset="0.502" style="stop-color:#7F8DB0"/>
				<stop  offset="0.6863" style="stop-color:#FFFFFF"/>
				<stop  offset="0.8431" style="stop-color:#A3A7B2"/>
				<stop  offset="1" style="stop-color:#232D46"/>
			</linearGradient>
			<path fill="url(#SVGID_14_)" d="M10.13,7.22V6.09h6.41v1.57c-0.01,0.02-0.01,0.04-0.02,0.05c-0.12,0.22-0.42,0.39-0.9,0.54
				c-0.62,0.19-1.38,0.26-2.26,0.21c-0.89-0.05-1.64-0.2-2.29-0.46C10.48,7.77,10.16,7.51,10.13,7.22z"/>
			<path fill="#2B303C" d="M16.83,5.25v1.41c0.01,0.04,0.01,0.07,0.01,0.11c0,0.04,0,0.07-0.01,0.11c-0.01,0.04-0.02,0.07-0.03,0.11
				c-0.11,0.24-0.44,0.43-0.97,0.58c-0.67,0.2-1.48,0.27-2.44,0.22c-0.95-0.05-1.77-0.21-2.45-0.5c-0.62-0.25-0.96-0.54-1-0.84
				c0-0.02-0.01-0.04-0.01-0.06c0-0.02,0-0.05,0.01-0.07L9.92,5.25H16.83z"/>
			
				<linearGradient id="SVGID_15_" gradientUnits="userSpaceOnUse" x1="-69.2949" y1="-1.3389" x2="-61.1111" y2="-1.3389" gradientTransform="matrix(0.8454 0 0 0.8688 68.5413 7.5452)">
				<stop  offset="0" style="stop-color:#354468"/>
				<stop  offset="0.1333" style="stop-color:#2F3E5F"/>
				<stop  offset="0.3176" style="stop-color:#949EAF"/>
				<stop  offset="0.502" style="stop-color:#BDC6D4"/>
				<stop  offset="0.6863" style="stop-color:#626D7C"/>
				<stop  offset="0.8" style="stop-color:#45526B"/>
				<stop  offset="0.8431" style="stop-color:#45526B"/>
				<stop  offset="1" style="stop-color:#23262B"/>
			</linearGradient>
			<path fill="url(#SVGID_15_)" d="M16.88,6.8l-0.05,0.05c-0.09,0.24-0.43,0.41-0.97,0.54c-0.65,0.2-1.46,0.29-2.43,0.25
				c-0.94-0.07-1.74-0.24-2.43-0.5c-0.65-0.26-0.98-0.55-1.02-0.84V6.26c0-0.04,0-0.07,0-0.09V5.11h6.9L16.88,6.8L16.88,6.8z"/>
			<g>
				<g>
					
						<linearGradient id="SVGID_16_" gradientUnits="userSpaceOnUse" x1="-431.3462" y1="54.9609" x2="-429.5791" y2="54.9609" gradientTransform="matrix(0.6862 -0.7557 0.7173 0.7251 271.3938 -360.4774)">
						<stop  offset="0" style="stop-color:#F5F6FA"/>
						<stop  offset="0.1961" style="stop-color:#F9FAFC"/>
						<stop  offset="0.5569" style="stop-color:#424E6D"/>
						<stop  offset="0.9569" style="stop-color:#D7E1EC"/>
					</linearGradient>
					<path fill="url(#SVGID_16_)" d="M15.78,6.06L13.7,3.98h1.67c1.12,0.44,1.73,0.8,1.85,1.07c0,0.27-0.2,0.5-0.58,0.65L15.78,6.06
						z"/>
					
						<linearGradient id="SVGID_17_" gradientUnits="userSpaceOnUse" x1="-84.397" y1="38.6221" x2="-86.5518" y2="39.3042" gradientTransform="matrix(1.0058 0 0 1.0336 100.2263 -35.1647)">
						<stop  offset="0" style="stop-color:#FFFFFF"/>
						<stop  offset="0.5529" style="stop-color:#DDE1ED"/>
						<stop  offset="1" style="stop-color:#8C9CC0"/>
					</linearGradient>
					<path fill="url(#SVGID_17_)" d="M15.78,6.06c-0.84,0.16-1.7,0.21-2.54,0.18l0.06-2.26h0.4L15.78,6.06z"/>
					
						<linearGradient id="SVGID_18_" gradientUnits="userSpaceOnUse" x1="12.0171" y1="-23.7178" x2="13.8279" y2="-23.7178" gradientTransform="matrix(0.9729 0.2622 -0.2675 0.9965 -6.4693 25.2535)">
						<stop  offset="0" style="stop-color:#FFFFFF"/>
						<stop  offset="0.302" style="stop-color:#8E99BE"/>
						<stop  offset="0.5529" style="stop-color:#DDE1ED"/>
						<stop  offset="1" style="stop-color:#8C9CC0"/>
					</linearGradient>
					<path fill="url(#SVGID_18_)" d="M13.24,6.24c-0.89,0-1.77-0.18-2.66-0.53l1.73-1.72h0.98L13.24,6.24z"/>
					
						<linearGradient id="SVGID_19_" gradientUnits="userSpaceOnUse" x1="162.9805" y1="-343.4131" x2="165.6355" y2="-343.4131" gradientTransform="matrix(0.4768 0.9101 -0.8767 0.5068 -368.1242 29.5035)">
						<stop  offset="0" style="stop-color:#FFFFFF"/>
						<stop  offset="0.1686" style="stop-color:#516195"/>
						<stop  offset="0.3882" style="stop-color:#8E99BE"/>
						<stop  offset="0.5765" style="stop-color:#FFFFFF"/>
						<stop  offset="0.7137" style="stop-color:#FFFFFF"/>
					</linearGradient>
					<path fill="url(#SVGID_19_)" d="M10.58,5.7c-0.61-0.32-0.9-0.65-0.87-1.01l1.45-0.84l1.15,0.12L10.58,5.7z"/>
				</g>
			</g>
			<path fill="#676E76" d="M13.43,5.31c-0.72-0.04-1.33-0.17-1.85-0.4c-0.48-0.2-0.73-0.42-0.73-0.65c0-0.26,0.24-0.46,0.73-0.59
				c0.52-0.13,1.13-0.18,1.85-0.16c0.68,0.04,1.28,0.16,1.79,0.34c0.48,0.2,0.73,0.43,0.73,0.7c0,0.24-0.24,0.41-0.73,0.55
				C14.7,5.27,14.11,5.33,13.43,5.31z"/>
			
				<linearGradient id="SVGID_20_" gradientUnits="userSpaceOnUse" x1="-3943.313" y1="26.3145" x2="-3909.0178" y2="26.3145" gradientTransform="matrix(0.0712 4.069382e-003 0 0.0869 292.8015 17.5986)">
				<stop  offset="0" style="stop-color:#191B1F"/>
				<stop  offset="0.2667" style="stop-color:#9CA1A3"/>
				<stop  offset="0.4902" style="stop-color:#E4E6E7"/>
				<stop  offset="0.8078" style="stop-color:#323A4B"/>
				<stop  offset="1" style="stop-color:#151618"/>
			</linearGradient>
			<path fill="url(#SVGID_20_)" d="M13.22,4.33c-0.34-0.02-0.62-0.08-0.87-0.18c-0.24-0.09-0.36-0.2-0.36-0.32
				c0-0.12,0.12-0.21,0.36-0.28c0.24-0.07,0.53-0.1,0.87-0.07c0.33,0.02,0.62,0.07,0.87,0.18c0.24,0.09,0.36,0.21,0.36,0.32
				c0,0.12-0.12,0.21-0.36,0.29C13.85,4.33,13.56,4.36,13.22,4.33z"/>
		</g>
		<g>
			
				<linearGradient id="SVGID_21_" gradientUnits="userSpaceOnUse" x1="418.1992" y1="-855.248" x2="430.6233" y2="-855.248" gradientTransform="matrix(0.2491 0 0 -0.2491 -81.2786 -195.274)">
				<stop  offset="0" style="stop-color:#626B80"/>
				<stop  offset="0.1412" style="stop-color:#72787E"/>
				<stop  offset="0.3569" style="stop-color:#83867C"/>
				<stop  offset="0.7686" style="stop-color:#323A4B"/>
				<stop  offset="1" style="stop-color:#151618"/>
			</linearGradient>
			<path fill="url(#SVGID_21_)" d="M22.89,18.62v-2.35h3.09v2.62c-0.01,0.01-0.01,0.02-0.01,0.02c-0.06,0.11-0.2,0.19-0.44,0.25
				c-0.3,0.09-0.66,0.12-1.1,0.1c-0.42-0.02-0.79-0.09-1.1-0.21c-0.28-0.11-0.43-0.23-0.45-0.36c0-0.02,0-0.03,0-0.04
				C22.88,18.64,22.89,18.63,22.89,18.62z"/>
			<path fill="#2B303C" d="M22.19,17.58c-0.56-0.22-0.86-0.47-0.9-0.74v-1.07h6.27v1.49c-0.01,0.02-0.02,0.03-0.03,0.05
				c-0.11,0.2-0.4,0.37-0.87,0.51c-0.62,0.17-1.37,0.24-2.24,0.19C23.57,17.98,22.83,17.83,22.19,17.58z"/>
			
				<linearGradient id="SVGID_22_" gradientUnits="userSpaceOnUse" x1="411.7627" y1="-852.2568" x2="437.0382" y2="-852.2568" gradientTransform="matrix(0.2491 0 0 -0.2491 -81.2786 -195.6744)">
				<stop  offset="0" style="stop-color:#5765A2"/>
				<stop  offset="0.1333" style="stop-color:#9AA3C7"/>
				<stop  offset="0.2471" style="stop-color:#ECEFF5"/>
				<stop  offset="0.3176" style="stop-color:#949EAF"/>
				<stop  offset="0.502" style="stop-color:#7F8DB0"/>
				<stop  offset="0.6863" style="stop-color:#FFFFFF"/>
				<stop  offset="0.8431" style="stop-color:#A3A7B2"/>
				<stop  offset="1" style="stop-color:#232D46"/>
			</linearGradient>
			<path fill="url(#SVGID_22_)" d="M21.3,16.56v-1.07h6.27v1.49c-0.01,0.02-0.02,0.04-0.03,0.05c-0.11,0.21-0.4,0.38-0.88,0.51
				c-0.61,0.18-1.35,0.25-2.22,0.2c-0.86-0.04-1.61-0.19-2.23-0.44C21.63,17.09,21.33,16.84,21.3,16.56z"/>
			<path fill="#2B303C" d="M27.8,13.93v1.35c0.01,0.03,0.01,0.07,0.01,0.1c0,0.04,0,0.07-0.01,0.11c-0.01,0.03-0.02,0.07-0.04,0.1
				c-0.12,0.22-0.43,0.41-0.95,0.55c-0.66,0.19-1.45,0.26-2.38,0.21c-0.93-0.05-1.73-0.21-2.39-0.47c-0.62-0.24-0.94-0.51-0.98-0.8
				c0-0.02-0.01-0.04-0.01-0.06s0-0.05,0.01-0.07l-0.01-1.02H27.8z"/>
			
				<linearGradient id="SVGID_23_" gradientUnits="userSpaceOnUse" x1="219.1758" y1="-142.2061" x2="226.3013" y2="-142.2061" gradientTransform="matrix(0.9484 0 0 -0.9484 -186.8818 -120.3248)">
				<stop  offset="0" style="stop-color:#354468"/>
				<stop  offset="0.1333" style="stop-color:#2F3E5F"/>
				<stop  offset="0.3176" style="stop-color:#949EAF"/>
				<stop  offset="0.502" style="stop-color:#BDC6D4"/>
				<stop  offset="0.6863" style="stop-color:#626D7C"/>
				<stop  offset="0.8" style="stop-color:#45526B"/>
				<stop  offset="0.8431" style="stop-color:#45526B"/>
				<stop  offset="1" style="stop-color:#23262B"/>
			</linearGradient>
			<path fill="url(#SVGID_23_)" d="M27.74,14.94l-0.05,0.05c-0.1,0.22-0.41,0.4-0.95,0.52c-0.63,0.19-1.42,0.27-2.37,0.24
				c-0.92-0.06-1.71-0.22-2.37-0.47c-0.63-0.25-0.96-0.52-1-0.81v-0.05c0-0.03,0-0.06,0-0.09v-1h6.73v1.61H27.74z"/>
			<g>
				<g>
					
						<linearGradient id="SVGID_24_" gradientUnits="userSpaceOnUse" x1="-68.2642" y1="60.1504" x2="-67.0809" y2="61.3674" gradientTransform="matrix(1 0 0 -1 94 73.6699)">
						<stop  offset="0" style="stop-color:#F5F6FA"/>
						<stop  offset="0.1961" style="stop-color:#F9FAFC"/>
						<stop  offset="0.5569" style="stop-color:#424E6D"/>
						<stop  offset="0.9569" style="stop-color:#D7E1EC"/>
					</linearGradient>
					<path fill="url(#SVGID_24_)" d="M26.7,14.23l-2.05-2h1.65c1.03,0.43,1.63,0.78,1.8,1.05c0,0.27-0.18,0.47-0.55,0.6L26.7,14.23z
						"/>
					
						<linearGradient id="SVGID_25_" gradientUnits="userSpaceOnUse" x1="48.7104" y1="192.9805" x2="50.487" y2="192.9805" gradientTransform="matrix(0.971 0.2392 0.2657 -0.9644 -76.0102 187.4761)">
						<stop  offset="0" style="stop-color:#FFFFFF"/>
						<stop  offset="0.302" style="stop-color:#8E99BE"/>
						<stop  offset="0.5529" style="stop-color:#DDE1ED"/>
						<stop  offset="1" style="stop-color:#8C9CC0"/>
					</linearGradient>
					<path fill="url(#SVGID_25_)" d="M24.25,12.23l-0.1,2.2c-0.83,0-1.7-0.18-2.6-0.55l1.75-1.65H24.25z"/>
					
						<linearGradient id="SVGID_26_" gradientUnits="userSpaceOnUse" x1="-885.7036" y1="1222.6836" x2="-883.4974" y2="1222.6836" gradientTransform="matrix(-0.952 0.306 0.2883 0.9577 -1169.4951 -886.9399)">
						<stop  offset="0" style="stop-color:#FFFFFF"/>
						<stop  offset="0.5529" style="stop-color:#DDE1ED"/>
						<stop  offset="1" style="stop-color:#8C9CC0"/>
					</linearGradient>
					<path fill="url(#SVGID_26_)" d="M26.7,14.23c-0.83,0.13-1.68,0.2-2.55,0.2l0.1-2.2h0.4L26.7,14.23z"/>
					
						<linearGradient id="SVGID_27_" gradientUnits="userSpaceOnUse" x1="-72.4268" y1="61.7822" x2="-71.0414" y2="59.2128" gradientTransform="matrix(1 0 0 -1 94 73.6699)">
						<stop  offset="0" style="stop-color:#FFFFFF"/>
						<stop  offset="0.1686" style="stop-color:#516195"/>
						<stop  offset="0.3882" style="stop-color:#8E99BE"/>
						<stop  offset="0.5765" style="stop-color:#FFFFFF"/>
						<stop  offset="0.7137" style="stop-color:#FFFFFF"/>
					</linearGradient>
					<path fill="url(#SVGID_27_)" d="M21.55,13.88c-0.57-0.23-0.85-0.55-0.85-0.95l0.95-0.7h1.65L21.55,13.88z"/>
				</g>
			</g>
			<path fill="#676E76" d="M24.38,13.52c-0.7-0.03-1.3-0.16-1.8-0.38c-0.47-0.19-0.71-0.4-0.71-0.62c0-0.25,0.24-0.44,0.71-0.57
				c0.51-0.13,1.11-0.17,1.8-0.14c0.66,0.03,1.25,0.14,1.75,0.33c0.47,0.19,0.71,0.41,0.71,0.66c0,0.22-0.24,0.4-0.71,0.52
				C25.62,13.48,25.04,13.55,24.38,13.52z"/>
			
				<linearGradient id="SVGID_28_" gradientUnits="userSpaceOnUse" x1="2518.8057" y1="-3076.6089" x2="2548.6572" y2="-3076.6089" gradientTransform="matrix(0.08 4.425049e-003 0 -0.0949 -178.3914 -290.1472)">
				<stop  offset="0" style="stop-color:#191B1F"/>
				<stop  offset="0.2667" style="stop-color:#9CA1A3"/>
				<stop  offset="0.4902" style="stop-color:#E4E6E7"/>
				<stop  offset="0.8078" style="stop-color:#323A4B"/>
				<stop  offset="1" style="stop-color:#151618"/>
			</linearGradient>
			<path fill="url(#SVGID_28_)" d="M24.31,13.44c-0.33-0.02-0.61-0.07-0.84-0.17c-0.23-0.09-0.35-0.19-0.35-0.3
				c0-0.11,0.12-0.2,0.35-0.27c0.23-0.07,0.52-0.09,0.84-0.07c0.33,0.02,0.61,0.07,0.84,0.17c0.23,0.1,0.35,0.2,0.35,0.31
				s-0.12,0.2-0.35,0.27C24.92,13.44,24.64,13.46,24.31,13.44z"/>
		</g>
		<g>
			<g>
				
					<linearGradient id="SVGID_29_" gradientUnits="userSpaceOnUse" x1="-15.7373" y1="55.54" x2="-13.9618" y2="55.54" gradientTransform="matrix(1 0 0 -1 94 73.6699)">
					<stop  offset="0" style="stop-color:#908E77"/>
					<stop  offset="0.1608" style="stop-color:#F1EFD6"/>
					<stop  offset="0.3843" style="stop-color:#7F7A67"/>
					<stop  offset="0.651" style="stop-color:#423D15"/>
					<stop  offset="1" style="stop-color:#6B6E59"/>
				</linearGradient>
				<path fill="url(#SVGID_29_)" d="M80.1,17.08v1.7c0,0.1-0.12,0.22-0.35,0.35c-0.13,0.03-0.33,0.05-0.6,0.05
					c-0.2,0-0.42-0.02-0.65-0.05c-0.17-0.13-0.25-0.22-0.25-0.25v-1.75c0,0.1,0.09,0.18,0.25,0.25c0.23,0.03,0.45,0.05,0.65,0.05
					c0.27,0,0.47-0.02,0.6-0.05C79.98,17.28,80.1,17.18,80.1,17.08z"/>
				
					<radialGradient id="SVGID_30_" cx="-14.5493" cy="56.5859" r="0.6125" gradientTransform="matrix(1 0 0 -1 94 73.6699)" gradientUnits="userSpaceOnUse">
					<stop  offset="0" style="stop-color:#9B9A95"/>
					<stop  offset="1" style="stop-color:#7C7950"/>
				</radialGradient>
				<path fill="url(#SVGID_30_)" d="M78.25,17.13v-0.15c0.07-0.07,0.15-0.12,0.25-0.15c0.23-0.17,0.45-0.25,0.65-0.25
					c0.27,0,0.47,0.08,0.6,0.25c0.23,0.03,0.35,0.12,0.35,0.25c0,0.1-0.12,0.2-0.35,0.3c-0.13,0.03-0.33,0.05-0.6,0.05
					c-0.2,0-0.42-0.02-0.65-0.05C78.34,17.32,78.25,17.23,78.25,17.13z M78.65,16.88c-0.13,0.13-0.2,0.22-0.2,0.25l0.3-0.15
					c0.1-0.1,0.18-0.2,0.25-0.3C78.9,16.68,78.78,16.75,78.65,16.88z"/>
				<path fill="#FFFFFF" d="M78.65,16.88c0.13-0.13,0.25-0.2,0.35-0.2c-0.07,0.1-0.15,0.2-0.25,0.3l-0.3,0.15
					C78.45,17.1,78.52,17.02,78.65,16.88z"/>
			</g>
		</g>
		<g>
			<g>
				<g>
					
						<linearGradient id="SVGID_31_" gradientUnits="userSpaceOnUse" x1="-17.0498" y1="57.5654" x2="-14.8498" y2="57.5654" gradientTransform="matrix(1 0 0 -1 94 73.6699)">
						<stop  offset="0" style="stop-color:#1B1E23"/>
						<stop  offset="0.5176" style="stop-color:#313435"/>
						<stop  offset="1" style="stop-color:#07080C"/>
					</linearGradient>
					<path fill="url(#SVGID_31_)" d="M76.45,14.93c0.07,0.17,0.23,0.3,0.5,0.4c0.27,0.27,0.68,0.35,1.25,0.25
						c0.73-0.23,1.65-0.67,2.75-1.3c0.33-0.13,0.5-0.27,0.5-0.4v2.8l-2.55,1.4c-0.67,0.27-1.13,0.32-1.4,0.15
						c-0.37-0.17-0.72-0.45-1.05-0.85V14.93L76.45,14.93z"/>
					<path fill="#0E0E16" d="M81.45,13.88c0,0.13-0.17,0.27-0.5,0.4c-1.1,0.63-2.02,1.07-2.75,1.3c-0.57,0.1-0.98,0.02-1.25-0.25
						c-0.27-0.1-0.43-0.23-0.5-0.4c0-0.17,0.08-0.33,0.25-0.5l2.5-1.3c0.27-0.07,0.62-0.07,1.05,0c0.3,0.03,0.63,0.18,1,0.45
						c0.13,0.1,0.2,0.18,0.2,0.25V13.88z"/>
				</g>
			</g>
			<g>
				<g>
					
						<radialGradient id="SVGID_32_" cx="-14.7998" cy="58.1875" r="2.1245" gradientTransform="matrix(1 0 0 -1 94 73.6699)" gradientUnits="userSpaceOnUse">
						<stop  offset="0" style="stop-color:#FEFEFE;stop-opacity:0.4235"/>
						<stop  offset="1" style="stop-color:#FBFBFB;stop-opacity:0"/>
					</radialGradient>
					<path fill="url(#SVGID_32_)" d="M78.28,15.88c0.04-0.01,0.07-0.04,0.1-0.07c0.02-0.03,0.03-0.06,0.03-0.1
						c-0.01-0.04-0.04-0.07-0.08-0.1c-0.03-0.02-0.06-0.03-0.1-0.02H78.2c0.76-0.26,1.68-0.7,2.77-1.33
						c0.04-0.02,0.08-0.03,0.13-0.02c0.04,0.01,0.06,0.04,0.08,0.08c0.02,0.04,0.03,0.08,0.03,0.13c-0.01,0.03-0.04,0.06-0.08,0.07
						c-1.11,0.64-2.05,1.1-2.83,1.38h-0.02V15.88z"/>
					
						<radialGradient id="SVGID_33_" cx="-14.8003" cy="58.1875" r="2.1245" gradientTransform="matrix(1 0 0 -1 94 73.6699)" gradientUnits="userSpaceOnUse">
						<stop  offset="0" style="stop-color:#FEFEFE;stop-opacity:0.5412"/>
						<stop  offset="1" style="stop-color:#FBFBFB;stop-opacity:0"/>
					</radialGradient>
					<path fill="url(#SVGID_33_)" d="M78.28,15.88c-0.66,0.11-1.14,0.01-1.43-0.3c-0.03-0.03-0.05-0.06-0.05-0.1s0.02-0.07,0.05-0.1
						c0.03-0.03,0.06-0.05,0.1-0.05s0.07,0.02,0.1,0.05c0.24,0.22,0.62,0.29,1.15,0.2h0.02c0.04-0.01,0.07,0,0.1,0.02
						c0.04,0.03,0.06,0.06,0.08,0.1c0.01,0.04,0,0.07-0.03,0.1C78.35,15.85,78.32,15.87,78.28,15.88z"/>
				</g>
			</g>
		</g>
		<g>
			<g>
				
					<radialGradient id="SVGID_34_" cx="-56.7998" cy="56.5859" r="0.6125" gradientTransform="matrix(1 0 0 -1 94 73.6699)" gradientUnits="userSpaceOnUse">
					<stop  offset="0" style="stop-color:#9B9A95"/>
					<stop  offset="1" style="stop-color:#7C7950"/>
				</radialGradient>
				<path fill="url(#SVGID_34_)" d="M37.75,17.08c0,0.1-0.09,0.2-0.25,0.3c-0.17,0.03-0.38,0.05-0.65,0.05c-0.2,0-0.4-0.02-0.6-0.05
					C36.09,17.32,36,17.23,36,17.13v-0.15c0.03-0.07,0.12-0.12,0.25-0.15c0.2-0.17,0.4-0.25,0.6-0.25c0.27,0,0.48,0.08,0.65,0.25
					C37.67,16.87,37.75,16.95,37.75,17.08z M36.4,16.88c-0.17,0.13-0.25,0.22-0.25,0.25l0.3-0.15c0.13-0.1,0.22-0.2,0.25-0.3
					C36.6,16.68,36.5,16.75,36.4,16.88z"/>
				
					<linearGradient id="SVGID_35_" gradientUnits="userSpaceOnUse" x1="-58.0376" y1="55.54" x2="-56.2626" y2="55.54" gradientTransform="matrix(1 0 0 -1 94 73.6699)">
					<stop  offset="0" style="stop-color:#908E77"/>
					<stop  offset="0.1608" style="stop-color:#F1EFD6"/>
					<stop  offset="0.3843" style="stop-color:#7F7A67"/>
					<stop  offset="0.651" style="stop-color:#423D15"/>
					<stop  offset="1" style="stop-color:#6B6E59"/>
				</linearGradient>
				<path fill="url(#SVGID_35_)" d="M36,17.13c0,0.1,0.09,0.18,0.25,0.25c0.2,0.03,0.4,0.05,0.6,0.05c0.27,0,0.48-0.02,0.65-0.05
					c0.16-0.1,0.25-0.2,0.25-0.3v1.7c0,0.1-0.08,0.22-0.25,0.35c-0.17,0.03-0.38,0.05-0.65,0.05c-0.2,0-0.4-0.02-0.6-0.05
					C36.08,19,36,18.92,36,18.88V17.13z"/>
				<path fill="#FFFFFF" d="M36.4,16.88c0.1-0.13,0.2-0.2,0.3-0.2c-0.03,0.1-0.12,0.2-0.25,0.3l-0.3,0.15
					C36.15,17.1,36.23,17.02,36.4,16.88z"/>
			</g>
		</g>
		<g>
			<g>
				
					<linearGradient id="SVGID_36_" gradientUnits="userSpaceOnUse" x1="-59.8252" y1="57.7842" x2="-54.2752" y2="57.7842" gradientTransform="matrix(1 0 0 -1 94 73.6699)">
					<stop  offset="0" style="stop-color:#3F4650"/>
					<stop  offset="0.2392" style="stop-color:#393F48"/>
					<stop  offset="0.3373" style="stop-color:#22252E"/>
					<stop  offset="1" style="stop-color:#000000"/>
				</linearGradient>
				<path fill="url(#SVGID_36_)" d="M34.25,14.53c0,0.27,0.23,0.45,0.7,0.55c0.33,0.1,0.73,0.1,1.2,0l3.25-0.95
					c0.2-0.1,0.3-0.2,0.3-0.3v2.85l-3.3,1.15h-0.1c-0.37,0.1-0.7,0.13-1,0.1c-0.47-0.17-0.87-0.48-1.2-0.95L34.25,14.53z"/>
				
					<linearGradient id="SVGID_37_" gradientUnits="userSpaceOnUse" x1="-57.3374" y1="57.2012" x2="-56.9993" y2="59.7279" gradientTransform="matrix(1 0 0 -1 94 73.6699)">
					<stop  offset="0" style="stop-color:#3F4650"/>
					<stop  offset="1" style="stop-color:#000000"/>
				</linearGradient>
				<path fill="url(#SVGID_37_)" d="M39.7,13.83c0,0.1-0.1,0.2-0.3,0.3l-3.25,0.95c-0.47,0.1-0.87,0.1-1.2,0
					c-0.47-0.1-0.7-0.28-0.7-0.55v-0.1c0-0.1,0.13-0.2,0.4-0.3l2.75-0.85h0.1c0.17-0.07,0.32-0.1,0.45-0.1c0.23,0,0.45,0,0.65,0
					c0.17,0,0.32,0.03,0.45,0.1c0.43,0.2,0.65,0.35,0.65,0.45V13.83L39.7,13.83z"/>
			</g>
			<g>
				
					<radialGradient id="SVGID_38_" cx="-57.5498" cy="-960.4492" r="5.1121" gradientTransform="matrix(1 0 0 -0.2616 94 -236.5696)" gradientUnits="userSpaceOnUse">
					<stop  offset="0" style="stop-color:#FFFFFF;stop-opacity:0.5412"/>
					<stop  offset="1" style="stop-color:#F7F7F7;stop-opacity:0"/>
				</radialGradient>
				<path fill="url(#SVGID_38_)" d="M39.55,13.83c0-0.04,0.02-0.07,0.05-0.1c0.03-0.03,0.06-0.05,0.1-0.05s0.07,0.02,0.1,0.05
					c0.03,0.03,0.05,0.06,0.05,0.1c0.02,0.15-0.1,0.29-0.38,0.42l-0.02,0.03l-3.25,0.95h-0.03c-0.5,0.11-0.92,0.11-1.27,0
					c-0.55-0.13-0.82-0.36-0.8-0.7c0-0.04,0.02-0.07,0.05-0.1c0.03-0.03,0.06-0.05,0.1-0.05s0.07,0.02,0.1,0.05
					c0.03,0.03,0.05,0.06,0.05,0.1c0.01,0.19,0.21,0.32,0.58,0.4H35c0.31,0.09,0.67,0.09,1.1,0l3.25-0.95L39.33,14
					C39.46,13.94,39.53,13.88,39.55,13.83z"/>
			</g>
		</g>
		<g>
			<g>
				
					<radialGradient id="SVGID_39_" cx="-52.25" cy="66.3369" r="0.5495" gradientTransform="matrix(1 0 0 -1 94 73.6699)" gradientUnits="userSpaceOnUse">
					<stop  offset="0" style="stop-color:#9B9A95"/>
					<stop  offset="1" style="stop-color:#7C7950"/>
				</radialGradient>
				<path fill="url(#SVGID_39_)" d="M42.25,7.43c0,0.07-0.07,0.15-0.2,0.25c-0.13,0.03-0.32,0.05-0.55,0.05
					c-0.2,0-0.38-0.02-0.55-0.05c-0.1-0.1-0.15-0.18-0.15-0.25v-0.1c0-0.03,0.05-0.08,0.15-0.15c0.17-0.1,0.35-0.15,0.55-0.15
					c0.23,0,0.42,0.05,0.55,0.15C42.18,7.25,42.25,7.33,42.25,7.43z M41.2,7.28c0.1-0.07,0.15-0.12,0.15-0.15
					c-0.03,0-0.12,0.05-0.25,0.15c-0.1,0.03-0.15,0.08-0.15,0.15C41.05,7.37,41.13,7.32,41.2,7.28z"/>
				<path fill="#FFFFFF" d="M41.2,7.28c-0.07,0.03-0.15,0.08-0.25,0.15c0-0.07,0.05-0.12,0.15-0.15c0.13-0.1,0.22-0.15,0.25-0.15
					C41.35,7.17,41.3,7.22,41.2,7.28z"/>
				
					<linearGradient id="SVGID_40_" gradientUnits="userSpaceOnUse" x1="-53.25" y1="64.5898" x2="-51.75" y2="64.5898" gradientTransform="matrix(1 0 0 -1 94 73.6699)">
					<stop  offset="0" style="stop-color:#908E77"/>
					<stop  offset="0.1608" style="stop-color:#F1EFD6"/>
					<stop  offset="0.3843" style="stop-color:#7F7A67"/>
					<stop  offset="0.651" style="stop-color:#423D15"/>
					<stop  offset="1" style="stop-color:#6B6E59"/>
				</linearGradient>
				<path fill="url(#SVGID_40_)" d="M40.8,7.43c0,0.07,0.05,0.15,0.15,0.25c0.17,0.03,0.35,0.05,0.55,0.05
					c0.23,0,0.42-0.02,0.55-0.05c0.13-0.1,0.2-0.18,0.2-0.25v3c0,0.07-0.07,0.15-0.2,0.25c-0.13,0.03-0.32,0.05-0.55,0.05
					c-0.2,0-0.38-0.02-0.55-0.05c-0.1-0.07-0.15-0.15-0.15-0.25V7.43z"/>
			</g>
		</g>
		<g>
			<g>
				<g>
					<path fill="#0C0D12" d="M43.8,6.18c-0.03,0.3-0.35,0.48-0.95,0.55L40,6.78c-0.5-0.03-0.78-0.18-0.85-0.45v-0.1
						c0.07-0.3,0.22-0.48,0.45-0.55L40,5.63l2.85-0.15C43.58,5.58,43.9,5.82,43.8,6.18z"/>
					
						<linearGradient id="SVGID_41_" gradientUnits="userSpaceOnUse" x1="-50.1494" y1="65.9658" x2="-54.8494" y2="65.9658" gradientTransform="matrix(1 0 0 -1 94 73.6699)">
						<stop  offset="0" style="stop-color:#2E323B"/>
						<stop  offset="0.0549" style="stop-color:#17181A"/>
						<stop  offset="0.8196" style="stop-color:#070808"/>
						<stop  offset="1" style="stop-color:#242529"/>
					</linearGradient>
					<path fill="url(#SVGID_41_)" d="M43.8,6.18v2.35c0.07,0.33-0.72,0.57-2.35,0.7c-1.53-0.03-2.3-0.22-2.3-0.55V6.33
						C39.22,6.6,39.5,6.75,40,6.78l2.85-0.05C43.45,6.67,43.77,6.48,43.8,6.18z"/>
				</g>
			</g>
			<g>
				
					<radialGradient id="SVGID_42_" cx="-52.5498" cy="67.1855" r="2.3877" gradientTransform="matrix(1 0 0 -1 94 73.6699)" gradientUnits="userSpaceOnUse">
					<stop  offset="0" style="stop-color:#FFFFFF"/>
					<stop  offset="0" style="stop-color:#FFFFFF;stop-opacity:0.3333"/>
					<stop  offset="1" style="stop-color:#FFFFFF;stop-opacity:0"/>
				</radialGradient>
				<path fill="url(#SVGID_42_)" d="M39,6.36c-0.01-0.04,0-0.07,0.02-0.1c0.02-0.04,0.06-0.06,0.1-0.07c0.04-0.01,0.07,0,0.1,0.02
					c0.04,0.02,0.06,0.06,0.07,0.1c0.06,0.19,0.29,0.3,0.7,0.32l2.83-0.05c0.5-0.06,0.78-0.2,0.82-0.42c0-0.04,0.02-0.07,0.05-0.1
					c0.04-0.02,0.08-0.03,0.13-0.02c0.04,0,0.07,0.02,0.1,0.05c0.02,0.04,0.03,0.08,0.03,0.13c-0.02,0.38-0.38,0.6-1.08,0.67
					L40,6.93C39.4,6.89,39.07,6.7,39,6.36z"/>
			</g>
		</g>
		<g>
			<g>
				
					<linearGradient id="SVGID_43_" gradientUnits="userSpaceOnUse" x1="-37.8496" y1="63.8398" x2="-36.3496" y2="63.8398" gradientTransform="matrix(1 0 0 -1 94 73.6699)">
					<stop  offset="0" style="stop-color:#908E77"/>
					<stop  offset="0.1608" style="stop-color:#F1EFD6"/>
					<stop  offset="0.3843" style="stop-color:#7F7A67"/>
					<stop  offset="0.651" style="stop-color:#423D15"/>
					<stop  offset="1" style="stop-color:#6B6E59"/>
				</linearGradient>
				<path fill="url(#SVGID_43_)" d="M56.2,9.03c0,0.03,0.07,0.08,0.2,0.15c0.17,0.03,0.33,0.05,0.5,0.05c0.2,0,0.38-0.02,0.55-0.05
					c0.16-0.07,0.25-0.15,0.25-0.25v1.5c0,0.07-0.08,0.15-0.25,0.25c-0.17,0.03-0.35,0.05-0.55,0.05c-0.17,0-0.33-0.02-0.5-0.05
					c-0.13-0.07-0.2-0.15-0.2-0.25V9.03z"/>
				
					<radialGradient id="SVGID_44_" cx="-36.8496" cy="64.7373" r="0.5502" gradientTransform="matrix(1 0 0 -1 94 73.6699)" gradientUnits="userSpaceOnUse">
					<stop  offset="0" style="stop-color:#9B9A95"/>
					<stop  offset="1" style="stop-color:#7C7950"/>
				</radialGradient>
				<path fill="url(#SVGID_44_)" d="M57.7,8.93c0,0.1-0.09,0.18-0.25,0.25c-0.17,0.03-0.35,0.05-0.55,0.05
					c-0.17,0-0.33-0.02-0.5-0.05c-0.13-0.07-0.2-0.12-0.2-0.15v-0.2c0.03-0.03,0.1-0.08,0.2-0.15c0.17-0.03,0.33-0.05,0.5-0.05
					c0.2,0,0.38,0.02,0.55,0.05C57.62,8.78,57.7,8.87,57.7,8.93z M56.6,8.83c0.1-0.03,0.15-0.08,0.15-0.15
					c-0.07,0-0.15,0.03-0.25,0.1c-0.1,0.1-0.15,0.18-0.15,0.25L56.6,8.83z"/>
				<path fill="#FFFFFF" d="M56.6,8.83l-0.25,0.2c0-0.07,0.05-0.15,0.15-0.25c0.1-0.07,0.18-0.1,0.25-0.1
					C56.75,8.75,56.7,8.8,56.6,8.83z"/>
			</g>
		</g>
		<g>
			<g>
				<g>
					
						<linearGradient id="SVGID_45_" gradientUnits="userSpaceOnUse" x1="-38.7124" y1="65.7607" x2="-36.8872" y2="65.7607" gradientTransform="matrix(1 0 0 -1 94 73.6699)">
						<stop  offset="0" style="stop-color:#1B1E23"/>
						<stop  offset="0.5176" style="stop-color:#242628"/>
						<stop  offset="1" style="stop-color:#07080C"/>
					</linearGradient>
					<path fill="url(#SVGID_45_)" d="M54.55,7.03c0,0.17,0.14,0.3,0.4,0.4l1,0.25c0.3,0.03,0.62-0.05,0.95-0.25l1.65-1.35
						c0.2-0.1,0.3-0.23,0.3-0.4v2.55L57.2,9.78c-0.53,0.37-1.05,0.45-1.55,0.25l-1.1-0.55V7.03z"/>
					<path fill="#0F1219" d="M58.85,5.68c0,0.17-0.1,0.3-0.3,0.4L56.9,7.43c-0.33,0.2-0.65,0.28-0.95,0.25l-1-0.25
						c-0.26-0.1-0.4-0.23-0.4-0.4C54.48,7,54.5,6.92,54.6,6.78l1.8-1.5c0.53-0.37,1.03-0.43,1.5-0.2l0.65,0.2
						C58.75,5.45,58.85,5.58,58.85,5.68z"/>
				</g>
			</g>
			<g>
				
					<radialGradient id="SVGID_46_" cx="-37.4004" cy="66.6357" r="2.2125" gradientTransform="matrix(1 0 0 -1 94 73.6699)" gradientUnits="userSpaceOnUse">
					<stop  offset="0" style="stop-color:#FFFFFF;stop-opacity:0.3725"/>
					<stop  offset="1" style="stop-color:#FEFEFE;stop-opacity:0"/>
				</radialGradient>
				<path fill="url(#SVGID_46_)" d="M58.47,5.96c0.14-0.07,0.21-0.16,0.23-0.27c0-0.04,0.02-0.07,0.05-0.1
					c0.03-0.03,0.06-0.05,0.1-0.05c0.04,0,0.07,0.02,0.1,0.05C58.98,5.61,59,5.64,59,5.68c0.01,0.22-0.12,0.4-0.38,0.52h0.03
					L57,7.56h-0.03c-0.37,0.22-0.72,0.31-1.05,0.27l-1-0.25c-0.04-0.01-0.08-0.04-0.1-0.08c-0.02-0.03-0.03-0.06-0.03-0.1
					c0.01-0.04,0.04-0.08,0.08-0.1c0.03-0.02,0.06-0.03,0.1-0.02l1,0.25c0.27,0.03,0.55-0.05,0.85-0.23H56.8l1.65-1.35L58.47,5.96
					L58.47,5.96z"/>
			</g>
		</g>
		<g>
			<g>
				<g>
					
						<linearGradient id="SVGID_47_" gradientUnits="userSpaceOnUse" x1="-23.7993" y1="62.4404" x2="-21.6995" y2="62.4404" gradientTransform="matrix(1 0 0 -1 94 73.6699)">
						<stop  offset="0" style="stop-color:#1B1E23"/>
						<stop  offset="0.5176" style="stop-color:#313435"/>
						<stop  offset="1" style="stop-color:#07080C"/>
					</linearGradient>
					<path fill="url(#SVGID_47_)" d="M69.85,10.13c0.03,0.13,0.18,0.27,0.45,0.4c0.2,0.23,0.6,0.3,1.2,0.2
						c0.73-0.27,1.6-0.68,2.6-1.25c0.26-0.1,0.4-0.23,0.4-0.4v2.6l-2.3,1.45c-0.7,0.27-1.17,0.32-1.4,0.15
						c-0.33-0.17-0.65-0.48-0.95-0.95V10.13L69.85,10.13z"/>
					<path fill="#0E0E16" d="M74.5,9.08c0,0.17-0.14,0.3-0.4,0.4c-1,0.57-1.87,0.98-2.6,1.25c-0.6,0.1-1,0.03-1.2-0.2
						c-0.27-0.13-0.42-0.27-0.45-0.4c0-0.17,0.05-0.33,0.15-0.5l2.5-1.15c0.23-0.17,0.53-0.23,0.9-0.2c0.3,0.13,0.62,0.32,0.95,0.55
						C74.45,8.9,74.5,8.98,74.5,9.08z"/>
				</g>
			</g>
			<g>
				<g>
					
						<radialGradient id="SVGID_48_" cx="-21.5503" cy="63.0869" r="2.0114" gradientTransform="matrix(1 0 0 -1 94 73.6699)" gradientUnits="userSpaceOnUse">
						<stop  offset="0" style="stop-color:#FEFEFE;stop-opacity:0.4235"/>
						<stop  offset="1" style="stop-color:#FBFBFB;stop-opacity:0"/>
					</radialGradient>
					<path fill="url(#SVGID_48_)" d="M71.42,10.88c0.04-0.01,0.08-0.04,0.1-0.07c0.02-0.03,0.03-0.06,0.02-0.1s-0.04-0.08-0.08-0.1
						c-0.03-0.02-0.06-0.03-0.1-0.02h-0.03c0.73-0.19,1.58-0.57,2.58-1.13c0.04-0.02,0.08-0.03,0.13-0.02
						c0.04,0.01,0.06,0.04,0.08,0.07c0.02,0.04,0.03,0.08,0.03,0.13c-0.01,0.03-0.04,0.06-0.08,0.08c-1.01,0.58-1.88,0.97-2.63,1.17
						h-0.02V10.88z"/>
					
						<radialGradient id="SVGID_49_" cx="-21.5508" cy="63.085" r="2.0114" gradientTransform="matrix(1 0 0 -1 94 73.6699)" gradientUnits="userSpaceOnUse">
						<stop  offset="0" style="stop-color:#FEFEFE;stop-opacity:0.5412"/>
						<stop  offset="1" style="stop-color:#FBFBFB;stop-opacity:0"/>
					</radialGradient>
					<path fill="url(#SVGID_49_)" d="M71.42,10.88c-0.63,0.11-1.06,0.04-1.27-0.2c-0.03-0.03-0.05-0.06-0.05-0.1s0.02-0.07,0.05-0.1
						c0.03-0.03,0.06-0.05,0.1-0.05s0.07,0.02,0.1,0.05c0.18,0.16,0.51,0.19,1,0.1h0.03c0.04-0.01,0.07,0,0.1,0.02
						c0.04,0.02,0.06,0.06,0.08,0.1c0.01,0.04,0,0.07-0.02,0.1C71.5,10.85,71.47,10.87,71.42,10.88z"/>
				</g>
			</g>
		</g>
		<g>
			<g>
				
					<radialGradient id="SVGID_50_" cx="-67.25" cy="66.6855" r="0.613" gradientTransform="matrix(1 0 0 -1 94 73.6699)" gradientUnits="userSpaceOnUse">
					<stop  offset="0" style="stop-color:#9B9A95"/>
					<stop  offset="1" style="stop-color:#7C7950"/>
				</radialGradient>
				<path fill="url(#SVGID_50_)" d="M27.3,7.03c0,0.1-0.07,0.18-0.2,0.25c-0.17,0.1-0.38,0.15-0.65,0.15c-0.2,0-0.42-0.05-0.65-0.15
					c-0.1-0.07-0.17-0.15-0.2-0.25V6.98c0.03-0.07,0.1-0.13,0.2-0.2c0.23-0.1,0.45-0.15,0.65-0.15c0.27,0,0.48,0.05,0.65,0.15
					C27.23,6.85,27.3,6.93,27.3,7.03z M26.05,6.88c-0.2,0.07-0.3,0.15-0.3,0.25c0.2-0.1,0.33-0.15,0.4-0.15
					c0.1-0.13,0.15-0.22,0.15-0.25C26.23,6.73,26.15,6.78,26.05,6.88z"/>
				<path fill="#FFFFFF" d="M26.05,6.88c0.1-0.1,0.18-0.15,0.25-0.15c0,0.03-0.05,0.12-0.15,0.25c-0.07,0-0.2,0.05-0.4,0.15
					C25.75,7.03,25.85,6.95,26.05,6.88z"/>
				
					<linearGradient id="SVGID_51_" gradientUnits="userSpaceOnUse" x1="-68.2998" y1="64.79" x2="-66.6001" y2="64.79" gradientTransform="matrix(1 0 0 -1 94 73.6699)">
					<stop  offset="0" style="stop-color:#908E77"/>
					<stop  offset="0.1608" style="stop-color:#F1EFD6"/>
					<stop  offset="0.3843" style="stop-color:#7F7A67"/>
					<stop  offset="0.651" style="stop-color:#423D15"/>
					<stop  offset="1" style="stop-color:#6B6E59"/>
				</linearGradient>
				<path fill="url(#SVGID_51_)" d="M25.6,7.03c0.03,0.1,0.1,0.18,0.2,0.25c0.23,0.1,0.45,0.15,0.65,0.15
					c0.27,0,0.48-0.05,0.65-0.15c0.13-0.07,0.2-0.15,0.2-0.25v3.3c0,0.13-0.07,0.22-0.2,0.25c-0.17,0.1-0.38,0.15-0.65,0.15
					c-0.2,0-0.42-0.05-0.65-0.15c-0.1-0.03-0.17-0.08-0.2-0.15V7.03z"/>
			</g>
		</g>
		<g>
			<g>
				<g>
					<path fill="#0E0E16" d="M28.75,5.88c-0.07,0.13-0.23,0.25-0.5,0.35c-0.87,0.6-1.68,1-2.45,1.2c-0.57,0.1-0.95,0.02-1.15-0.25
						c-0.23-0.1-0.37-0.23-0.4-0.4c0-0.1,0.05-0.22,0.15-0.35l2.45-1.2c0.2-0.1,0.47-0.1,0.8,0c0.3,0.03,0.62,0.17,0.95,0.4
						C28.63,5.73,28.68,5.82,28.75,5.88z"/>
					
						<linearGradient id="SVGID_52_" gradientUnits="userSpaceOnUse" x1="-69.3501" y1="65.79" x2="-67.3501" y2="65.79" gradientTransform="matrix(1 0 0 -1 94 73.6699)">
						<stop  offset="0" style="stop-color:#1B1E23"/>
						<stop  offset="0.5176" style="stop-color:#313435"/>
						<stop  offset="1" style="stop-color:#07080C"/>
					</linearGradient>
					<path fill="url(#SVGID_52_)" d="M24.25,6.78c0.03,0.17,0.17,0.3,0.4,0.4c0.2,0.27,0.58,0.35,1.15,0.25
						c0.77-0.2,1.58-0.6,2.45-1.2c0.27-0.1,0.43-0.22,0.5-0.35v2.6l-2.2,1.15c-0.7,0.27-1.18,0.32-1.45,0.15
						c-0.27-0.13-0.55-0.38-0.85-0.75V6.78z"/>
				</g>
			</g>
			<g>
				<g>
					
						<radialGradient id="SVGID_53_" cx="-67.25" cy="66.3857" r="1.912" gradientTransform="matrix(1 0 0 -1 94 73.6699)" gradientUnits="userSpaceOnUse">
						<stop  offset="0" style="stop-color:#FEFEFE;stop-opacity:0.4235"/>
						<stop  offset="1" style="stop-color:#FBFBFB;stop-opacity:0"/>
					</radialGradient>
					<path fill="url(#SVGID_53_)" d="M25.83,7.58c0.04-0.01,0.07-0.04,0.1-0.08c0.02-0.03,0.03-0.06,0.03-0.1
						c-0.01-0.04-0.04-0.08-0.08-0.1c-0.03-0.02-0.06-0.03-0.1-0.02h-0.02c0.76-0.19,1.57-0.55,2.42-1.08
						c0.03-0.02,0.06-0.03,0.1-0.02c0.04,0.01,0.08,0.04,0.1,0.07s0.03,0.06,0.02,0.1c-0.01,0.04-0.04,0.08-0.07,0.1
						c-0.88,0.54-1.7,0.92-2.48,1.13H25.83z"/>
					
						<radialGradient id="SVGID_54_" cx="-67.25" cy="66.3867" r="1.9121" gradientTransform="matrix(1 0 0 -1 94 73.6699)" gradientUnits="userSpaceOnUse">
						<stop  offset="0" style="stop-color:#FEFEFE;stop-opacity:0.5412"/>
						<stop  offset="1" style="stop-color:#FBFBFB;stop-opacity:0"/>
					</radialGradient>
					<path fill="url(#SVGID_54_)" d="M25.83,7.58c-0.63,0.11-1.06,0.04-1.28-0.2c-0.03-0.03-0.05-0.06-0.05-0.1
						c0-0.04,0.02-0.07,0.05-0.1c0.03-0.03,0.06-0.05,0.1-0.05s0.07,0.02,0.1,0.05c0.18,0.16,0.51,0.19,1,0.1h0.02
						c0.04-0.01,0.07,0,0.1,0.02c0.04,0.02,0.06,0.06,0.08,0.1c0.01,0.04,0,0.07-0.03,0.1C25.9,7.55,25.87,7.57,25.83,7.58z"/>
				</g>
			</g>
		</g>
		<g>
			<g>
				
					<linearGradient id="SVGID_55_" gradientUnits="userSpaceOnUse" x1="-160.5396" y1="50.4893" x2="11.738" y2="50.4893" gradientTransform="matrix(1 0 0 -1 94 73.6699)">
					<stop  offset="0" style="stop-color:#5D6570"/>
					<stop  offset="0.9725" style="stop-color:#BBC7D5"/>
				</linearGradient>
				<polygon fill="url(#SVGID_55_)" points="55.5,23.78 56.2,22.58 88.6,22.58 85.75,23.78 85.15,23.78 67.6,23.78 				"/>
				
					<linearGradient id="SVGID_56_" gradientUnits="userSpaceOnUse" x1="-55.311" y1="50.4893" x2="-2.7878" y2="50.4893" gradientTransform="matrix(1 0 0 -1 94 73.6699)">
					<stop  offset="0" style="stop-color:#5D6570"/>
					<stop  offset="0.9725" style="stop-color:#BBC7D5"/>
				</linearGradient>
				<path fill="url(#SVGID_56_)" d="M88.6,22.58h11.3l-0.25,0.25c-0.17,0.57-0.58,0.85-1.25,0.85l-12.65,0.1L88.6,22.58z"/>
				<path fill="#798496" d="M5,10.53l5.7,5.6l7.55,7.65v-0.1c0,0.07,0.04,0.1,0.1,0.1v-0.1c0.1,0.1,0.22,0.13,0.35,0.1h24.8h8.6h3.4
					h12.1h17.55h0.6l12.65-0.1c0.67,0,1.08-0.28,1.25-0.85c-0.17,1.2-0.72,1.83-1.65,1.9H85.75h-0.6H67.6H55.5h-3.4h-8.6H20
					c-0.17,0-0.28-0.03-0.35-0.1v0.1l-1.3-0.1v0.1h-0.1l-8.45-8.7L5,11.28V10.53z"/>
				
					<linearGradient id="SVGID_57_" gradientUnits="userSpaceOnUse" x1="-2039.5044" y1="68.6807" x2="595.8662" y2="68.6807" gradientTransform="matrix(0.9997 0.0242 0 -1.0003 93.8331 87.4457)">
					<stop  offset="0" style="stop-color:#5D6570"/>
					<stop  offset="0.9725" style="stop-color:#BBC7D5"/>
				</linearGradient>
				<polygon fill="url(#SVGID_57_)" points="18.15,22.68 18.25,22.73 18.25,23.68 18.25,23.78 10.7,16.13 5,10.53 5,9.73 
					11.55,16.13 				"/>
				
					<linearGradient id="SVGID_58_" gradientUnits="userSpaceOnUse" x1="-75.6235" y1="61.9258" x2="-23.0843" y2="61.9258" gradientTransform="matrix(0.9997 0.0233 0 -1.0003 93.8375 86.934)">
					<stop  offset="0" style="stop-color:#5D6570"/>
					<stop  offset="0.9725" style="stop-color:#BBC7D5"/>
				</linearGradient>
				<path fill="url(#SVGID_58_)" d="M18.35,22.68v1v0.1c-0.06,0-0.1-0.03-0.1-0.1v-0.95l-0.1-0.05H18.35z"/>
				
					<linearGradient id="SVGID_59_" gradientUnits="userSpaceOnUse" x1="-75.7627" y1="50.4824" x2="-23.2377" y2="50.4824" gradientTransform="matrix(1 0 0 -1 94 73.6699)">
					<stop  offset="0" style="stop-color:#5D6570"/>
					<stop  offset="0.9725" style="stop-color:#BBC7D5"/>
				</linearGradient>
				<path fill="url(#SVGID_59_)" d="M18.35,23.68v-1v-0.1H56.2l-0.7,1.2h-3.4h-8.6H18.7C18.57,23.82,18.45,23.78,18.35,23.68z"/>
			</g>
		</g>
	</g>
</g>
</svg>
