<?xml version="1.0" encoding="utf-8"?>
<!-- Generator: Adobe Illustrator 16.0.0, SVG Export Plug-In . SVG Version: 6.00 Build 0)  -->
<!DOCTYPE svg PUBLIC "-//W3C//DTD SVG 1.1//EN" "http://www.w3.org/Graphics/SVG/1.1/DTD/svg11.dtd">
<svg version="1.1" id="Layer_1" xmlns="http://www.w3.org/2000/svg" xmlns:xlink="http://www.w3.org/1999/xlink" x="0px" y="0px"
	 width="68px" height="32.5px" viewBox="0 0 68 32.5" enable-background="new 0 0 68 32.5" xml:space="preserve">
<g>
	<path fill-rule="evenodd" clip-rule="evenodd" d="M3.55,2.1c1.49,0.57,3.09,0.37,4.8-0.6c0.24-0.13,0.5-0.2,0.77-0.2
		C19.56,1.32,25.29,7.73,26.3,20.53c0.38,4.93,2.36,7.61,5.95,8.02c4.2,0.3,10.31-1.99,18.33-6.88h-0.03
		C54.98,18.93,59,18.7,62.6,21c0.09,0.03,0.18,0.07,0.28,0.13c0.47,0.27,0.96,0.27,1.47,0c0.37-0.19,0.75-0.22,1.15-0.1
		c0.39,0.13,0.68,0.38,0.88,0.75c0.19,0.36,0.23,0.74,0.1,1.13c-0.12,0.39-0.36,0.68-0.72,0.88c-1.5,0.78-2.94,0.77-4.3-0.03
		c-0.14-0.04-0.27-0.1-0.4-0.17c-2.65-1.6-5.62-1.39-8.9,0.65h-0.03c-8.78,5.35-15.5,7.79-20.15,7.33
		c-5.26-0.35-8.15-3.94-8.68-10.77C22.46,10.14,17.85,4.64,9.48,4.3C6.99,5.62,4.64,5.82,2.45,4.9C2.07,4.74,1.79,4.46,1.63,4.08
		C1.46,3.7,1.45,3.33,1.6,2.95c0.16-0.39,0.44-0.66,0.82-0.83C2.8,1.96,3.17,1.95,3.55,2.1z"/>
</g>
</svg>
