<?xml version="1.0" encoding="utf-8"?>
<!-- Generator: Adobe Illustrator 16.0.0, SVG Export Plug-In . SVG Version: 6.00 Build 0)  -->
<!DOCTYPE svg PUBLIC "-//W3C//DTD SVG 1.1//EN" "http://www.w3.org/Graphics/SVG/1.1/DTD/svg11.dtd">
<svg version="1.1" id="Layer_1" xmlns="http://www.w3.org/2000/svg" xmlns:xlink="http://www.w3.org/1999/xlink" x="0px" y="0px"
	 width="91px" height="109px" viewBox="0 0 91 109" enable-background="new 0 0 91 109" xml:space="preserve">
<g>
	<path fill="#BF0404" d="M11.2,5.38c0.04-0.04,0.07-0.07,0.1-0.1c0.3-0.29,0.66-0.43,1.08-0.42c5.19,0.02,8.39,2.99,9.6,8.92
		c0.06,0.28,0.12,0.55,0.17,0.8c0.01,0.02,0.02,0.03,0.02,0.05c6.64,30.71,13.31,51.17,20.03,61.4c4.88,7.43,9.84,12.62,14.9,15.57
		c1.72,1,3.45,1.73,5.2,2.2c7.17,1.88,11.9,3.2,14.17,3.98c2.64,0.91,4.48,2.3,5.53,4.17c0.53,0.72,1.36,0.83,2.5,0.33
		c0.38-0.17,0.76-0.18,1.15-0.03c0.38,0.15,0.66,0.42,0.82,0.8c0.17,0.38,0.18,0.76,0.03,1.15c-0.15,0.38-0.42,0.66-0.8,0.83
		c-2.93,1.29-5.03,0.77-6.3-1.58c-0.76-1.26-2.05-2.2-3.88-2.83c-2.25-0.76-6.92-2.07-14-3.92H61.5c-1.98-0.53-3.95-1.36-5.9-2.5
		c-5.41-3.11-10.71-8.62-15.9-16.53C32.81,67.3,25.99,46.5,19.23,15.27l0.02,0.05c-0.08-0.28-0.15-0.58-0.23-0.9V14.4
		c-0.82-4.06-2.9-6.24-6.23-6.52C12.74,7.92,12.68,7.96,12.63,8c-2.18,1.42-4.46,1.63-6.85,0.63C5.39,8.47,5.11,8.2,4.95,7.83
		C4.8,7.44,4.81,7.06,4.98,6.67c0.16-0.39,0.42-0.66,0.8-0.82C6.16,5.7,6.54,5.71,6.92,5.88c1.41,0.59,2.76,0.47,4.05-0.38
		C11.05,5.45,11.13,5.41,11.2,5.38z"/>
</g>
</svg>
