<?xml version="1.0" encoding="utf-8"?>
<!-- Generator: Adobe Illustrator 16.0.0, SVG Export Plug-In . SVG Version: 6.00 Build 0)  -->
<!DOCTYPE svg PUBLIC "-//W3C//DTD SVG 1.1//EN" "http://www.w3.org/Graphics/SVG/1.1/DTD/svg11.dtd">
<svg version="1.1" id="Layer_1" xmlns="http://www.w3.org/2000/svg" xmlns:xlink="http://www.w3.org/1999/xlink" x="0px" y="0px"
	 width="85px" height="108px" viewBox="0 0 85 108" enable-background="new 0 0 85 108" xml:space="preserve">
<g>
	<path fill-rule="evenodd" clip-rule="evenodd" d="M10.65,5.38c0.4,0.08,0.72,0.29,0.95,0.63c1.95,2.84,3.59,7.06,4.9,12.65V18.6
		c3.38,12.32,6.92,23.29,10.6,32.92V51.5c4.81,12.51,9.86,22.73,15.15,30.65c0.02,0.02,0.03,0.05,0.05,0.07
		c5.52,7.47,12.32,11.61,20.4,12.43c1.84,0.18,3.59,0.54,5.25,1.07c3.66,1.15,6.89,3.14,9.7,5.98c0.15,0.03,0.29,0.09,0.42,0.17
		c0.56,0.29,1.24,0.34,2.05,0.13c0.4-0.11,0.77-0.06,1.13,0.15c0.36,0.21,0.59,0.52,0.7,0.92c0.11,0.4,0.06,0.77-0.15,1.13
		c-0.21,0.36-0.52,0.59-0.92,0.7c-1.55,0.41-2.87,0.32-3.97-0.25c-0.38-0.03-0.71-0.19-0.98-0.48c-2.55-2.67-5.51-4.54-8.88-5.6
		c-1.47-0.46-3.02-0.77-4.65-0.92c-8.96-0.85-16.47-5.42-22.55-13.7c-0.02-0.03-0.03-0.05-0.05-0.08
		c-5.42-8.07-10.59-18.49-15.5-31.27v-0.02c-3.72-9.7-7.28-20.76-10.7-33.18v-0.05c-1.06-4.45-2.32-7.96-3.8-10.52
		c-1.76,0.73-3.58,0.7-5.47-0.1C3.94,8.57,3.66,8.3,3.5,7.92C3.35,7.54,3.36,7.16,3.52,6.77c0.16-0.39,0.42-0.66,0.8-0.82
		C4.71,5.8,5.09,5.81,5.48,5.98C6.89,6.57,8.24,6.44,9.52,5.6C9.87,5.37,10.25,5.3,10.65,5.38z"/>
</g>
</svg>
