<?xml version="1.0" encoding="utf-8"?>
<!-- Generator: Adobe Illustrator 16.0.0, SVG Export Plug-In . SVG Version: 6.00 Build 0)  -->
<!DOCTYPE svg PUBLIC "-//W3C//DTD SVG 1.1//EN" "http://www.w3.org/Graphics/SVG/1.1/DTD/svg11.dtd">
<svg version="1.1" id="Layer_1" xmlns="http://www.w3.org/2000/svg" xmlns:xlink="http://www.w3.org/1999/xlink" x="0px" y="0px"
	 width="65px" height="107px" viewBox="0 0 65 107" enable-background="new 0 0 65 107" xml:space="preserve">
<g>
	<path fill-rule="evenodd" clip-rule="evenodd" d="M54.8,7.55c-3.44-0.48-6.01,2.3-7.7,8.35c-0.01,0.02-0.02,0.05-0.02,0.08
		c-1.52,4.67-2.83,9.1-3.92,13.3v0.02c-1.72,6.27-3,12.01-3.83,17.23v0.02c-0.36,2.23-0.63,4.37-0.83,6.4
		c-0.13,1.44-0.28,2.82-0.45,4.13c-1.09,9.21-2.52,15.76-4.27,19.65c-1.25,2.73-2.67,4.32-4.27,4.77c-4.42,1.72-7.36,3.61-8.8,5.65
		h-0.03c-1,1.48-1.03,3.07-0.1,4.77v0.03c1.46,2.8,1.6,4.85,0.42,6.13c-0.86,1.39-2.91,1.95-6.13,1.67c-2.77,0-4.75,1-5.92,3
		c-0.13,0.23-0.3,0.4-0.5,0.53c-0.09,0.1-0.19,0.19-0.3,0.27c-1.01,0.76-2.28,0.82-3.82,0.17c-0.38-0.15-0.64-0.42-0.8-0.8
		c-0.16-0.38-0.16-0.77,0-1.15c0.15-0.38,0.42-0.64,0.8-0.8c0.38-0.16,0.77-0.16,1.15,0c0.39,0.16,0.72,0.18,0.98,0.08l0.02-0.02
		c1.69-2.89,4.54-4.32,8.55-4.28c0.03,0,0.07,0,0.1,0c1.79,0.16,2.96,0,3.5-0.47c0.25-0.58,0.02-1.55-0.7-2.93v0.03
		c-1.53-2.83-1.43-5.47,0.3-7.92H18.2c1.62-2.49,5.02-4.74,10.2-6.75c0.03-0.01,0.07-0.02,0.1-0.03c0.89-0.38,1.73-1.45,2.52-3.2
		v0.02c1.64-3.72,2.98-9.98,4.02-18.77V56.7c0.17-1.28,0.32-2.63,0.45-4.05c0.21-2.1,0.5-4.3,0.88-6.6
		c0.84-5.31,2.13-11.16,3.88-17.55v0.02c1.1-4.24,2.42-8.72,3.95-13.42c0.01-0.02,0.02-0.05,0.02-0.08
		c2.34-8.3,6.15-11.77,11.45-10.4c0.2,0.05,0.38,0.13,0.55,0.25c0.74,0.52,1.52,0.76,2.35,0.73c0.47-0.02,0.93-0.13,1.4-0.33
		c0.38-0.17,0.77-0.18,1.15-0.02c0.38,0.16,0.64,0.44,0.8,0.83c0.17,0.38,0.18,0.77,0.03,1.15c-0.16,0.38-0.44,0.64-0.83,0.8
		c-0.8,0.34-1.6,0.53-2.4,0.58C57.34,8.69,56.03,8.34,54.8,7.55z"/>
</g>
</svg>
