<?xml version="1.0" encoding="utf-8"?>
<!-- Generator: Adobe Illustrator 16.0.0, SVG Export Plug-In . SVG Version: 6.00 Build 0)  -->
<!DOCTYPE svg PUBLIC "-//W3C//DTD SVG 1.1//EN" "http://www.w3.org/Graphics/SVG/1.1/DTD/svg11.dtd">
<svg version="1.1" id="Layer_1" xmlns="http://www.w3.org/2000/svg" xmlns:xlink="http://www.w3.org/1999/xlink" x="0px" y="0px"
	 width="89px" height="110px" viewBox="0 0 89 110" enable-background="new 0 0 89 110" xml:space="preserve">
<g>
	<path fill="none" stroke="#BF0404" stroke-width="3" stroke-linecap="round" stroke-linejoin="round" stroke-miterlimit="3" d="
		M81.85,61.85c0.96-18.66,0.92-33.93-0.13-45.8c-0.25-2.23-0.63-4.42-1.13-6.55c-0.17-0.8-0.47-1.55-0.9-2.25
		C78.6,5.58,77.08,4.83,75.15,5c-4.24,0.79-9.37,8.61-15.4,23.45c-0.27,0.67-0.52,1.33-0.75,2c-0.27,0.67-0.53,1.35-0.8,2.05
		s-0.52,1.42-0.75,2.15c-0.43,1.23-0.82,2.47-1.15,3.7c-0.27,0.93-0.52,1.87-0.75,2.8S55.07,43,54.8,43.9
		c-0.23,0.93-0.47,1.85-0.7,2.75c-0.13,0.43-0.27,0.87-0.4,1.3c-10.73,38.93-25.72,58.03-44.95,57.3c-0.99,0.71-1.79,0.69-2.4-0.05"
		/>
	<g>
		<path fill="#CACACA" d="M79.95,24.9c1.55,0.13,3.15,0.23,4.8,0.3v0.57c-1.65-0.08-3.25-0.19-4.8-0.32V24.9z"/>
	</g>
	<g>
		<g>
			<path fill="#C0C0C0" d="M83.95,15.5c-1.02-0.02-1.94-0.12-2.75-0.3c-0.07-0.03-0.12-0.05-0.15-0.05h-0.1
				c-0.13-0.07-0.27-0.12-0.4-0.15c-0.37-0.1-0.65-0.2-0.85-0.3v0.2l-0.3-0.35c-0.03-0.03-0.05-0.07-0.05-0.1
				c-0.09-0.06-0.16-0.13-0.22-0.2h0.28c0.01,0.02,0.03,0.03,0.05,0.05c0.07,0.03,0.12,0.08,0.15,0.15
				c0.27,0.13,0.62,0.25,1.05,0.35c0.13,0.07,0.28,0.1,0.45,0.1l0.1,0.1c0.81,0.15,1.73,0.23,2.75,0.25L83.95,15.5L83.95,15.5z"/>
			<path fill="#FFFFFF" fill-opacity="0.451" d="M83.95,15.5v0.02c-0.78,0-1.61,0-2.5-0.02c-0.13-0.1-0.22-0.2-0.25-0.3
				C82.01,15.38,82.93,15.48,83.95,15.5z"/>
		</g>
	</g>
</g>
</svg>
