<?xml version="1.0" encoding="utf-8"?>
<!-- Generator: Adobe Illustrator 16.0.0, SVG Export Plug-In . SVG Version: 6.00 Build 0)  -->
<!DOCTYPE svg PUBLIC "-//W3C//DTD SVG 1.1//EN" "http://www.w3.org/Graphics/SVG/1.1/DTD/svg11.dtd">
<svg version="1.1" id="Layer_1" xmlns="http://www.w3.org/2000/svg" xmlns:xlink="http://www.w3.org/1999/xlink" x="0px" y="0px"
	 width="114.41px" height="115px" viewBox="0 0 114.41 115" enable-background="new 0 0 114.41 115" xml:space="preserve">
<g>
	<path fill-rule="evenodd" clip-rule="evenodd" d="M87.26,9.9c0-0.03,0.02-0.07,0.05-0.1c3.97-4.13,7.43-5.73,10.4-4.8
		c2.97,0.67,5.33,3.8,7.1,9.4c2.93,7.2,3.68,29.1,2.25,65.7c0,0.4-0.15,0.75-0.45,1.05c-0.33,0.27-0.7,0.4-1.1,0.4
		c-0.4,0-0.75-0.15-1.05-0.45c-0.27-0.33-0.4-0.7-0.4-1.1c1.43-36.1,0.75-57.62-2.05-64.55c-0.03-0.07-0.05-0.12-0.05-0.15
		c-1.33-4.27-3-6.73-5-7.4c-2.05-0.4-4.54,0.92-7.45,3.95c-0.01,0.02-0.03,0.03-0.05,0.05c-5.04,5.78-10.39,14.08-16.05,24.9
		c-4.18,7.98-8.53,17.33-13.05,28.05c-0.03,0-0.05,0.02-0.05,0.05C47.04,92.1,31.59,107,13.96,109.6c-1.73,1-3.28,0.97-4.65-0.1
		c-0.37-0.27-0.57-0.6-0.6-1c-0.1-0.4-0.02-0.77,0.25-1.1c0.23-0.37,0.55-0.57,0.95-0.6c0.4-0.1,0.78-0.02,1.15,0.25
		c0.43,0.27,0.95,0.22,1.55-0.15c0.17-0.13,0.37-0.2,0.6-0.2c16.83-2.57,31.63-16.93,44.4-43.1c5.51-13.04,10.78-24.09,15.8-33.13
		C78.25,21.75,82.87,14.89,87.26,9.9z"/>
	<g>
		<path fill-rule="evenodd" clip-rule="evenodd" fill="#CACACA" d="M105.16,43.25c1.42,0.03,2.89,0.05,4.4,0.05v0.6
			c-1.51,0-3.01-0.04-4.5-0.1c-0.44-0.02-0.87-0.03-1.3-0.05V43.2C104.22,43.22,104.69,43.23,105.16,43.25z"/>
	</g>
	<g>
		<g>
			<path fill-rule="evenodd" clip-rule="evenodd" fill="#C0C0C0" d="M108.06,32.83c-0.17,0.05-0.35,0.11-0.55,0.17
				c-0.8,0.23-1.75,0.37-2.85,0.4c-0.22,0.05-0.46,0.08-0.7,0.1v-0.25c0.24-0.01,0.48-0.03,0.7-0.05c0.07,0,0.12,0,0.15,0
				c1-0.03,1.87-0.17,2.6-0.4c0.24-0.06,0.46-0.11,0.65-0.17V32.83z"/>
			<path fill-rule="evenodd" clip-rule="evenodd" fill="#FFFFFF" fill-opacity="0.451" d="M104.66,33.4v0.1
				c-0.23,0.01-0.46,0.02-0.7,0.02V33.5C104.2,33.48,104.43,33.45,104.66,33.4z"/>
			<path fill-rule="evenodd" clip-rule="evenodd" fill="#FFFFFF" fill-opacity="0.4196" d="M108.06,32.83v0.22
				c-0.9,0.24-2.03,0.39-3.4,0.45v-0.1c1.1-0.03,2.05-0.17,2.85-0.4C107.71,32.94,107.89,32.88,108.06,32.83z"/>
		</g>
	</g>
</g>
</svg>
