<?xml version="1.0" encoding="utf-8"?>
<!-- Generator: Adobe Illustrator 16.0.0, SVG Export Plug-In . SVG Version: 6.00 Build 0)  -->
<!DOCTYPE svg PUBLIC "-//W3C//DTD SVG 1.1//EN" "http://www.w3.org/Graphics/SVG/1.1/DTD/svg11.dtd">
<svg version="1.1" id="Layer_1" xmlns="http://www.w3.org/2000/svg" xmlns:xlink="http://www.w3.org/1999/xlink" x="0px" y="0px"
	 width="195px" height="162px" viewBox="0 0 195 162" enable-background="new 0 0 195 162" xml:space="preserve">
<g>
	<path fill="#BF0404" d="M190.72,10.17c-0.13,0.39-0.38,0.69-0.75,0.88c-2.89,1.42-5.77,1.5-8.63,0.25
		c-2.91,0.19-6.07,2.97-9.47,8.35l-0.03,0.02c-4.57,7.3-12.67,8.81-24.3,4.55c-8.06-1.85-15.96-2.83-23.72-2.93
		c-11.6-0.23-22.9,1.48-33.9,5.13H89.9c-3.18,1.02-6.33,2.22-9.45,3.6c-4.54,1.98-9.02,4.29-13.43,6.93
		c-4.55,2.7-9.03,5.75-13.45,9.17l-0.03,0.02c-1.01,0.74-2,1.52-2.97,2.33l-0.03,0.02C33.77,63.1,23.9,71.97,20.95,75.13L21,75.05
		c-6.18,7.57-6.41,14.23-0.7,19.98c0.05,0.06,0.1,0.11,0.15,0.18c5.63,7.58,7.85,14.47,6.67,20.67
		c-1.06,6.23-5.51,11.74-13.35,16.53c-0.02,0.01-0.03,0.02-0.05,0.02c-2.17,1.42-3.5,2.64-3.98,3.65c-0.08,0.47,0.22,0.88,0.9,1.25
		c3.01,1.55,9.99,2.32,20.95,2.33c0.03,0,0.07,0,0.1,0c8.11,0.57,15.17,1.33,21.17,2.27c1.93,0.3,3.75,0.62,5.48,0.95
		c2.19,0.44,4.23,0.91,6.13,1.42c3.63,0.97,7.02,1.85,10.15,2.65c1.39,0.33,2.72,0.65,3.98,0.95c4.27,1.02,7.98,1.83,11.13,2.42
		c3.11,0.55,5.64,0.91,7.6,1.08h0.05c16.73,2.1,25.94,4.01,27.63,5.72c0.54,0.27,1.31,0.26,2.3-0.03c0.39-0.11,0.77-0.06,1.13,0.15
		c0.37,0.2,0.61,0.5,0.73,0.9c0.11,0.39,0.06,0.77-0.15,1.13c-0.2,0.37-0.5,0.61-0.9,0.72c-2.23,0.64-3.9,0.45-5.02-0.58
		c-0.09-0.07-0.17-0.16-0.25-0.25c-1.13-1.17-9.73-2.76-25.8-4.77c-2.03-0.18-4.65-0.55-7.85-1.13c-3.19-0.61-6.95-1.43-11.27-2.48
		c-1.27-0.3-2.6-0.62-4-0.95h-0.02c-3.13-0.8-6.52-1.68-10.15-2.65H63.7c-1.84-0.49-3.82-0.95-5.95-1.38
		c-1.68-0.33-3.45-0.65-5.33-0.95c-5.93-0.92-12.91-1.67-20.92-2.22c-11.65,0-19.08-0.9-22.27-2.68c-2.44-1.31-3.19-2.97-2.25-5
		c0.52-1.48,2.23-3.17,5.15-5.07l0.05-0.03c6.96-4.24,10.96-9.08,12-14.53c0.92-5.45-1.1-11.54-6.05-18.25
		c-7.01-6.9-6.82-14.88,0.58-23.95c0.02-0.02,0.03-0.05,0.05-0.07c2.98-3.18,12.94-12.13,29.88-26.85l0.02-0.02
		c1.01-0.84,2.03-1.65,3.08-2.43l0.02-0.02c4.51-3.5,9.08-6.64,13.73-9.4c4.52-2.7,9.12-5.05,13.77-7.08
		c3.22-1.42,6.47-2.65,9.75-3.7h-0.02c11.33-3.75,22.96-5.51,34.9-5.28c8.01,0.1,16.17,1.12,24.47,3.05
		c0.06,0.01,0.12,0.03,0.18,0.05c9.93,3.64,16.87,2.52,20.82-3.38l-0.02,0.02c4.3-6.8,8.43-10.05,12.38-9.75
		c0.21,0.01,0.41,0.06,0.6,0.15c2.09,0.99,4.2,0.95,6.33-0.1c0.37-0.18,0.76-0.21,1.15-0.08s0.69,0.38,0.88,0.75
		C190.83,9.4,190.86,9.78,190.72,10.17z"/>
</g>
</svg>
