<?xml version="1.0" encoding="utf-8"?>
<!-- Generator: Adobe Illustrator 16.0.0, SVG Export Plug-In . SVG Version: 6.00 Build 0)  -->
<!DOCTYPE svg PUBLIC "-//W3C//DTD SVG 1.1//EN" "http://www.w3.org/Graphics/SVG/1.1/DTD/svg11.dtd">
<svg version="1.1" id="Layer_1" xmlns="http://www.w3.org/2000/svg" xmlns:xlink="http://www.w3.org/1999/xlink" x="0px" y="0px"
	 width="25.67px" height="23.67px" viewBox="0 0 25.67 23.67" enable-background="new 0 0 25.67 23.67" xml:space="preserve">
<g>
	<g>
		<linearGradient id="SVGID_1_" gradientUnits="userSpaceOnUse" x1="8.915" y1="-3.4131" x2="14.5317" y2="21.3695">
			<stop  offset="0" style="stop-color:#454F51"/>
			<stop  offset="0.3176" style="stop-color:#6C6D71"/>
			<stop  offset="0.5098" style="stop-color:#7D8082"/>
			<stop  offset="0.6745" style="stop-color:#4C4D4F"/>
			<stop  offset="0.8" style="stop-color:#8A8D8E"/>
			<stop  offset="0.9176" style="stop-color:#494B4F"/>
			<stop  offset="1" style="stop-color:#46494E"/>
		</linearGradient>
		<polygon fill-rule="evenodd" clip-rule="evenodd" fill="url(#SVGID_1_)" points="1.13,5.25 6.48,5.2 24.53,22.5 18.53,22.5 		"/>
	</g>
	<g>
		<g>
			<g>
				
					<linearGradient id="SVGID_2_" gradientUnits="userSpaceOnUse" x1="7.8047" y1="-370.2617" x2="10.4001" y2="-370.2617" gradientTransform="matrix(0.3564 0.9343 -0.9393 0.3433 -346.1144 121.6383)">
					<stop  offset="0" style="stop-color:#505551"/>
					<stop  offset="0.9804" style="stop-color:#A4A79E"/>
				</linearGradient>
				<path fill-rule="evenodd" clip-rule="evenodd" fill="url(#SVGID_2_)" d="M6.13,2.5c-0.3-0.17-0.68-0.25-1.15-0.25
					c-0.43,0-0.8,0.08-1.1,0.25C3.82,2.53,3.73,2.58,3.63,2.65c-0.1,0.17-0.15,0.33-0.15,0.5c0,0.27,0.13,0.48,0.4,0.65
					c0.3,0.2,0.67,0.3,1.1,0.3c0.47,0,0.85-0.1,1.15-0.3c0.3-0.17,0.45-0.38,0.45-0.65c0-0.17-0.07-0.32-0.2-0.45
					C6.35,2.6,6.27,2.53,6.13,2.5z M6.93,3.4c-0.07,0.23-0.27,0.45-0.6,0.65C6,4.25,5.55,4.35,4.98,4.35c-0.53,0-0.98-0.1-1.35-0.3
					c-0.33-0.2-0.52-0.43-0.55-0.7V3.2c0-0.3,0.18-0.57,0.55-0.8s0.82-0.35,1.35-0.35C5.55,2.05,6,2.17,6.33,2.4
					c0.4,0.23,0.6,0.5,0.6,0.8c0,0.07,0,0.12,0,0.15V3.4z"/>
				<path fill-rule="evenodd" clip-rule="evenodd" fill="#11110F" d="M6.13,2.5c0.13,0.03,0.22,0.1,0.25,0.2
					c0.13,0.13,0.2,0.28,0.2,0.45c0,0.27-0.15,0.48-0.45,0.65C5.83,4,5.45,4.1,4.98,4.1c-0.43,0-0.8-0.1-1.1-0.3
					c-0.27-0.17-0.4-0.38-0.4-0.65c0-0.17,0.05-0.33,0.15-0.5c0.1-0.07,0.18-0.12,0.25-0.15c0.3-0.17,0.67-0.25,1.1-0.25
					C5.45,2.25,5.83,2.33,6.13,2.5z"/>
				
					<linearGradient id="SVGID_3_" gradientUnits="userSpaceOnUse" x1="-476.8784" y1="-438.3022" x2="-473.0462" y2="-438.3022" gradientTransform="matrix(-0.972 0.2349 -0.2458 -0.9694 -564.3136 -309.5432)">
					<stop  offset="0" style="stop-color:#303129"/>
					<stop  offset="0.502" style="stop-color:#6D6F66"/>
					<stop  offset="0.9804" style="stop-color:#303129"/>
				</linearGradient>
				<path fill-rule="evenodd" clip-rule="evenodd" fill="url(#SVGID_3_)" d="M3.08,3.35c0.03,0.27,0.22,0.5,0.55,0.7
					c0.37,0.2,0.82,0.3,1.35,0.3c0.57,0,1.02-0.1,1.35-0.3c0.33-0.2,0.53-0.42,0.6-0.65v0.4c-0.1,0.2-0.3,0.37-0.6,0.5
					C6.3,4.33,6.27,4.38,6.23,4.45C6,4.52,5.72,4.57,5.38,4.6c-0.13,0.07-0.27,0.1-0.4,0.1c-0.17,0-0.32-0.03-0.45-0.1
					c-0.3-0.03-0.57-0.12-0.8-0.25c-0.07,0-0.1-0.02-0.1-0.05c-0.3-0.17-0.48-0.35-0.55-0.55V3.35z"/>
				
					<linearGradient id="SVGID_4_" gradientUnits="userSpaceOnUse" x1="-213.7534" y1="136.8027" x2="-212.9577" y2="136.8027" gradientTransform="matrix(0.7226 -0.6912 0.7122 0.7026 61.3971 -237.626)">
					<stop  offset="0" style="stop-color:#45473A"/>
					<stop  offset="0.9804" style="stop-color:#AAB3AE"/>
				</linearGradient>
				<path fill-rule="evenodd" clip-rule="evenodd" fill="url(#SVGID_4_)" d="M6.58,5.5v0.1c0,0.07-0.02,0.15-0.05,0.25
					C6.5,6.02,6.35,6.17,6.08,6.3c-0.3,0.17-0.67,0.25-1.1,0.25c-0.43,0-0.8-0.08-1.1-0.25c-0.23-0.13-0.37-0.28-0.4-0.45
					c-0.07-0.1-0.1-0.18-0.1-0.25V5.5c0.07-0.17,0.15-0.28,0.25-0.35c0.1-0.1,0.18-0.17,0.25-0.2h0.1c0,0.07,0,0.17,0,0.3v0.2
					c0,0.13,0.1,0.27,0.3,0.4c0.17,0.07,0.4,0.1,0.7,0.1c0.27,0,0.5-0.03,0.7-0.1c0.23-0.1,0.35-0.23,0.35-0.4v-0.1
					c0-0.07,0-0.12,0-0.15c0-0.1,0-0.2,0-0.3l0.05,0.05C6.22,5.02,6.32,5.1,6.38,5.2C6.48,5.3,6.55,5.4,6.58,5.5z"/>
				<linearGradient id="SVGID_5_" gradientUnits="userSpaceOnUse" x1="6.2456" y1="5.1499" x2="3.7206" y2="5.1499">
					<stop  offset="0" style="stop-color:#303129"/>
					<stop  offset="0.502" style="stop-color:#6D6F66"/>
					<stop  offset="0.9804" style="stop-color:#303129"/>
				</linearGradient>
				<path fill-rule="evenodd" clip-rule="evenodd" fill="url(#SVGID_5_)" d="M3.73,4.35c0.23,0.13,0.5,0.22,0.8,0.25
					c0.13,0.07,0.28,0.1,0.45,0.1c0.13,0,0.27-0.03,0.4-0.1C5.72,4.57,6,4.52,6.23,4.45c-0.1,0.07-0.17,0.18-0.2,0.35v0.1
					c0,0.1,0,0.2,0,0.3c0,0.03,0,0.08,0,0.15v0.1c0,0.17-0.12,0.3-0.35,0.4c-0.2,0.07-0.43,0.1-0.7,0.1c-0.3,0-0.53-0.03-0.7-0.1
					c-0.2-0.13-0.3-0.27-0.3-0.4v-0.2c0-0.13,0-0.23,0-0.3c0-0.03-0.03-0.08-0.1-0.15C3.85,4.63,3.8,4.48,3.73,4.35z"/>
				<linearGradient id="SVGID_6_" gradientUnits="userSpaceOnUse" x1="2.7275" y1="6.5884" x2="7.152" y2="6.3285">
					<stop  offset="0" style="stop-color:#565751"/>
					<stop  offset="0.2078" style="stop-color:#575651"/>
					<stop  offset="0.4157" style="stop-color:#4F4F45"/>
					<stop  offset="0.5686" style="stop-color:#6C6F67"/>
					<stop  offset="0.6431" style="stop-color:#BEC3BC"/>
					<stop  offset="0.7373" style="stop-color:#686A65"/>
					<stop  offset="0.8706" style="stop-color:#6E706B"/>
					<stop  offset="1" style="stop-color:#979CA0"/>
				</linearGradient>
				<path fill-rule="evenodd" clip-rule="evenodd" fill="url(#SVGID_6_)" d="M6.53,5.85c0.03-0.1,0.05-0.18,0.05-0.25V5.5
					c0.1,0.07,0.18,0.13,0.25,0.2c0.13,0.17,0.2,0.37,0.2,0.6c0,0.07-0.02,0.15-0.05,0.25c-0.03,0.2-0.2,0.38-0.5,0.55
					c-0.43,0.27-0.93,0.4-1.5,0.4c-0.53,0-1.02-0.13-1.45-0.4c-0.3-0.17-0.47-0.35-0.5-0.55c-0.06-0.1-0.1-0.18-0.1-0.25
					c0-0.27,0.12-0.48,0.35-0.65c0.03-0.03,0.07-0.08,0.1-0.15v0.1c0,0.07,0.03,0.15,0.1,0.25c-0.07,0.03-0.1,0.1-0.1,0.2
					c0,0.23,0.17,0.45,0.5,0.65c0.3,0.17,0.67,0.25,1.1,0.25c0.43,0,0.8-0.08,1.1-0.25c0.33-0.2,0.5-0.42,0.5-0.65
					C6.58,5.95,6.57,5.88,6.53,5.85z"/>
				<linearGradient id="SVGID_7_" gradientUnits="userSpaceOnUse" x1="2.9331" y1="7.125" x2="7.0332" y2="7.125">
					<stop  offset="0" style="stop-color:#000000"/>
					<stop  offset="0.2078" style="stop-color:#575651"/>
					<stop  offset="0.4157" style="stop-color:#040404"/>
					<stop  offset="0.5686" style="stop-color:#6C6F67"/>
					<stop  offset="0.7373" style="stop-color:#686A65"/>
					<stop  offset="0.8784" style="stop-color:#000000"/>
					<stop  offset="1" style="stop-color:#979CA0"/>
				</linearGradient>
				<path fill-rule="evenodd" clip-rule="evenodd" fill="url(#SVGID_7_)" d="M2.93,6.3c0,0.07,0.04,0.15,0.1,0.25
					c0.03,0.2,0.2,0.38,0.5,0.55c0.43,0.27,0.92,0.4,1.45,0.4c0.57,0,1.07-0.13,1.5-0.4c0.3-0.17,0.47-0.35,0.5-0.55
					c0.03-0.1,0.05-0.18,0.05-0.25v0.5c0,0.3-0.18,0.58-0.55,0.85c-0.43,0.2-0.93,0.3-1.5,0.3c-0.53,0-1.02-0.1-1.45-0.3
					c-0.4-0.27-0.6-0.55-0.6-0.85V6.3z"/>
				<linearGradient id="SVGID_8_" gradientUnits="userSpaceOnUse" x1="3.3955" y1="6.4004" x2="6.5705" y2="6.4004">
					<stop  offset="0" style="stop-color:#000000"/>
					<stop  offset="0.2078" style="stop-color:#575651"/>
					<stop  offset="0.4157" style="stop-color:#040404"/>
					<stop  offset="0.5686" style="stop-color:#6C6F67"/>
					<stop  offset="0.7373" style="stop-color:#686A65"/>
					<stop  offset="0.8784" style="stop-color:#000000"/>
					<stop  offset="1" style="stop-color:#979CA0"/>
				</linearGradient>
				<path fill-rule="evenodd" clip-rule="evenodd" fill="url(#SVGID_8_)" d="M3.48,5.85c0.03,0.17,0.17,0.32,0.4,0.45
					c0.3,0.17,0.67,0.25,1.1,0.25c0.43,0,0.8-0.08,1.1-0.25C6.35,6.17,6.5,6.02,6.53,5.85c0.03,0.03,0.05,0.1,0.05,0.2
					c0,0.23-0.17,0.45-0.5,0.65c-0.3,0.17-0.67,0.25-1.1,0.25c-0.43,0-0.8-0.08-1.1-0.25c-0.33-0.2-0.5-0.42-0.5-0.65
					C3.38,5.95,3.42,5.88,3.48,5.85z"/>
			</g>
		</g>
		<g>
			<g>
				
					<radialGradient id="SVGID_9_" cx="5.083" cy="1.3999" r="2.175" gradientTransform="matrix(1 0 0 0.9885 0 0.0161)" gradientUnits="userSpaceOnUse">
					<stop  offset="0" style="stop-color:#919EA4"/>
					<stop  offset="0.6039" style="stop-color:#464A4A"/>
					<stop  offset="1" style="stop-color:#525453"/>
					<stop  offset="1" style="stop-color:#000000"/>
				</radialGradient>
				<path fill-rule="evenodd" clip-rule="evenodd" fill="url(#SVGID_9_)" d="M5.78,2.7h-0.1c-0.2,0.1-0.43,0.15-0.7,0.15
					c-0.3,0-0.55-0.05-0.75-0.15c-0.03,0-0.08-0.02-0.15-0.05C3.88,2.52,3.77,2.37,3.73,2.2c0-0.4,0.05-0.68,0.15-0.85
					c0.07-0.07,0.13-0.13,0.2-0.2c0.27-0.13,0.57-0.2,0.9-0.2c0.23,0,0.45,0.03,0.65,0.1c0.13,0.07,0.25,0.17,0.35,0.3
					c0.2,0.2,0.28,0.48,0.25,0.85c0,0.17-0.12,0.32-0.35,0.45C5.85,2.68,5.82,2.7,5.78,2.7z M4.98,2.1c-0.03,0-0.05,0.03-0.05,0.1
					c-0.03,0.03-0.03,0.07,0,0.1C5.23,2.27,5.25,2.2,4.98,2.1z M3.83,2C3.8,2.03,3.85,2.07,3.98,2.1c0.03-0.03,0.03-0.07,0-0.1
					C3.92,2,3.87,2,3.83,2z M5.33,2.2c0,0.03,0.02,0.07,0.05,0.1h0.05C5.5,2.23,5.48,2.2,5.38,2.2H5.33z"/>
				<path fill-rule="evenodd" clip-rule="evenodd" fill="#9AA3A8" d="M4.98,2.1c0.27,0.1,0.25,0.17-0.05,0.2
					c-0.03-0.03-0.03-0.07,0-0.1C4.93,2.13,4.95,2.1,4.98,2.1z M5.33,2.2h0.05c0.1,0,0.12,0.03,0.05,0.1H5.38
					C5.35,2.27,5.33,2.23,5.33,2.2z M3.83,2c0.03,0,0.08,0,0.15,0c0.03,0.03,0.03,0.07,0,0.1C3.85,2.07,3.8,2.03,3.83,2z"/>
				<path fill-rule="evenodd" clip-rule="evenodd" fill="#323230" d="M5.78,2.85h-0.1c-0.2,0.07-0.43,0.1-0.7,0.1
					c-0.23,0-0.48-0.03-0.75-0.1V2.7c0.2,0.1,0.45,0.15,0.75,0.15c0.27,0,0.5-0.05,0.7-0.15h0.1V2.85z"/>
				<linearGradient id="SVGID_10_" gradientUnits="userSpaceOnUse" x1="5.6831" y1="3.4751" x2="4.2831" y2="3.4751">
					<stop  offset="0.0471" style="stop-color:#5B5F5F"/>
					<stop  offset="0.4392" style="stop-color:#919EA4"/>
					<stop  offset="1" style="stop-color:#525453"/>
				</linearGradient>
				<path fill-rule="evenodd" clip-rule="evenodd" fill="url(#SVGID_10_)" d="M4.23,2.85c0.27,0.07,0.52,0.1,0.75,0.1
					c0.27,0,0.5-0.03,0.7-0.1h0.1V3.9L5.68,4c-0.17,0.03-0.4,0.07-0.7,0.1c-0.3,0-0.55-0.03-0.75-0.1V2.85z"/>
			</g>
		</g>
		<g>
			<g>
				<path fill-rule="evenodd" clip-rule="evenodd" fill="none" d="M3.83,4.15c-0.07-0.03-0.13-0.07-0.2-0.1
					c-0.23-0.17-0.4-0.33-0.5-0.5 M6.93,3.4C6.87,3.57,6.75,3.73,6.58,3.9C6.52,3.97,6.43,4.02,6.33,4.05
					c-0.07,0.03-0.15,0.07-0.25,0.1c-0.3,0.13-0.62,0.2-0.95,0.2c-0.03,0-0.08,0-0.15,0c-0.47,0-0.85-0.07-1.15-0.2"/>
				<path fill-rule="evenodd" clip-rule="evenodd" fill="none" d="M6.53,5.85C6.5,5.92,6.43,6,6.33,6.1C6.3,6.13,6.22,6.2,6.08,6.3
					C5.82,6.43,5.5,6.52,5.13,6.55c-0.03,0-0.08,0-0.15,0c-0.43,0-0.8-0.08-1.1-0.25c-0.23-0.13-0.37-0.28-0.4-0.45"/>
				<path fill-rule="evenodd" clip-rule="evenodd" fill="none" d="M6.08,4.15C5.95,4.42,5.72,4.57,5.38,4.6
					C5.28,4.67,5.2,4.7,5.13,4.7c-0.03,0-0.08,0-0.15,0c-0.17,0-0.32-0.03-0.45-0.1C4.23,4.57,4,4.42,3.83,4.15"/>
				<path fill-rule="evenodd" clip-rule="evenodd" fill="none" d="M6.03,5.45c0,0.17-0.12,0.3-0.35,0.4
					c-0.17,0.07-0.35,0.1-0.55,0.1c-0.03,0-0.08,0-0.15,0c-0.3,0-0.53-0.03-0.7-0.1c-0.17-0.1-0.27-0.18-0.3-0.25"/>
				<path fill-rule="evenodd" clip-rule="evenodd" fill="none" d="M6.98,6.55c-0.03,0.2-0.2,0.38-0.5,0.55
					C6.42,7.17,6.37,7.2,6.33,7.2C6,7.37,5.6,7.47,5.13,7.5c-0.03,0-0.08,0-0.15,0c-0.53,0-1.02-0.13-1.45-0.4
					c-0.3-0.17-0.47-0.35-0.5-0.55"/>
			</g>
		</g>
	</g>
	<g>
		<g>
			<g>
				<linearGradient id="SVGID_11_" gradientUnits="userSpaceOnUse" x1="22.2119" y1="18.3643" x2="18.5589" y2="19.252">
					<stop  offset="0" style="stop-color:#303129"/>
					<stop  offset="0.502" style="stop-color:#6D6F66"/>
					<stop  offset="0.9804" style="stop-color:#303129"/>
				</linearGradient>
				<path fill-rule="evenodd" clip-rule="evenodd" fill="url(#SVGID_11_)" d="M18.48,18.35c0.03,0.27,0.2,0.5,0.5,0.7
					c0.37,0.2,0.82,0.3,1.35,0.3c0.5,0,0.95-0.1,1.35-0.3c0.3-0.2,0.48-0.42,0.55-0.65l-0.05,0.4c-0.1,0.2-0.27,0.37-0.5,0.5
					c-0.07,0.03-0.12,0.08-0.15,0.15c-0.27,0.07-0.55,0.13-0.85,0.2c-0.1,0.03-0.22,0.05-0.35,0.05s-0.28-0.02-0.45-0.05
					c-0.3-0.07-0.58-0.17-0.85-0.3l-0.05-0.05c-0.3-0.17-0.47-0.35-0.5-0.55V18.35z"/>
				<linearGradient id="SVGID_12_" gradientUnits="userSpaceOnUse" x1="19.793" y1="16.8018" x2="20.6952" y2="19.2259">
					<stop  offset="0" style="stop-color:#505551"/>
					<stop  offset="0.9804" style="stop-color:#A4A79E"/>
				</linearGradient>
				<path fill-rule="evenodd" clip-rule="evenodd" fill="url(#SVGID_12_)" d="M22.23,18.4c-0.07,0.23-0.25,0.45-0.55,0.65
					c-0.4,0.2-0.85,0.3-1.35,0.3c-0.53,0-0.98-0.1-1.35-0.3c-0.3-0.2-0.47-0.43-0.5-0.7l-0.1-0.05v-0.1c0-0.3,0.2-0.57,0.6-0.8
					c0.37-0.23,0.82-0.35,1.35-0.35c0.5,0,0.95,0.12,1.35,0.35c0.37,0.23,0.55,0.5,0.55,0.8c0,0.07,0,0.12,0,0.15V18.4z
					 M19.03,17.65c-0.17,0.17-0.25,0.33-0.25,0.5c0,0.27,0.15,0.48,0.45,0.65c0.3,0.2,0.67,0.3,1.1,0.3c0.47,0,0.85-0.1,1.15-0.3
					c0.3-0.17,0.45-0.38,0.45-0.65c0-0.17-0.07-0.32-0.2-0.45c-0.1-0.1-0.18-0.17-0.25-0.2c-0.3-0.17-0.68-0.25-1.15-0.25
					c-0.43,0-0.8,0.08-1.1,0.25C19.13,17.53,19.07,17.58,19.03,17.65z"/>
				<path fill-rule="evenodd" clip-rule="evenodd" fill="#11110F" d="M19.03,17.65c0.03-0.07,0.1-0.12,0.2-0.15
					c0.3-0.17,0.67-0.25,1.1-0.25c0.47,0,0.85,0.08,1.15,0.25c0.07,0.03,0.15,0.1,0.25,0.2c0.13,0.13,0.2,0.28,0.2,0.45
					c0,0.27-0.15,0.48-0.45,0.65c-0.3,0.2-0.68,0.3-1.15,0.3c-0.43,0-0.8-0.1-1.1-0.3c-0.3-0.17-0.45-0.38-0.45-0.65
					C18.78,17.98,18.87,17.82,19.03,17.65z"/>
				<linearGradient id="SVGID_13_" gradientUnits="userSpaceOnUse" x1="21.5703" y1="20.1494" x2="19.0953" y2="20.1494">
					<stop  offset="0" style="stop-color:#303129"/>
					<stop  offset="0.502" style="stop-color:#6D6F66"/>
					<stop  offset="0.9804" style="stop-color:#303129"/>
				</linearGradient>
				<path fill-rule="evenodd" clip-rule="evenodd" fill="url(#SVGID_13_)" d="M19.03,19.35c0.27,0.13,0.55,0.23,0.85,0.3
					c0.17,0.03,0.32,0.05,0.45,0.05s0.25-0.02,0.35-0.05c0.3-0.07,0.58-0.13,0.85-0.2c-0.07,0.07-0.13,0.18-0.2,0.35v0.1
					c0,0.1,0,0.2,0,0.3c0,0.03,0,0.08,0,0.15v0.1c0,0.17-0.1,0.3-0.3,0.4c-0.23,0.07-0.47,0.1-0.7,0.1c-0.27,0-0.5-0.03-0.7-0.1
					c-0.23-0.13-0.35-0.27-0.35-0.4c0-0.03,0.03-0.05,0.1-0.05v-0.15c0-0.13-0.03-0.23-0.1-0.3c0-0.03,0-0.08,0-0.15
					C19.25,19.63,19.17,19.48,19.03,19.35z"/>
				<linearGradient id="SVGID_14_" gradientUnits="userSpaceOnUse" x1="19.6963" y1="21.2627" x2="20.2463" y2="20.7127">
					<stop  offset="0" style="stop-color:#45473A"/>
					<stop  offset="0.9804" style="stop-color:#AAB3AE"/>
				</linearGradient>
				<path fill-rule="evenodd" clip-rule="evenodd" fill="url(#SVGID_14_)" d="M21.88,20.5v0.1c0,0.07,0,0.15,0,0.25
					c-0.1,0.17-0.25,0.32-0.45,0.45c-0.3,0.17-0.67,0.25-1.1,0.25s-0.8-0.08-1.1-0.25c-0.2-0.13-0.35-0.28-0.45-0.45
					c0-0.1,0-0.18,0-0.25v-0.1c0.03-0.17,0.12-0.28,0.25-0.35c0.03-0.1,0.1-0.17,0.2-0.2h0.05c0.07,0.07,0.1,0.17,0.1,0.3v0.15
					c-0.07,0-0.1,0.02-0.1,0.05c0,0.13,0.12,0.27,0.35,0.4c0.2,0.07,0.43,0.1,0.7,0.1c0.23,0,0.47-0.03,0.7-0.1
					c0.2-0.1,0.3-0.23,0.3-0.4v-0.1c0-0.07,0-0.12,0-0.15c0-0.1,0-0.2,0-0.3l0.1,0.05c0.1,0.07,0.2,0.15,0.3,0.25
					C21.83,20.3,21.88,20.4,21.88,20.5z"/>
				<linearGradient id="SVGID_15_" gradientUnits="userSpaceOnUse" x1="18.7832" y1="21.4004" x2="21.8828" y2="21.4004">
					<stop  offset="0" style="stop-color:#000000"/>
					<stop  offset="0.2078" style="stop-color:#575651"/>
					<stop  offset="0.4157" style="stop-color:#040404"/>
					<stop  offset="0.5686" style="stop-color:#6C6F67"/>
					<stop  offset="0.7373" style="stop-color:#686A65"/>
					<stop  offset="0.8784" style="stop-color:#000000"/>
					<stop  offset="1" style="stop-color:#979CA0"/>
				</linearGradient>
				<path fill-rule="evenodd" clip-rule="evenodd" fill="url(#SVGID_15_)" d="M18.78,20.85c0.1,0.17,0.25,0.32,0.45,0.45
					c0.3,0.17,0.67,0.25,1.1,0.25s0.8-0.08,1.1-0.25c0.2-0.13,0.35-0.28,0.45-0.45c0,0.03,0,0.1,0,0.2c0,0.23-0.15,0.45-0.45,0.65
					c-0.3,0.17-0.67,0.25-1.1,0.25s-0.8-0.08-1.1-0.25c-0.3-0.2-0.45-0.42-0.45-0.65C18.78,20.95,18.78,20.88,18.78,20.85z"/>
				<linearGradient id="SVGID_16_" gradientUnits="userSpaceOnUse" x1="18.0771" y1="21.5918" x2="22.4017" y2="21.335">
					<stop  offset="0" style="stop-color:#565751"/>
					<stop  offset="0.2078" style="stop-color:#575651"/>
					<stop  offset="0.4157" style="stop-color:#4F4F45"/>
					<stop  offset="0.5686" style="stop-color:#6C6F67"/>
					<stop  offset="0.6431" style="stop-color:#BEC3BC"/>
					<stop  offset="0.7373" style="stop-color:#686A65"/>
					<stop  offset="0.8706" style="stop-color:#6E706B"/>
					<stop  offset="1" style="stop-color:#979CA0"/>
				</linearGradient>
				<path fill-rule="evenodd" clip-rule="evenodd" fill="url(#SVGID_16_)" d="M21.88,20.85c0-0.1,0-0.18,0-0.25v-0.1
					c0.1,0.07,0.18,0.13,0.25,0.2c0.17,0.17,0.25,0.37,0.25,0.6c0,0.07-0.04,0.15-0.1,0.25c-0.07,0.2-0.25,0.4-0.55,0.6
					c-0.4,0.23-0.87,0.35-1.4,0.35c-0.57,0-1.03-0.12-1.4-0.35c-0.3-0.2-0.5-0.4-0.6-0.6V21.3c0-0.27,0.1-0.48,0.3-0.65
					c0.07-0.03,0.12-0.08,0.15-0.15v0.1c0,0.07,0,0.15,0,0.25c0,0.03,0,0.1,0,0.2c0,0.23,0.15,0.45,0.45,0.65
					c0.3,0.17,0.67,0.25,1.1,0.25s0.8-0.08,1.1-0.25c0.3-0.2,0.45-0.42,0.45-0.65C21.88,20.95,21.88,20.88,21.88,20.85z"/>
				<linearGradient id="SVGID_17_" gradientUnits="userSpaceOnUse" x1="18.3076" y1="22.125" x2="22.3574" y2="22.125">
					<stop  offset="0" style="stop-color:#000000"/>
					<stop  offset="0.2078" style="stop-color:#575651"/>
					<stop  offset="0.4157" style="stop-color:#040404"/>
					<stop  offset="0.5686" style="stop-color:#6C6F67"/>
					<stop  offset="0.7373" style="stop-color:#686A65"/>
					<stop  offset="0.8784" style="stop-color:#000000"/>
					<stop  offset="1" style="stop-color:#979CA0"/>
				</linearGradient>
				<path fill-rule="evenodd" clip-rule="evenodd" fill="url(#SVGID_17_)" d="M18.33,21.55c0.1,0.2,0.3,0.4,0.6,0.6
					c0.37,0.23,0.83,0.35,1.4,0.35c0.53,0,1-0.12,1.4-0.35c0.3-0.2,0.48-0.4,0.55-0.6c0.06-0.1,0.1-0.18,0.1-0.25v0.5
					c-0.07,0.3-0.28,0.58-0.65,0.85c-0.4,0.2-0.87,0.3-1.4,0.3c-0.57,0-1.03-0.1-1.4-0.3c-0.4-0.27-0.6-0.55-0.6-0.85V21.55z"/>
			</g>
		</g>
		<g>
			<g>
				<radialGradient id="SVGID_18_" cx="20.4326" cy="16.4004" r="2.15" gradientUnits="userSpaceOnUse">
					<stop  offset="0" style="stop-color:#919EA4"/>
					<stop  offset="0.6039" style="stop-color:#464A4A"/>
					<stop  offset="1" style="stop-color:#525453"/>
					<stop  offset="1" style="stop-color:#000000"/>
				</radialGradient>
				<path fill-rule="evenodd" clip-rule="evenodd" fill="url(#SVGID_18_)" d="M21.08,17.7h-0.05c-0.23,0.1-0.47,0.15-0.7,0.15
					c-0.3,0-0.57-0.05-0.8-0.15c-0.03,0-0.07-0.02-0.1-0.05c-0.23-0.13-0.35-0.28-0.35-0.45c-0.03-0.4,0.03-0.68,0.2-0.85
					c0.07-0.07,0.12-0.13,0.15-0.2h0.05c0.2-0.13,0.48-0.2,0.85-0.2c0.2,0,0.42,0.03,0.65,0.1c0.1,0.07,0.2,0.17,0.3,0.3
					c0.17,0.23,0.25,0.52,0.25,0.85c-0.03,0.17-0.13,0.32-0.3,0.45C21.17,17.68,21.12,17.7,21.08,17.7z M20.23,17.3
					c0.3-0.03,0.33-0.08,0.1-0.15c-0.07,0-0.1,0.02-0.1,0.05C20.2,17.23,20.2,17.27,20.23,17.3z M19.28,17.15h0.1
					c0-0.07,0-0.12,0-0.15h-0.15C19.2,17.03,19.22,17.08,19.28,17.15z M19.93,16.1c0.13,0,0.18-0.02,0.15-0.05
					c-0.13,0.03-0.27,0.07-0.4,0.1c-0.2,0.07-0.28,0.15-0.25,0.25C19.5,16.23,19.67,16.13,19.93,16.1z M20.78,17.3
					c0.03-0.07,0-0.1-0.1-0.1h-0.05c0,0.03,0.02,0.07,0.05,0.1H20.78z"/>
				<path fill-rule="evenodd" clip-rule="evenodd" fill="#9AA3A8" d="M20.78,17.3h-0.1c-0.03-0.03-0.05-0.07-0.05-0.1h0.05
					C20.78,17.2,20.82,17.23,20.78,17.3z M19.93,16.1c-0.27,0.03-0.43,0.13-0.5,0.3c-0.03-0.1,0.05-0.18,0.25-0.25
					c0.13-0.03,0.27-0.07,0.4-0.1C20.12,16.08,20.07,16.1,19.93,16.1z M19.28,17.15c-0.07-0.07-0.08-0.12-0.05-0.15h0.15
					c0,0.03,0,0.08,0,0.15H19.28z M20.23,17.3c-0.03-0.03-0.03-0.07,0-0.1c0-0.03,0.03-0.05,0.1-0.05
					C20.57,17.22,20.53,17.27,20.23,17.3z"/>
				<path fill-rule="evenodd" clip-rule="evenodd" fill="#323230" d="M19.53,17.7c0.23,0.1,0.5,0.15,0.8,0.15
					c0.23,0,0.47-0.05,0.7-0.15h0.05v0.15h-0.05c-0.23,0.07-0.47,0.1-0.7,0.1c-0.27,0-0.53-0.03-0.8-0.1V17.7z"/>
				<linearGradient id="SVGID_19_" gradientUnits="userSpaceOnUse" x1="21.0332" y1="18.4746" x2="19.6332" y2="18.4746">
					<stop  offset="0.0471" style="stop-color:#5B5F5F"/>
					<stop  offset="0.4392" style="stop-color:#919EA4"/>
					<stop  offset="1" style="stop-color:#525453"/>
				</linearGradient>
				<path fill-rule="evenodd" clip-rule="evenodd" fill="url(#SVGID_19_)" d="M19.53,17.85c0.27,0.07,0.53,0.1,0.8,0.1
					c0.23,0,0.47-0.03,0.7-0.1h0.05v1.05L21.03,19c-0.17,0.03-0.4,0.07-0.7,0.1c-0.3,0-0.57-0.03-0.8-0.1V17.85z"/>
			</g>
		</g>
		<g>
			<g>
				<path fill-rule="evenodd" clip-rule="evenodd" fill="none" d="M22.23,18.4c-0.03,0.17-0.15,0.33-0.35,0.5
					c-0.07,0.07-0.13,0.12-0.2,0.15c-0.1,0.03-0.18,0.08-0.25,0.15c-0.3,0.1-0.63,0.15-1,0.15c-0.03,0-0.07,0-0.1,0
					c-0.43,0-0.82-0.05-1.15-0.15c-0.1-0.07-0.17-0.12-0.2-0.15c-0.27-0.17-0.43-0.33-0.5-0.5"/>
				<path fill-rule="evenodd" clip-rule="evenodd" fill="none" d="M21.43,19.2c-0.2,0.23-0.45,0.38-0.75,0.45
					c-0.07,0.03-0.15,0.05-0.25,0.05c-0.03,0-0.07,0-0.1,0c-0.13,0-0.28-0.02-0.45-0.05c-0.3-0.07-0.53-0.22-0.7-0.45"/>
				<path fill-rule="evenodd" clip-rule="evenodd" fill="none" d="M21.33,20.45c0,0.17-0.1,0.3-0.3,0.4c-0.17,0.07-0.37,0.1-0.6,0.1
					c-0.03,0-0.07,0-0.1,0c-0.27,0-0.5-0.03-0.7-0.1c-0.13-0.1-0.22-0.18-0.25-0.25"/>
				<path fill-rule="evenodd" clip-rule="evenodd" fill="none" d="M21.88,20.85c-0.07,0.07-0.13,0.15-0.2,0.25
					c-0.1,0.03-0.18,0.1-0.25,0.2c-0.27,0.13-0.6,0.22-1,0.25c-0.03,0-0.07,0-0.1,0c-0.43,0-0.8-0.08-1.1-0.25
					c-0.2-0.13-0.35-0.28-0.45-0.45"/>
				<path fill-rule="evenodd" clip-rule="evenodd" fill="none" d="M22.28,21.55c-0.07,0.2-0.25,0.4-0.55,0.6
					c0,0.03-0.02,0.05-0.05,0.05c-0.37,0.17-0.78,0.27-1.25,0.3c-0.03,0-0.07,0-0.1,0c-0.57,0-1.03-0.12-1.4-0.35
					c-0.3-0.2-0.5-0.4-0.6-0.6"/>
			</g>
		</g>
	</g>
</g>
</svg>
