<?xml version="1.0" encoding="utf-8"?>
<!-- Generator: Adobe Illustrator 16.0.0, SVG Export Plug-In . SVG Version: 6.00 Build 0)  -->
<!DOCTYPE svg PUBLIC "-//W3C//DTD SVG 1.1//EN" "http://www.w3.org/Graphics/SVG/1.1/DTD/svg11.dtd">
<svg version="1.1" id="Layer_1" xmlns="http://www.w3.org/2000/svg" xmlns:xlink="http://www.w3.org/1999/xlink" x="0px" y="0px"
	 width="25.38px" height="23.25px" viewBox="0 0 25.38 23.25" enable-background="new 0 0 25.38 23.25" xml:space="preserve">
<g>
	<g>
		
			<linearGradient id="SVGID_1_" gradientUnits="userSpaceOnUse" x1="-73.0977" y1="-440.9551" x2="-50.3847" y2="-440.9551" gradientTransform="matrix(0.1101 0.9939 -1.0061 2.453868e-004 -424.2169 72.1991)">
			<stop  offset="0" style="stop-color:#454F51"/>
			<stop  offset="0.3176" style="stop-color:#6C6D71"/>
			<stop  offset="0.5098" style="stop-color:#7D8082"/>
			<stop  offset="0.6745" style="stop-color:#4C4D4F"/>
			<stop  offset="0.8" style="stop-color:#8A8D8E"/>
			<stop  offset="0.9176" style="stop-color:#494B4F"/>
			<stop  offset="1" style="stop-color:#46494E"/>
		</linearGradient>
		<polygon fill-rule="evenodd" clip-rule="evenodd" fill="url(#SVGID_1_)" points="18.72,4.73 24.47,4.88 7.92,20.17 1.17,20.17 		
			"/>
	</g>
	<g>
		<g>
			<g>
				<linearGradient id="SVGID_2_" gradientUnits="userSpaceOnUse" x1="19.4404" y1="1.4927" x2="20.3427" y2="3.9168">
					<stop  offset="0" style="stop-color:#505551"/>
					<stop  offset="0.9804" style="stop-color:#A4A79E"/>
				</linearGradient>
				<path fill-rule="evenodd" clip-rule="evenodd" fill="url(#SVGID_2_)" d="M21.88,3.08c-0.07,0.23-0.25,0.45-0.55,0.65
					c-0.4,0.2-0.85,0.3-1.35,0.3c-0.53,0-0.98-0.1-1.35-0.3c-0.3-0.2-0.47-0.43-0.5-0.7l-0.1-0.05v-0.1c0-0.3,0.2-0.57,0.6-0.8
					c0.37-0.23,0.82-0.35,1.35-0.35c0.5,0,0.95,0.12,1.35,0.35c0.37,0.23,0.55,0.5,0.55,0.8c0,0.07,0,0.12,0,0.15V3.08z M21.58,2.83
					c0-0.17-0.07-0.32-0.2-0.45c-0.07-0.1-0.15-0.17-0.25-0.2c-0.3-0.17-0.68-0.25-1.15-0.25c-0.43,0-0.8,0.08-1.1,0.25
					c-0.1,0.03-0.17,0.08-0.2,0.15c-0.17,0.17-0.25,0.33-0.25,0.5c0,0.27,0.15,0.48,0.45,0.65c0.3,0.2,0.67,0.3,1.1,0.3
					c0.47,0,0.85-0.1,1.15-0.3C21.42,3.31,21.58,3.09,21.58,2.83z"/>
				<path fill-rule="evenodd" clip-rule="evenodd" fill="#11110F" d="M21.58,2.83c0,0.27-0.15,0.48-0.45,0.65
					c-0.3,0.2-0.68,0.3-1.15,0.3c-0.43,0-0.8-0.1-1.1-0.3c-0.3-0.17-0.45-0.38-0.45-0.65c0-0.17,0.08-0.33,0.25-0.5
					c0.03-0.07,0.1-0.12,0.2-0.15c0.3-0.17,0.67-0.25,1.1-0.25c0.47,0,0.85,0.08,1.15,0.25c0.1,0.03,0.18,0.1,0.25,0.2
					C21.51,2.51,21.58,2.66,21.58,2.83z"/>
				<linearGradient id="SVGID_3_" gradientUnits="userSpaceOnUse" x1="21.8535" y1="3.0405" x2="18.2005" y2="3.9282">
					<stop  offset="0" style="stop-color:#303129"/>
					<stop  offset="0.502" style="stop-color:#6D6F66"/>
					<stop  offset="0.9804" style="stop-color:#303129"/>
				</linearGradient>
				<path fill-rule="evenodd" clip-rule="evenodd" fill="url(#SVGID_3_)" d="M21.17,4.13c-0.23,0.07-0.5,0.12-0.8,0.15
					c-0.13,0.07-0.27,0.1-0.4,0.1c-0.13,0-0.28-0.03-0.45-0.1c-0.3-0.03-0.58-0.12-0.85-0.25l-0.05-0.05
					c-0.3-0.17-0.47-0.35-0.5-0.55v-0.4c0.03,0.27,0.2,0.5,0.5,0.7c0.37,0.2,0.82,0.3,1.35,0.3c0.5,0,0.95-0.1,1.35-0.3
					c0.3-0.2,0.48-0.42,0.55-0.65l-0.05,0.4c-0.1,0.2-0.27,0.37-0.5,0.5C21.29,4.01,21.24,4.06,21.17,4.13z"/>
				<linearGradient id="SVGID_4_" gradientUnits="userSpaceOnUse" x1="17.7695" y1="6.2637" x2="22.0941" y2="6.0068">
					<stop  offset="0" style="stop-color:#565751"/>
					<stop  offset="0.2078" style="stop-color:#575651"/>
					<stop  offset="0.4157" style="stop-color:#4F4F45"/>
					<stop  offset="0.5686" style="stop-color:#6C6F67"/>
					<stop  offset="0.6431" style="stop-color:#BEC3BC"/>
					<stop  offset="0.7373" style="stop-color:#686A65"/>
					<stop  offset="0.8706" style="stop-color:#6E706B"/>
					<stop  offset="1" style="stop-color:#979CA0"/>
				</linearGradient>
				<path fill-rule="evenodd" clip-rule="evenodd" fill="url(#SVGID_4_)" d="M21.53,5.17c0.1,0.07,0.18,0.13,0.25,0.2
					c0.17,0.17,0.25,0.37,0.25,0.6c0,0.07-0.02,0.15-0.05,0.25c-0.1,0.2-0.3,0.38-0.6,0.55c-0.37,0.27-0.83,0.4-1.4,0.4
					c-0.57,0-1.03-0.13-1.4-0.4c-0.3-0.17-0.5-0.35-0.6-0.55V5.98c0-0.27,0.12-0.48,0.35-0.65c0.03-0.03,0.07-0.08,0.1-0.15v0.1
					c0,0.07,0,0.15,0,0.25c0,0.03,0,0.1,0,0.2c0,0.23,0.15,0.45,0.45,0.65c0.3,0.17,0.67,0.25,1.1,0.25c0.43,0,0.8-0.08,1.1-0.25
					c0.3-0.2,0.45-0.42,0.45-0.65c0-0.1,0-0.17,0-0.2c0-0.1,0-0.18,0-0.25V5.17z"/>
				<linearGradient id="SVGID_5_" gradientUnits="userSpaceOnUse" x1="19.3389" y1="5.9385" x2="19.8889" y2="5.3885">
					<stop  offset="0" style="stop-color:#45473A"/>
					<stop  offset="0.9804" style="stop-color:#AAB3AE"/>
				</linearGradient>
				<path fill-rule="evenodd" clip-rule="evenodd" fill="url(#SVGID_5_)" d="M18.42,5.17c0.03-0.17,0.12-0.28,0.25-0.35
					c0.03-0.1,0.1-0.17,0.2-0.2h0.05c0.07,0.07,0.1,0.17,0.1,0.3v0.15c-0.07,0-0.1,0.02-0.1,0.05c0,0.13,0.12,0.27,0.35,0.4
					c0.2,0.07,0.43,0.1,0.7,0.1s0.5-0.03,0.7-0.1c0.2-0.1,0.3-0.23,0.3-0.4v-0.1c0-0.07,0-0.12,0-0.15c0-0.1,0-0.2,0-0.3l0.1,0.05
					c0.13,0.07,0.23,0.15,0.3,0.25c0.1,0.1,0.15,0.2,0.15,0.3v0.1c0,0.07,0,0.15,0,0.25c-0.1,0.17-0.25,0.32-0.45,0.45
					c-0.3,0.17-0.67,0.25-1.1,0.25c-0.43,0-0.8-0.08-1.1-0.25c-0.2-0.13-0.35-0.28-0.45-0.45c0-0.1,0-0.18,0-0.25V5.17z"/>
				<linearGradient id="SVGID_6_" gradientUnits="userSpaceOnUse" x1="17.9502" y1="6.7998" x2="22.001" y2="6.7998">
					<stop  offset="0" style="stop-color:#000000"/>
					<stop  offset="0.2078" style="stop-color:#575651"/>
					<stop  offset="0.4157" style="stop-color:#040404"/>
					<stop  offset="0.5686" style="stop-color:#6C6F67"/>
					<stop  offset="0.7373" style="stop-color:#686A65"/>
					<stop  offset="0.8784" style="stop-color:#000000"/>
					<stop  offset="1" style="stop-color:#979CA0"/>
				</linearGradient>
				<path fill-rule="evenodd" clip-rule="evenodd" fill="url(#SVGID_6_)" d="M17.97,6.23c0.1,0.2,0.3,0.38,0.6,0.55
					c0.37,0.27,0.83,0.4,1.4,0.4c0.57,0,1.03-0.13,1.4-0.4c0.3-0.17,0.5-0.35,0.6-0.55c0.03-0.1,0.05-0.18,0.05-0.25v0.5
					c-0.03,0.3-0.25,0.58-0.65,0.85c-0.37,0.2-0.83,0.3-1.4,0.3c-0.57,0-1.03-0.1-1.4-0.3c-0.4-0.27-0.6-0.55-0.6-0.85V6.23z"/>
				<linearGradient id="SVGID_7_" gradientUnits="userSpaceOnUse" x1="18.4248" y1="6.0752" x2="21.5254" y2="6.0752">
					<stop  offset="0" style="stop-color:#000000"/>
					<stop  offset="0.2078" style="stop-color:#575651"/>
					<stop  offset="0.4157" style="stop-color:#040404"/>
					<stop  offset="0.5686" style="stop-color:#6C6F67"/>
					<stop  offset="0.7373" style="stop-color:#686A65"/>
					<stop  offset="0.8784" style="stop-color:#000000"/>
					<stop  offset="1" style="stop-color:#979CA0"/>
				</linearGradient>
				<path fill-rule="evenodd" clip-rule="evenodd" fill="url(#SVGID_7_)" d="M18.42,5.52c0.1,0.17,0.25,0.32,0.45,0.45
					c0.3,0.17,0.67,0.25,1.1,0.25c0.43,0,0.8-0.08,1.1-0.25c0.2-0.13,0.35-0.28,0.45-0.45c0,0.03,0,0.1,0,0.2
					c0,0.23-0.15,0.45-0.45,0.65c-0.3,0.17-0.67,0.25-1.1,0.25c-0.43,0-0.8-0.08-1.1-0.25c-0.3-0.2-0.45-0.42-0.45-0.65
					C18.42,5.63,18.42,5.56,18.42,5.52z"/>
				<linearGradient id="SVGID_8_" gradientUnits="userSpaceOnUse" x1="21.2129" y1="4.8247" x2="18.7379" y2="4.8247">
					<stop  offset="0" style="stop-color:#303129"/>
					<stop  offset="0.502" style="stop-color:#6D6F66"/>
					<stop  offset="0.9804" style="stop-color:#303129"/>
				</linearGradient>
				<path fill-rule="evenodd" clip-rule="evenodd" fill="url(#SVGID_8_)" d="M20.97,4.58c0,0.1,0,0.2,0,0.3c0,0.03,0,0.08,0,0.15
					v0.1c0,0.17-0.1,0.3-0.3,0.4c-0.2,0.07-0.43,0.1-0.7,0.1s-0.5-0.03-0.7-0.1c-0.23-0.13-0.35-0.27-0.35-0.4
					c0-0.03,0.03-0.05,0.1-0.05V4.92c0-0.13-0.03-0.23-0.1-0.3c0-0.03,0-0.08,0-0.15c-0.03-0.17-0.12-0.32-0.25-0.45
					c0.27,0.13,0.55,0.22,0.85,0.25c0.17,0.07,0.32,0.1,0.45,0.1c0.13,0,0.27-0.03,0.4-0.1c0.3-0.03,0.57-0.08,0.8-0.15
					c-0.07,0.07-0.13,0.18-0.2,0.35V4.58z"/>
			</g>
		</g>
		<g>
			<g>
				<radialGradient id="SVGID_9_" cx="20.0752" cy="1.0752" r="2.15" gradientUnits="userSpaceOnUse">
					<stop  offset="0" style="stop-color:#919EA4"/>
					<stop  offset="0.6039" style="stop-color:#464A4A"/>
					<stop  offset="1" style="stop-color:#525453"/>
					<stop  offset="1" style="stop-color:#000000"/>
				</radialGradient>
				<path fill-rule="evenodd" clip-rule="evenodd" fill="url(#SVGID_9_)" d="M20.72,2.38h-0.05c-0.2,0.1-0.43,0.15-0.7,0.15
					c-0.3,0-0.57-0.05-0.8-0.15c-0.03,0-0.07-0.02-0.1-0.05c-0.23-0.13-0.35-0.28-0.35-0.45c-0.03-0.4,0.03-0.68,0.2-0.85
					c0.07-0.07,0.12-0.13,0.15-0.2h0.05c0.23-0.13,0.52-0.2,0.85-0.2c0.2,0,0.42,0.03,0.65,0.1c0.13,0.07,0.23,0.17,0.3,0.3
					c0.17,0.2,0.25,0.48,0.25,0.85c-0.03,0.17-0.13,0.32-0.3,0.45C20.84,2.36,20.79,2.38,20.72,2.38z M19.58,0.77
					c0.13,0,0.18-0.02,0.15-0.05c-0.13,0.03-0.27,0.07-0.4,0.1c-0.2,0.07-0.28,0.15-0.25,0.25C19.14,0.91,19.31,0.81,19.58,0.77z
					 M19.03,1.67h-0.15c-0.03,0.03-0.02,0.07,0.05,0.1h0.1C19.03,1.74,19.03,1.71,19.03,1.67z M20.38,1.88h-0.1
					c0,0.03,0.03,0.07,0.1,0.1h0.05C20.46,1.91,20.44,1.88,20.38,1.88z M19.97,1.77c-0.03,0-0.05,0.03-0.05,0.1
					c-0.07,0.03-0.07,0.07,0,0.1C20.22,1.94,20.24,1.88,19.97,1.77z"/>
				<path fill-rule="evenodd" clip-rule="evenodd" fill="#9AA3A8" d="M19.03,1.67c0,0.03,0,0.07,0,0.1h-0.1
					c-0.07-0.03-0.08-0.07-0.05-0.1H19.03z M19.58,0.77c-0.27,0.03-0.43,0.13-0.5,0.3c-0.03-0.1,0.05-0.18,0.25-0.25
					c0.13-0.03,0.27-0.07,0.4-0.1C19.76,0.76,19.71,0.77,19.58,0.77z M19.97,1.77c0.27,0.1,0.25,0.17-0.05,0.2
					c-0.07-0.03-0.07-0.07,0-0.1C19.92,1.81,19.94,1.77,19.97,1.77z M20.38,1.88c0.07,0,0.08,0.03,0.05,0.1h-0.05
					c-0.07-0.03-0.1-0.07-0.1-0.1H20.38z"/>
				<path fill-rule="evenodd" clip-rule="evenodd" fill="#323230" d="M20.72,2.52h-0.05c-0.2,0.07-0.43,0.1-0.7,0.1
					s-0.53-0.03-0.8-0.1V2.38c0.23,0.1,0.5,0.15,0.8,0.15c0.27,0,0.5-0.05,0.7-0.15h0.05V2.52z"/>
				<linearGradient id="SVGID_10_" gradientUnits="userSpaceOnUse" x1="20.6748" y1="3.1499" x2="19.2748" y2="3.1499">
					<stop  offset="0.0471" style="stop-color:#5B5F5F"/>
					<stop  offset="0.4392" style="stop-color:#919EA4"/>
					<stop  offset="1" style="stop-color:#525453"/>
				</linearGradient>
				<path fill-rule="evenodd" clip-rule="evenodd" fill="url(#SVGID_10_)" d="M19.17,2.52c0.27,0.07,0.53,0.1,0.8,0.1
					s0.5-0.03,0.7-0.1h0.05v1.05l-0.05,0.1c-0.17,0.03-0.4,0.07-0.7,0.1c-0.3,0-0.57-0.03-0.8-0.1V2.52z"/>
			</g>
		</g>
		<g>
			<g>
				<path fill-rule="evenodd" clip-rule="evenodd" fill="none" d="M21.53,5.52c-0.07,0.07-0.13,0.15-0.2,0.25
					c-0.1,0.03-0.18,0.1-0.25,0.2c-0.27,0.13-0.6,0.22-1,0.25c-0.03,0-0.07,0-0.1,0c-0.43,0-0.8-0.08-1.1-0.25
					c-0.2-0.13-0.35-0.28-0.45-0.45"/>
				<path fill-rule="evenodd" clip-rule="evenodd" fill="none" d="M21.88,3.08c-0.03,0.17-0.15,0.33-0.35,0.5
					c-0.07,0.07-0.13,0.12-0.2,0.15c-0.1,0.03-0.18,0.07-0.25,0.1c-0.3,0.13-0.63,0.2-1,0.2c-0.03,0-0.07,0-0.1,0
					c-0.43,0-0.82-0.07-1.15-0.2c-0.1-0.03-0.17-0.07-0.2-0.1c-0.27-0.17-0.43-0.33-0.5-0.5"/>
				<path fill-rule="evenodd" clip-rule="evenodd" fill="none" d="M21.08,3.83c-0.17,0.27-0.4,0.42-0.7,0.45
					c-0.1,0.07-0.2,0.1-0.3,0.1c-0.03,0-0.07,0-0.1,0c-0.13,0-0.28-0.03-0.45-0.1c-0.3-0.03-0.53-0.18-0.7-0.45"/>
				<path fill-rule="evenodd" clip-rule="evenodd" fill="none" d="M20.97,5.13c0,0.17-0.1,0.3-0.3,0.4c-0.17,0.07-0.37,0.1-0.6,0.1
					c-0.03,0-0.07,0-0.1,0c-0.27,0-0.5-0.03-0.7-0.1c-0.13-0.1-0.22-0.18-0.25-0.25"/>
				<path fill-rule="evenodd" clip-rule="evenodd" fill="none" d="M21.97,6.23c-0.1,0.2-0.3,0.38-0.6,0.55c0,0.07-0.02,0.1-0.05,0.1
					c-0.33,0.17-0.75,0.27-1.25,0.3c-0.03,0-0.07,0-0.1,0c-0.57,0-1.03-0.13-1.4-0.4c-0.3-0.17-0.5-0.35-0.6-0.55"/>
			</g>
		</g>
	</g>
	<g>
		<g>
			<g>
				<linearGradient id="SVGID_11_" gradientUnits="userSpaceOnUse" x1="2.7329" y1="16.4775" x2="3.6352" y2="18.9017">
					<stop  offset="0" style="stop-color:#505551"/>
					<stop  offset="0.9804" style="stop-color:#A4A79E"/>
				</linearGradient>
				<path fill-rule="evenodd" clip-rule="evenodd" fill="url(#SVGID_11_)" d="M5.17,18.08c-0.1,0.23-0.3,0.45-0.6,0.65
					c-0.37,0.2-0.82,0.3-1.35,0.3c-0.5,0-0.95-0.1-1.35-0.3c-0.3-0.2-0.47-0.43-0.5-0.7l-0.05-0.05v-0.1c0-0.3,0.18-0.57,0.55-0.8
					c0.4-0.23,0.85-0.35,1.35-0.35c0.53,0,0.98,0.12,1.35,0.35c0.4,0.23,0.6,0.5,0.6,0.8c0,0.07,0,0.12,0,0.15V18.08z M1.67,17.83
					c0,0.27,0.15,0.48,0.45,0.65c0.3,0.2,0.67,0.3,1.1,0.3c0.47,0,0.85-0.1,1.15-0.3c0.3-0.17,0.45-0.38,0.45-0.65
					c0-0.17-0.07-0.32-0.2-0.45c-0.07-0.1-0.15-0.17-0.25-0.2c-0.3-0.17-0.68-0.25-1.15-0.25c-0.43,0-0.8,0.08-1.1,0.25
					c-0.07,0.03-0.12,0.08-0.15,0.15C1.77,17.49,1.67,17.66,1.67,17.83z"/>
				<path fill-rule="evenodd" clip-rule="evenodd" fill="#11110F" d="M1.67,17.83c0-0.17,0.1-0.33,0.3-0.5
					c0.03-0.07,0.08-0.12,0.15-0.15c0.3-0.17,0.67-0.25,1.1-0.25c0.47,0,0.85,0.08,1.15,0.25c0.1,0.03,0.18,0.1,0.25,0.2
					c0.13,0.13,0.2,0.28,0.2,0.45c0,0.27-0.15,0.48-0.45,0.65c-0.3,0.2-0.68,0.3-1.15,0.3c-0.43,0-0.8-0.1-1.1-0.3
					C1.83,18.31,1.67,18.09,1.67,17.83z"/>
				<linearGradient id="SVGID_12_" gradientUnits="userSpaceOnUse" x1="5.1055" y1="18.0459" x2="1.4525" y2="18.9336">
					<stop  offset="0" style="stop-color:#303129"/>
					<stop  offset="0.502" style="stop-color:#6D6F66"/>
					<stop  offset="0.9804" style="stop-color:#303129"/>
				</linearGradient>
				<path fill-rule="evenodd" clip-rule="evenodd" fill="url(#SVGID_12_)" d="M1.38,18.03c0.03,0.27,0.2,0.5,0.5,0.7
					c0.4,0.2,0.85,0.3,1.35,0.3c0.53,0,0.98-0.1,1.35-0.3c0.3-0.2,0.5-0.42,0.6-0.65l-0.1,0.4c-0.07,0.2-0.23,0.37-0.5,0.5
					c-0.03,0.03-0.07,0.08-0.1,0.15c-0.27,0.07-0.55,0.13-0.85,0.2c-0.13,0.03-0.27,0.05-0.4,0.05s-0.28-0.02-0.45-0.05
					c-0.3-0.07-0.57-0.17-0.8-0.3l-0.1-0.05c-0.3-0.17-0.47-0.35-0.5-0.55V18.03z"/>
				<linearGradient id="SVGID_13_" gradientUnits="userSpaceOnUse" x1="4.4624" y1="19.8252" x2="1.9874" y2="19.8252">
					<stop  offset="0" style="stop-color:#303129"/>
					<stop  offset="0.502" style="stop-color:#6D6F66"/>
					<stop  offset="0.9804" style="stop-color:#303129"/>
				</linearGradient>
				<path fill-rule="evenodd" clip-rule="evenodd" fill="url(#SVGID_13_)" d="M1.98,19.03c0.23,0.13,0.5,0.23,0.8,0.3
					c0.17,0.03,0.32,0.05,0.45,0.05s0.27-0.02,0.4-0.05c0.3-0.07,0.58-0.13,0.85-0.2c-0.1,0.07-0.17,0.18-0.2,0.35v0.1
					c0,0.1,0,0.2,0,0.3c0,0.03,0,0.08,0,0.15v0.1c0,0.17-0.12,0.3-0.35,0.4c-0.2,0.07-0.43,0.1-0.7,0.1s-0.5-0.03-0.7-0.1
					c-0.2-0.13-0.3-0.27-0.3-0.4c0-0.03,0.02-0.05,0.05-0.05v-0.15c0-0.13-0.02-0.23-0.05-0.3c0-0.03,0-0.08,0-0.15
					C2.16,19.31,2.08,19.16,1.98,19.03z"/>
				<linearGradient id="SVGID_14_" gradientUnits="userSpaceOnUse" x1="2.5957" y1="20.9463" x2="3.1457" y2="20.3963">
					<stop  offset="0" style="stop-color:#45473A"/>
					<stop  offset="0.9804" style="stop-color:#AAB3AE"/>
				</linearGradient>
				<path fill-rule="evenodd" clip-rule="evenodd" fill="url(#SVGID_14_)" d="M1.67,20.53c0-0.1,0-0.18,0-0.25v-0.1
					c0.07-0.17,0.17-0.28,0.3-0.35c0.03-0.1,0.08-0.17,0.15-0.2h0.1c0.03,0.07,0.05,0.17,0.05,0.3v0.15c-0.03,0-0.05,0.02-0.05,0.05
					c0,0.13,0.1,0.27,0.3,0.4c0.2,0.07,0.43,0.1,0.7,0.1s0.5-0.03,0.7-0.1c0.23-0.1,0.35-0.23,0.35-0.4v-0.1c0-0.07,0-0.12,0-0.15
					c0-0.1,0-0.2,0-0.3l0.05,0.05c0.13,0.07,0.23,0.15,0.3,0.25c0.1,0.1,0.15,0.2,0.15,0.3v0.1c0,0.07,0,0.15,0,0.25
					c-0.1,0.17-0.25,0.32-0.45,0.45c-0.3,0.17-0.67,0.25-1.1,0.25c-0.43,0-0.8-0.08-1.1-0.25C1.92,20.84,1.77,20.69,1.67,20.53z"/>
				<linearGradient id="SVGID_15_" gradientUnits="userSpaceOnUse" x1="1.2002" y1="21.7998" x2="5.25" y2="21.7998">
					<stop  offset="0" style="stop-color:#000000"/>
					<stop  offset="0.2078" style="stop-color:#575651"/>
					<stop  offset="0.4157" style="stop-color:#040404"/>
					<stop  offset="0.5686" style="stop-color:#6C6F67"/>
					<stop  offset="0.7373" style="stop-color:#686A65"/>
					<stop  offset="0.8784" style="stop-color:#000000"/>
					<stop  offset="1" style="stop-color:#979CA0"/>
				</linearGradient>
				<path fill-rule="evenodd" clip-rule="evenodd" fill="url(#SVGID_15_)" d="M1.23,21.22c0.1,0.2,0.3,0.4,0.6,0.6
					c0.4,0.23,0.87,0.35,1.4,0.35c0.57,0,1.03-0.12,1.4-0.35c0.3-0.2,0.5-0.4,0.6-0.6c0.03-0.09,0.05-0.18,0.05-0.25v0.5
					c-0.03,0.3-0.25,0.58-0.65,0.85c-0.37,0.2-0.83,0.3-1.4,0.3c-0.53,0-1-0.1-1.4-0.3c-0.4-0.27-0.6-0.55-0.6-0.85V21.22z"/>
				<linearGradient id="SVGID_16_" gradientUnits="userSpaceOnUse" x1="1.0195" y1="21.2637" x2="5.3441" y2="21.0068">
					<stop  offset="0" style="stop-color:#565751"/>
					<stop  offset="0.2078" style="stop-color:#575651"/>
					<stop  offset="0.4157" style="stop-color:#4F4F45"/>
					<stop  offset="0.5686" style="stop-color:#6C6F67"/>
					<stop  offset="0.6431" style="stop-color:#BEC3BC"/>
					<stop  offset="0.7373" style="stop-color:#686A65"/>
					<stop  offset="0.8706" style="stop-color:#6E706B"/>
					<stop  offset="1" style="stop-color:#979CA0"/>
				</linearGradient>
				<path fill-rule="evenodd" clip-rule="evenodd" fill="url(#SVGID_16_)" d="M1.67,20.17v0.1c0,0.07,0,0.15,0,0.25
					c0,0.03,0,0.1,0,0.2c0,0.23,0.15,0.45,0.45,0.65c0.3,0.17,0.67,0.25,1.1,0.25c0.43,0,0.8-0.08,1.1-0.25
					c0.3-0.2,0.45-0.42,0.45-0.65c0-0.1,0-0.17,0-0.2c0-0.1,0-0.18,0-0.25v-0.1c0.13,0.07,0.22,0.13,0.25,0.2
					c0.17,0.17,0.25,0.37,0.25,0.6c0,0.07-0.02,0.16-0.05,0.25c-0.1,0.2-0.3,0.4-0.6,0.6c-0.37,0.23-0.83,0.35-1.4,0.35
					c-0.53,0-1-0.12-1.4-0.35c-0.3-0.2-0.5-0.4-0.6-0.6v-0.25c0-0.27,0.12-0.48,0.35-0.65C1.61,20.29,1.64,20.24,1.67,20.17z"/>
				<linearGradient id="SVGID_17_" gradientUnits="userSpaceOnUse" x1="1.6748" y1="21.0752" x2="4.7749" y2="21.0752">
					<stop  offset="0" style="stop-color:#000000"/>
					<stop  offset="0.2078" style="stop-color:#575651"/>
					<stop  offset="0.4157" style="stop-color:#040404"/>
					<stop  offset="0.5686" style="stop-color:#6C6F67"/>
					<stop  offset="0.7373" style="stop-color:#686A65"/>
					<stop  offset="0.8784" style="stop-color:#000000"/>
					<stop  offset="1" style="stop-color:#979CA0"/>
				</linearGradient>
				<path fill-rule="evenodd" clip-rule="evenodd" fill="url(#SVGID_17_)" d="M1.67,20.53c0.1,0.17,0.25,0.32,0.45,0.45
					c0.3,0.17,0.67,0.25,1.1,0.25c0.43,0,0.8-0.08,1.1-0.25c0.2-0.13,0.35-0.28,0.45-0.45c0,0.03,0,0.1,0,0.2
					c0,0.23-0.15,0.45-0.45,0.65c-0.3,0.17-0.67,0.25-1.1,0.25c-0.43,0-0.8-0.08-1.1-0.25c-0.3-0.2-0.45-0.42-0.45-0.65
					C1.67,20.63,1.67,20.56,1.67,20.53z"/>
			</g>
		</g>
		<g>
			<g>
				<radialGradient id="SVGID_18_" cx="3.375" cy="16.0752" r="2.15" gradientUnits="userSpaceOnUse">
					<stop  offset="0" style="stop-color:#919EA4"/>
					<stop  offset="0.6039" style="stop-color:#464A4A"/>
					<stop  offset="1" style="stop-color:#525453"/>
					<stop  offset="1" style="stop-color:#000000"/>
				</radialGradient>
				<path fill-rule="evenodd" clip-rule="evenodd" fill="url(#SVGID_18_)" d="M2.83,15.78c0.13,0,0.18-0.02,0.15-0.05
					c-0.13,0.03-0.27,0.07-0.4,0.1c-0.2,0.07-0.28,0.15-0.25,0.25C2.42,15.91,2.59,15.81,2.83,15.78z M4.02,17.38h-0.1
					c-0.2,0.1-0.43,0.15-0.7,0.15c-0.3,0-0.55-0.05-0.75-0.15c-0.03,0-0.08-0.02-0.15-0.05c-0.2-0.13-0.3-0.28-0.3-0.45
					c-0.03-0.4,0.03-0.68,0.2-0.85c0.03-0.07,0.07-0.13,0.1-0.2h0.1c0.2-0.13,0.47-0.2,0.8-0.2c0.23,0,0.45,0.03,0.65,0.1
					c0.13,0.07,0.23,0.17,0.3,0.3c0.2,0.23,0.3,0.52,0.3,0.85c-0.07,0.17-0.18,0.32-0.35,0.45C4.09,17.36,4.06,17.38,4.02,17.38z
					 M3.23,16.83c-0.03,0-0.05,0.02-0.05,0.05c-0.03,0.03-0.03,0.07,0,0.1C3.48,16.94,3.49,16.89,3.23,16.83z M2.27,16.83
					c0-0.07,0-0.12,0-0.15H2.13c-0.03,0.03,0,0.08,0.1,0.15H2.27z M3.67,16.97c0.03-0.07,0.02-0.1-0.05-0.1H3.58
					c0,0.03,0.02,0.07,0.05,0.1H3.67z"/>
				<path fill-rule="evenodd" clip-rule="evenodd" fill="#9AA3A8" d="M2.83,15.78c-0.23,0.03-0.4,0.13-0.5,0.3
					c-0.03-0.1,0.05-0.18,0.25-0.25c0.13-0.03,0.27-0.07,0.4-0.1C3.01,15.76,2.96,15.78,2.83,15.78z M2.27,16.83H2.23
					c-0.1-0.07-0.13-0.12-0.1-0.15h0.15C2.27,16.71,2.27,16.76,2.27,16.83z M3.23,16.83c0.27,0.07,0.25,0.12-0.05,0.15
					c-0.03-0.03-0.03-0.07,0-0.1C3.17,16.84,3.19,16.83,3.23,16.83z M3.67,16.97H3.63c-0.03-0.03-0.05-0.07-0.05-0.1h0.05
					C3.69,16.88,3.71,16.91,3.67,16.97z"/>
				<linearGradient id="SVGID_19_" gradientUnits="userSpaceOnUse" x1="3.9248" y1="18.1504" x2="2.5248" y2="18.1504">
					<stop  offset="0.0471" style="stop-color:#5B5F5F"/>
					<stop  offset="0.4392" style="stop-color:#919EA4"/>
					<stop  offset="1" style="stop-color:#525453"/>
				</linearGradient>
				<path fill-rule="evenodd" clip-rule="evenodd" fill="url(#SVGID_19_)" d="M2.48,17.53c0.23,0.07,0.48,0.1,0.75,0.1
					s0.5-0.03,0.7-0.1h0.1v1.05l-0.1,0.1c-0.17,0.03-0.4,0.07-0.7,0.1c-0.3,0-0.55-0.03-0.75-0.1V17.53z"/>
				<path fill-rule="evenodd" clip-rule="evenodd" fill="#323230" d="M4.02,17.53h-0.1c-0.2,0.07-0.43,0.1-0.7,0.1
					s-0.52-0.03-0.75-0.1v-0.15c0.2,0.1,0.45,0.15,0.75,0.15c0.27,0,0.5-0.05,0.7-0.15h0.1V17.53z"/>
			</g>
		</g>
		<g>
			<g>
				<path fill-rule="evenodd" clip-rule="evenodd" fill="none" d="M5.17,18.08c-0.07,0.17-0.2,0.33-0.4,0.5
					c-0.03,0.07-0.1,0.12-0.2,0.15c-0.07,0.03-0.15,0.08-0.25,0.15c-0.3,0.1-0.62,0.15-0.95,0.15c-0.07,0-0.12,0-0.15,0
					c-0.43,0-0.82-0.05-1.15-0.15c-0.07-0.07-0.13-0.12-0.2-0.15c-0.23-0.17-0.4-0.33-0.5-0.5"/>
				<path fill-rule="evenodd" clip-rule="evenodd" fill="none" d="M4.77,20.53c-0.03,0.07-0.1,0.15-0.2,0.25
					c-0.07,0.03-0.15,0.1-0.25,0.2c-0.27,0.13-0.58,0.22-0.95,0.25c-0.07,0-0.12,0-0.15,0c-0.43,0-0.8-0.08-1.1-0.25
					c-0.2-0.13-0.35-0.28-0.45-0.45"/>
				<path fill-rule="evenodd" clip-rule="evenodd" fill="none" d="M4.33,18.88c-0.17,0.23-0.4,0.38-0.7,0.45
					c-0.1,0.03-0.18,0.05-0.25,0.05c-0.07,0-0.12,0-0.15,0c-0.13,0-0.28-0.02-0.45-0.05c-0.3-0.07-0.53-0.22-0.7-0.45"/>
				<path fill-rule="evenodd" clip-rule="evenodd" fill="none" d="M4.27,20.13c0,0.17-0.12,0.3-0.35,0.4
					c-0.17,0.07-0.35,0.1-0.55,0.1c-0.07,0-0.12,0-0.15,0c-0.27,0-0.5-0.03-0.7-0.1c-0.13-0.1-0.22-0.18-0.25-0.25"/>
				<path fill-rule="evenodd" clip-rule="evenodd" fill="none" d="M5.23,21.22c-0.1,0.2-0.3,0.4-0.6,0.6c0,0.03-0.02,0.05-0.05,0.05
					c-0.33,0.17-0.73,0.27-1.2,0.3c-0.07,0-0.12,0-0.15,0c-0.53,0-1-0.12-1.4-0.35c-0.3-0.2-0.5-0.4-0.6-0.6"/>
			</g>
		</g>
	</g>
</g>
</svg>
