<?xml version="1.0" encoding="utf-8"?>
<!-- Generator: Adobe Illustrator 16.0.0, SVG Export Plug-In . SVG Version: 6.00 Build 0)  -->
<!DOCTYPE svg PUBLIC "-//W3C//DTD SVG 1.1//EN" "http://www.w3.org/Graphics/SVG/1.1/DTD/svg11.dtd">
<svg version="1.1" id="Layer_1" xmlns="http://www.w3.org/2000/svg" xmlns:xlink="http://www.w3.org/1999/xlink" x="0px" y="0px"
	 width="305px" height="125px" viewBox="0 0 305 125" enable-background="new 0 0 305 125" xml:space="preserve">
<g>
	<path fill="#BF0404" d="M7.5,14.25c0.4-0.11,0.79-0.06,1.15,0.15c0.65,0.26,1.46,0.05,2.45-0.63c0.3-0.21,0.62-0.3,0.98-0.27
		c7.6,0.65,15.49-1.59,23.67-6.73c4.26-2.7,8.02-3.73,11.27-3.07c3.37,0.57,6.19,2.85,8.48,6.85c0.58,1,1.23,2.2,1.98,3.6h-3.4
		c-0.43-0.78-0.82-1.48-1.18-2.1c-1.75-3.07-3.88-4.86-6.4-5.38c-2.63-0.43-5.68,0.45-9.15,2.65c-8.64,5.42-16.98,7.83-25.02,7.22
		c-2.02,1.24-3.74,1.39-5.18,0.45c-0.36-0.2-0.59-0.5-0.7-0.9c-0.11-0.4-0.06-0.79,0.15-1.15C6.8,14.59,7.1,14.36,7.5,14.25z
		 M270.65,85.8l-0.2-3.3c12.69,4.13,22.28,11.36,28.77,21.7c0.03,0.05,0.05,0.1,0.08,0.15c4.33,9.04,4.88,14.38,1.65,16
		c-2.64,1.8-8.55-0.15-17.75-5.85c-0.02-0.01-0.03-0.01-0.05-0.03c-7.43-4.32-12.9-6.11-16.4-5.38c-2.95,0.87-4.27,4.02-3.95,9.45
		c0.03,0.42-0.1,0.79-0.38,1.1c-0.27,0.31-0.62,0.48-1.02,0.5c-0.42,0.02-0.78-0.1-1.1-0.38c-0.31-0.27-0.48-0.62-0.5-1.03
		c-0.45-7.44,1.63-11.63,6.23-12.58c4.04-1.08,10.26,0.83,18.67,5.73l0.05,0.02c7.78,4.82,12.68,6.76,14.7,5.83
		c1.44-1.07,0.52-5.05-2.78-11.95C290.65,96.42,281.98,89.75,270.65,85.8z M166.55,87.45l-0.45,3.1
		c-27.47,2.7-48.89,0.84-64.27-5.57c-11.89-4.96-20.16-12.56-24.8-22.8c-1.96-4.3-3.82-8.34-5.57-12.13h3.32
		c1.58,3.42,3.25,7.05,5,10.88c4.36,9.56,12.09,16.66,23.2,21.3C118.07,88.45,139.27,90.19,166.55,87.45z"/>
</g>
</svg>
