<?xml version="1.0" encoding="utf-8"?>
<!-- Generator: Adobe Illustrator 16.0.0, SVG Export Plug-In . SVG Version: 6.00 Build 0)  -->
<!DOCTYPE svg PUBLIC "-//W3C//DTD SVG 1.1//EN" "http://www.w3.org/Graphics/SVG/1.1/DTD/svg11.dtd">
<svg version="1.1" id="Layer_2" xmlns="http://www.w3.org/2000/svg" xmlns:xlink="http://www.w3.org/1999/xlink" x="0px" y="0px"
	 width="7.33px" height="26px" viewBox="0 0 7.33 26" enable-background="new 0 0 7.33 26" xml:space="preserve">
<g>
	<g>
		<linearGradient id="SVGID_1_" gradientUnits="userSpaceOnUse" x1="1.2266" y1="2.6875" x2="5.9266" y2="2.6875">
			<stop  offset="0" style="stop-color:#0D0D0D"/>
			<stop  offset="0.4" style="stop-color:#333333"/>
			<stop  offset="1" style="stop-color:#000000"/>
		</linearGradient>
		<path fill-rule="evenodd" clip-rule="evenodd" fill="url(#SVGID_1_)" d="M5.876,4.375c-0.017-0.076-0.051-0.151-0.1-0.225
			c-0.1-0.167-0.283-0.333-0.55-0.5c-0.066,0-0.134-0.017-0.2-0.05c-0.4-0.2-0.884-0.3-1.45-0.3c-0.2,0-0.399,0.017-0.6,0.05
			c-0.333,0.033-0.633,0.117-0.9,0.25c-0.033,0.033-0.083,0.05-0.15,0.05c-0.3,0.167-0.5,0.367-0.6,0.6
			c-0.028,0.028-0.044,0.053-0.05,0.075l0.25-2.675c0.1-0.1,0.233-0.2,0.4-0.3c0.333-0.167,0.684-0.267,1.05-0.3
			C3.177,1.017,3.376,1,3.576,1C4.21,1,4.76,1.117,5.227,1.35c0.166,0.1,0.3,0.2,0.399,0.3L5.876,4.375z"/>
		<linearGradient id="SVGID_2_" gradientUnits="userSpaceOnUse" x1="1.2266" y1="2.6875" x2="5.9266" y2="2.6875">
			<stop  offset="0" style="stop-color:#0D0D0D"/>
			<stop  offset="0.4" style="stop-color:#333333"/>
			<stop  offset="1" style="stop-color:#000000"/>
		</linearGradient>
		<path fill-rule="evenodd" clip-rule="evenodd" fill="url(#SVGID_2_)" d="M5.876,4.375c-0.017-0.076-0.051-0.151-0.1-0.225
			c-0.1-0.167-0.283-0.333-0.55-0.5c-0.066,0-0.134-0.017-0.2-0.05c-0.4-0.2-0.884-0.3-1.45-0.3c-0.2,0-0.399,0.017-0.6,0.05
			c-0.333,0.033-0.633,0.117-0.9,0.25c-0.033,0.033-0.083,0.05-0.15,0.05c-0.3,0.167-0.5,0.367-0.6,0.6
			c-0.028,0.028-0.044,0.053-0.05,0.075l0.25-2.675c0.1-0.1,0.233-0.2,0.4-0.3c0.333-0.167,0.684-0.267,1.05-0.3
			C3.177,1.017,3.376,1,3.576,1C4.21,1,4.76,1.117,5.227,1.35c0.166,0.1,0.3,0.2,0.399,0.3L5.876,4.375z"/>
		<linearGradient id="SVGID_3_" gradientUnits="userSpaceOnUse" x1="3.5513" y1="6.4248" x2="3.5513" y2="0.9748">
			<stop  offset="0" style="stop-color:#0D0D0D"/>
			<stop  offset="0.4" style="stop-color:#333333"/>
			<stop  offset="1" style="stop-color:#000000"/>
		</linearGradient>
		<path fill-rule="evenodd" clip-rule="evenodd" fill="url(#SVGID_3_)" d="M1.276,4.325c0.005-0.022,0.022-0.047,0.05-0.075
			c0.1-0.233,0.3-0.433,0.6-0.6c0.067,0,0.117-0.017,0.15-0.05c0.267-0.133,0.567-0.217,0.9-0.25c0.2-0.033,0.399-0.05,0.6-0.05
			c0.566,0,1.05,0.1,1.45,0.3c0.066,0.033,0.134,0.05,0.2,0.05c0.267,0.167,0.45,0.333,0.55,0.5c0.049,0.074,0.083,0.149,0.1,0.225
			V4.65c0,0.034,0,0.067,0,0.1C5.776,4.983,5.56,5.2,5.227,5.4C4.76,5.633,4.21,5.75,3.576,5.75c-0.2,0-0.399-0.017-0.6-0.05
			c-0.4-0.034-0.75-0.133-1.05-0.3C1.56,5.2,1.343,4.983,1.276,4.75V4.7c-0.033-0.067-0.05-0.117-0.05-0.15l0.05-0.15V4.35V4.325z"
			/>
		<linearGradient id="SVGID_4_" gradientUnits="userSpaceOnUse" x1="3.5513" y1="6.4248" x2="3.5513" y2="0.9748">
			<stop  offset="0" style="stop-color:#0D0D0D"/>
			<stop  offset="0.4" style="stop-color:#333333"/>
			<stop  offset="1" style="stop-color:#000000"/>
		</linearGradient>
		<path fill-rule="evenodd" clip-rule="evenodd" fill="url(#SVGID_4_)" d="M1.276,4.325c0.005-0.022,0.022-0.047,0.05-0.075
			c0.1-0.233,0.3-0.433,0.6-0.6c0.067,0,0.117-0.017,0.15-0.05c0.267-0.133,0.567-0.217,0.9-0.25c0.2-0.033,0.399-0.05,0.6-0.05
			c0.566,0,1.05,0.1,1.45,0.3c0.066,0.033,0.134,0.05,0.2,0.05c0.267,0.167,0.45,0.333,0.55,0.5c0.049,0.074,0.083,0.149,0.1,0.225
			V4.65c0,0.034,0,0.067,0,0.1C5.776,4.983,5.56,5.2,5.227,5.4C4.76,5.633,4.21,5.75,3.576,5.75c-0.2,0-0.399-0.017-0.6-0.05
			c-0.4-0.034-0.75-0.133-1.05-0.3C1.56,5.2,1.343,4.983,1.276,4.75V4.7c-0.033-0.067-0.05-0.117-0.05-0.15l0.05-0.15V4.35V4.325z"
			/>
	</g>
	<g>
		<linearGradient id="SVGID_5_" gradientUnits="userSpaceOnUse" x1="1.4263" y1="4.75" x2="5.7263" y2="4.75">
			<stop  offset="0" style="stop-color:#0D0D0D"/>
			<stop  offset="0.4" style="stop-color:#333333"/>
			<stop  offset="1" style="stop-color:#000000"/>
		</linearGradient>
		<path fill-rule="evenodd" clip-rule="evenodd" fill="url(#SVGID_5_)" d="M1.477,5.5V4.8c0-0.033,0.017-0.066,0.05-0.1
			c0.067-0.2,0.25-0.367,0.55-0.5c0.034-0.034,0.067-0.05,0.1-0.05l0.05-0.05c0.233-0.1,0.5-0.167,0.8-0.2
			c0.167-0.033,0.35-0.05,0.55-0.05c0.5,0,0.95,0.083,1.351,0.25c0,0.033,0.017,0.05,0.05,0.05s0.066,0.017,0.1,0.05
			c0.233,0.133,0.4,0.283,0.5,0.45C5.643,4.717,5.677,4.8,5.677,4.9v0.75c-0.003-0.103-0.036-0.203-0.101-0.3
			c-0.1-0.167-0.267-0.317-0.5-0.45c-0.033,0-0.066-0.017-0.1-0.05h-0.05C4.526,4.684,4.076,4.6,3.576,4.6c-0.2,0-0.383,0-0.55,0
			c-0.3,0.033-0.567,0.117-0.8,0.25h-0.05C2.143,4.883,2.11,4.9,2.076,4.9c-0.233,0.133-0.4,0.284-0.5,0.45L1.526,5.4
			C1.494,5.432,1.478,5.466,1.477,5.5z"/>
		<linearGradient id="SVGID_6_" gradientUnits="userSpaceOnUse" x1="3.5518" y1="7.4375" x2="3.5518" y2="2.4625">
			<stop  offset="0" style="stop-color:#0D0D0D"/>
			<stop  offset="0.4" style="stop-color:#333333"/>
			<stop  offset="1" style="stop-color:#000000"/>
		</linearGradient>
		<path fill-rule="evenodd" clip-rule="evenodd" fill="url(#SVGID_6_)" d="M5.677,5.65V5.9C5.576,6.133,5.376,6.333,5.076,6.5
			c-0.434,0.2-0.934,0.3-1.5,0.3c-0.2,0-0.383-0.017-0.55-0.05C2.66,6.717,2.343,6.633,2.076,6.5c-0.333-0.2-0.533-0.4-0.6-0.6
			c0-0.033,0-0.066,0-0.1c-0.034-0.033-0.05-0.066-0.05-0.1l0.05-0.15V5.5c0.001-0.034,0.018-0.068,0.05-0.1l0.05-0.05
			c0.1-0.167,0.267-0.317,0.5-0.45c0.034,0,0.067-0.017,0.1-0.05h0.05c0.233-0.133,0.5-0.217,0.8-0.25c0.167,0,0.35,0,0.55,0
			c0.5,0,0.95,0.083,1.351,0.25h0.05C5.01,4.883,5.043,4.9,5.076,4.9c0.233,0.133,0.4,0.284,0.5,0.45
			C5.641,5.447,5.674,5.547,5.677,5.65z"/>
	</g>
	<g>
		
			<radialGradient id="SVGID_7_" cx="3.5762" cy="5.75" r="2.875" gradientTransform="matrix(1 0 0 0.5174 0 2.775)" gradientUnits="userSpaceOnUse">
			<stop  offset="0.2667" style="stop-color:#413E35"/>
			<stop  offset="0.3373" style="stop-color:#957D59"/>
			<stop  offset="0.5569" style="stop-color:#413E35"/>
			<stop  offset="0.7451" style="stop-color:#4B4932"/>
			<stop  offset="1" style="stop-color:#000000"/>
		</radialGradient>
		<path fill-rule="evenodd" clip-rule="evenodd" fill="url(#SVGID_7_)" d="M4.977,4.95c0.033,0,0.066,0.017,0.1,0.05
			c0.233,0.1,0.4,0.233,0.5,0.4v0.05C5.643,5.517,5.677,5.6,5.677,5.7V6C5.576,6.2,5.376,6.383,5.076,6.55
			C4.643,6.783,4.143,6.9,3.576,6.9c-0.2,0-0.383-0.017-0.55-0.05c-0.367-0.033-0.683-0.133-0.95-0.3
			c-0.333-0.167-0.533-0.366-0.6-0.6V5.9c-0.034-0.033-0.05-0.083-0.05-0.15l0.05-0.1V5.6c0-0.033,0.017-0.067,0.05-0.1
			c0-0.033,0.017-0.066,0.05-0.1c0.1-0.167,0.267-0.3,0.5-0.4c0.034-0.033,0.067-0.05,0.1-0.05c0-0.034,0.017-0.05,0.05-0.05
			c0.233-0.1,0.5-0.167,0.8-0.2c0.167-0.034,0.35-0.05,0.55-0.05c0.5,0,0.95,0.083,1.351,0.25C4.927,4.934,4.943,4.95,4.977,4.95z"
			/>
	</g>
	<g>
		<linearGradient id="SVGID_8_" gradientUnits="userSpaceOnUse" x1="2.6641" y1="6.0996" x2="4.5891" y2="6.0996">
			<stop  offset="0" style="stop-color:#707161"/>
			<stop  offset="0.0706" style="stop-color:#5C5C4A"/>
			<stop  offset="0.1569" style="stop-color:#403F2A"/>
			<stop  offset="0.1961" style="stop-color:#6E6B4A"/>
			<stop  offset="0.3333" style="stop-color:#47463B"/>
			<stop  offset="0.4275" style="stop-color:#4E4C3D"/>
			<stop  offset="0.5412" style="stop-color:#2F2D20"/>
			<stop  offset="0.5882" style="stop-color:#838473"/>
			<stop  offset="0.7373" style="stop-color:#23221E"/>
			<stop  offset="0.9725" style="stop-color:#484438"/>
			<stop  offset="1" style="stop-color:#000000"/>
		</linearGradient>
		<path fill-rule="evenodd" clip-rule="evenodd" fill="url(#SVGID_8_)" d="M2.676,6.8V5.75c0.033-0.066,0.117-0.133,0.25-0.2h0.05
			c0-0.033,0.017-0.05,0.05-0.05c0.1-0.033,0.217-0.05,0.35-0.05c0.067-0.034,0.15-0.05,0.25-0.05c0.233,0,0.434,0.034,0.601,0.1
			v0.05h0.05c0.1,0.034,0.167,0.083,0.2,0.15l0.05,0.05c0,0.033,0.017,0.067,0.05,0.1v0.3l-0.05,0.6L4.477,6.7
			c-0.033-0.034-0.101-0.067-0.2-0.1l-0.05-0.05c-0.167-0.066-0.367-0.1-0.601-0.1c-0.1,0-0.183,0-0.25,0
			c-0.133,0.033-0.25,0.066-0.35,0.1h-0.05L2.926,6.6c-0.1,0.033-0.167,0.083-0.2,0.15C2.694,6.75,2.677,6.767,2.676,6.8z"/>
		<linearGradient id="SVGID_9_" gradientUnits="userSpaceOnUse" x1="3.6265" y1="6.8623" x2="3.6265" y2="4.8373">
			<stop  offset="0" style="stop-color:#0D0D0D"/>
			<stop  offset="0.4" style="stop-color:#333333"/>
			<stop  offset="1" style="stop-color:#000000"/>
		</linearGradient>
		<path fill-rule="evenodd" clip-rule="evenodd" fill="url(#SVGID_9_)" d="M4.576,6.15v0.8L4.526,7c0,0.033-0.017,0.067-0.05,0.1
			s-0.101,0.066-0.2,0.1c-0.167,0.1-0.384,0.15-0.65,0.15c-0.1,0-0.183,0-0.25,0C3.21,7.317,3.06,7.267,2.926,7.2
			C2.793,7.133,2.709,7.067,2.676,7V6.8c0.001-0.033,0.018-0.05,0.05-0.05c0.033-0.066,0.1-0.117,0.2-0.15l0.05-0.05h0.05
			c0.1-0.033,0.217-0.066,0.35-0.1c0.067,0,0.15,0,0.25,0c0.233,0,0.434,0.033,0.601,0.1l0.05,0.05c0.1,0.033,0.167,0.066,0.2,0.1
			l0.05,0.05L4.576,6.15z"/>
	</g>
	<g>
		<linearGradient id="SVGID_10_" gradientUnits="userSpaceOnUse" x1="2.1514" y1="6.6499" x2="5.1014" y2="6.6499">
			<stop  offset="0" style="stop-color:#707161"/>
			<stop  offset="0.0706" style="stop-color:#5C5C4A"/>
			<stop  offset="0.1569" style="stop-color:#403F2A"/>
			<stop  offset="0.1961" style="stop-color:#6E6B4A"/>
			<stop  offset="0.3333" style="stop-color:#47463B"/>
			<stop  offset="0.4275" style="stop-color:#4E4C3D"/>
			<stop  offset="0.5412" style="stop-color:#2F2D20"/>
			<stop  offset="0.5882" style="stop-color:#838473"/>
			<stop  offset="0.7373" style="stop-color:#23221E"/>
			<stop  offset="0.9725" style="stop-color:#484438"/>
			<stop  offset="1" style="stop-color:#000000"/>
		</linearGradient>
		<path fill-rule="evenodd" clip-rule="evenodd" fill="url(#SVGID_10_)" d="M5.076,7.25C5.074,7.181,5.058,7.131,5.026,7.1
			c-0.033,0-0.05-0.017-0.05-0.05L4.927,7C4.859,6.9,4.76,6.817,4.626,6.75h-0.05L4.526,6.7C4.26,6.6,3.96,6.55,3.626,6.55
			c-0.133,0-0.267,0-0.399,0c-0.2,0.034-0.383,0.083-0.55,0.15v0.05c-0.033,0-0.066,0-0.1,0c-0.167,0.1-0.283,0.2-0.35,0.3V7.1
			c-0.033,0.032-0.049,0.065-0.05,0.1V6.7c0-0.034,0.017-0.05,0.05-0.05C2.293,6.517,2.41,6.4,2.576,6.3
			c0.034-0.033,0.067-0.05,0.1-0.05c0.167-0.1,0.35-0.15,0.55-0.15c0.133-0.033,0.267-0.05,0.399-0.05c0.334,0,0.634,0.067,0.9,0.2
			h0.05c0.033,0,0.05,0.017,0.05,0.05C4.76,6.367,4.859,6.434,4.927,6.5c0.033,0.033,0.066,0.067,0.1,0.1
			c0.033,0.066,0.05,0.133,0.05,0.2V7.25z"/>
		<linearGradient id="SVGID_11_" gradientUnits="userSpaceOnUse" x1="3.6265" y1="8.5" x2="3.6265" y2="5.1">
			<stop  offset="0" style="stop-color:#0D0D0D"/>
			<stop  offset="0.4" style="stop-color:#333333"/>
			<stop  offset="1" style="stop-color:#000000"/>
		</linearGradient>
		<path fill-rule="evenodd" clip-rule="evenodd" fill="url(#SVGID_11_)" d="M2.176,7.2c0.001-0.035,0.018-0.068,0.05-0.1V7.05
			c0.066-0.1,0.183-0.2,0.35-0.3c0.034,0,0.067,0,0.1,0V6.7c0.167-0.067,0.35-0.117,0.55-0.15c0.133,0,0.267,0,0.399,0
			c0.334,0,0.634,0.05,0.9,0.15l0.05,0.05h0.05C4.76,6.817,4.859,6.9,4.927,7l0.05,0.05c0,0.034,0.017,0.05,0.05,0.05
			c0.031,0.031,0.048,0.081,0.05,0.15V7.4l-0.05,0.05c0,0.066-0.033,0.133-0.1,0.2C4.859,7.717,4.76,7.783,4.626,7.85
			c-0.267,0.133-0.6,0.2-1,0.2c-0.133,0-0.267,0-0.399,0c-0.233-0.033-0.45-0.1-0.65-0.2c-0.2-0.133-0.333-0.267-0.4-0.4V7.4
			c0-0.033,0-0.066,0-0.1V7.2z"/>
	</g>
	<g>
		<g>
			<linearGradient id="SVGID_12_" gradientUnits="userSpaceOnUse" x1="5.8135" y1="12.8745" x2="1.3385" y2="12.8745">
				<stop  offset="0" style="stop-color:#0D0D0D"/>
				<stop  offset="0.4" style="stop-color:#333333"/>
				<stop  offset="1" style="stop-color:#000000"/>
			</linearGradient>
			<path fill-rule="evenodd" clip-rule="evenodd" fill="url(#SVGID_12_)" d="M5.876,19.35c-0.033-0.3-0.267-0.566-0.699-0.8
				c-0.434-0.233-0.983-0.35-1.65-0.35c-0.2,0-0.4,0.017-0.6,0.05c-0.4,0.033-0.75,0.134-1.05,0.3c-0.4,0.2-0.633,0.434-0.7,0.7
				V7.45c0.067-0.267,0.3-0.5,0.7-0.7c0.3-0.167,0.65-0.267,1.05-0.3c0.2-0.034,0.4-0.05,0.6-0.05c0.667,0,1.217,0.117,1.65,0.35
				c0.433,0.233,0.666,0.5,0.699,0.8V19.35z"/>
			<linearGradient id="SVGID_13_" gradientUnits="userSpaceOnUse" x1="5.8135" y1="12.8745" x2="1.3385" y2="12.8745">
				<stop  offset="0" style="stop-color:#0D0D0D"/>
				<stop  offset="0.4" style="stop-color:#333333"/>
				<stop  offset="1" style="stop-color:#000000"/>
			</linearGradient>
			<path fill-rule="evenodd" clip-rule="evenodd" fill="url(#SVGID_13_)" d="M5.876,19.35c-0.033-0.3-0.267-0.566-0.699-0.8
				c-0.434-0.233-0.983-0.35-1.65-0.35c-0.2,0-0.4,0.017-0.6,0.05c-0.4,0.033-0.75,0.134-1.05,0.3c-0.4,0.2-0.633,0.434-0.7,0.7
				V7.45c0.067-0.267,0.3-0.5,0.7-0.7c0.3-0.167,0.65-0.267,1.05-0.3c0.2-0.034,0.4-0.05,0.6-0.05c0.667,0,1.217,0.117,1.65,0.35
				c0.433,0.233,0.666,0.5,0.699,0.8V19.35z"/>
			<path fill-rule="evenodd" clip-rule="evenodd" fill="#1E1E1E" d="M1.176,19.25c0.067-0.267,0.3-0.5,0.7-0.7
				c0.3-0.166,0.65-0.267,1.05-0.3c0.2-0.033,0.4-0.05,0.6-0.05c0.667,0,1.217,0.116,1.65,0.35c0.433,0.233,0.666,0.5,0.699,0.8
				v0.15c0,0.066,0,0.116,0,0.15c-0.066,0.267-0.3,0.483-0.699,0.649c-0.434,0.267-0.983,0.4-1.65,0.4c-0.2,0-0.4-0.017-0.6-0.05
				c-0.4-0.067-0.75-0.184-1.05-0.351c-0.367-0.166-0.6-0.383-0.7-0.649c0-0.067,0-0.134,0-0.2S1.176,19.316,1.176,19.25z"/>
			<path fill-rule="evenodd" clip-rule="evenodd" fill="#1E1E1E" d="M1.176,19.25c0.067-0.267,0.3-0.5,0.7-0.7
				c0.3-0.166,0.65-0.267,1.05-0.3c0.2-0.033,0.4-0.05,0.6-0.05c0.667,0,1.217,0.116,1.65,0.35c0.433,0.233,0.666,0.5,0.699,0.8
				v0.15c0,0.066,0,0.116,0,0.15c-0.066,0.267-0.3,0.483-0.699,0.649c-0.434,0.267-0.983,0.4-1.65,0.4c-0.2,0-0.4-0.017-0.6-0.05
				c-0.4-0.067-0.75-0.184-1.05-0.351c-0.367-0.166-0.6-0.383-0.7-0.649c0-0.067,0-0.134,0-0.2S1.176,19.316,1.176,19.25z"/>
		</g>
		<g>
			<g>
				<linearGradient id="SVGID_14_" gradientUnits="userSpaceOnUse" x1="1.5513" y1="19.6133" x2="5.5015" y2="19.6133">
					<stop  offset="0" style="stop-color:#0D0D0D"/>
					<stop  offset="0.4" style="stop-color:#333333"/>
					<stop  offset="1" style="stop-color:#000000"/>
				</linearGradient>
				<path fill-rule="evenodd" clip-rule="evenodd" fill="url(#SVGID_14_)" d="M1.576,20.575V19.65c0-0.267,0.184-0.5,0.55-0.7
					c0.4-0.2,0.883-0.3,1.45-0.3s1.033,0.1,1.4,0.3c0.3,0.133,0.483,0.3,0.55,0.5v0.95c-0.033-0.101-0.1-0.184-0.2-0.25
					c-0.1-0.101-0.217-0.184-0.35-0.25c-0.367-0.2-0.834-0.301-1.4-0.301S2.526,19.7,2.126,19.9c-0.133,0.066-0.233,0.149-0.3,0.25
					C1.665,20.279,1.582,20.421,1.576,20.575z"/>
				<path fill-rule="evenodd" clip-rule="evenodd" fill="#1E1E1E" d="M5.526,20.4v0.449c-0.066,0.167-0.25,0.317-0.55,0.45
					c-0.367,0.2-0.834,0.3-1.4,0.3s-1.05-0.1-1.45-0.3c-0.367-0.2-0.55-0.416-0.55-0.649v-0.075c0.005-0.154,0.089-0.296,0.25-0.425
					c0.067-0.101,0.167-0.184,0.3-0.25c0.4-0.2,0.883-0.301,1.45-0.301s1.033,0.101,1.4,0.301c0.133,0.066,0.25,0.149,0.35,0.25
					C5.427,20.217,5.493,20.3,5.526,20.4z"/>
				<path fill-rule="evenodd" clip-rule="evenodd" fill="#FFFFFF" d="M5.526,20.85V20.4c0.033,0.066,0.05,0.133,0.05,0.199
					C5.576,20.667,5.56,20.75,5.526,20.85z"/>
			</g>
		</g>
		<g>
			<path fill-rule="evenodd" clip-rule="evenodd" d="M1.776,7.05v11.3c-0.033,0-0.067,0.017-0.1,0.051V7.1
				C1.709,7.067,1.743,7.05,1.776,7.05z M2.826,6.75V18c-0.033,0.033-0.066,0.05-0.1,0.05V6.75C2.76,6.75,2.793,6.75,2.826,6.75z
				 M3.927,6.7v11.25H3.876V6.7H3.927z M5.126,6.9v11.3l-0.05-0.05V6.85L5.126,6.9z"/>
			<path fill-rule="evenodd" clip-rule="evenodd" fill="#414141" d="M4.276,6.7V18c-0.033,0-0.066,0-0.1,0V6.7
				C4.21,6.7,4.243,6.7,4.276,6.7z"/>
			<path fill-rule="evenodd" clip-rule="evenodd" fill="#2F2F2F" d="M3.177,6.7V18c-0.034,0-0.067,0-0.101,0V6.7
				C3.109,6.7,3.143,6.7,3.177,6.7z M2.126,6.9v11.3c-0.033,0-0.067,0.017-0.1,0.05V6.95C2.06,6.917,2.093,6.9,2.126,6.9z
				 M5.477,7.05v11.3C5.443,18.316,5.41,18.3,5.376,18.3V7C5.41,7,5.443,7.017,5.477,7.05z"/>
		</g>
		<g>
			<linearGradient id="SVGID_15_" gradientUnits="userSpaceOnUse" x1="1.4263" y1="22.4746" x2="5.5263" y2="22.4746">
				<stop  offset="0" style="stop-color:#8C8C8A"/>
				<stop  offset="0.4784" style="stop-color:#FCFCFC"/>
				<stop  offset="1" style="stop-color:#8E8E8E"/>
			</linearGradient>
			<path fill-rule="evenodd" clip-rule="evenodd" fill="url(#SVGID_15_)" d="M5.376,23.8c-1.399-0.166-2.55,0.2-3.45,1.101v-3.95
				c0-0.033,0-0.066,0-0.101V20.8c0.067-0.2,0.233-0.366,0.5-0.5c0.233-0.1,0.483-0.184,0.75-0.25c0.166,0,0.316,0,0.449,0
				c0.467,0,0.884,0.084,1.25,0.25c0.301,0.167,0.467,0.351,0.5,0.55V23.8z"/>
			<path fill-rule="evenodd" clip-rule="evenodd" fill="#858585" d="M1.926,24.9c0.9-0.9,2.05-1.267,3.45-1.101
				C4.977,24.566,3.826,24.934,1.926,24.9z"/>
			<g>
				<path fill-rule="evenodd" clip-rule="evenodd" fill="#FFFFFF" d="M4.626,23.75c-0.933,0.066-1.683,0.316-2.25,0.75
					c0.233-0.267,0.566-0.467,1-0.6C3.843,23.733,4.26,23.684,4.626,23.75z"/>
			</g>
		</g>
	</g>
</g>
</svg>
